<svg xmlns="http://www.w3.org/2000/svg" fill="none" viewBox="0 0 24 24" height="48" width="48"><path fill="#000000" fill-rule="evenodd" d="M12 5.5C12 2.5 13.5 1 16.5 1C16.5 4 15 5.5 12 5.5ZM10.6734 7.13262C10.0308 6.83765 9.29525 6.5 8.33601 6.5C6.20698 6.5 3.01343 8.62903 3.01343 12.8871C3.01343 17.1452 5.71221 23 8.33601 23C9.1344 23 9.66665 22.7339 10.1989 22.4677C10.7312 22.2016 11.2634 21.9355 12.0618 21.9355C12.8602 21.9355 13.5255 22.2016 14.1908 22.4677C14.8562 22.7339 15.5215 23 16.3199 23C18.1552 23 20.0271 20.1355 20.9865 16.9565C20.1043 16.6368 18.3399 14.9846 18.3399 12.8871C18.3399 10.1806 19.5768 8.96383 20.1952 8.55742C19.0795 7.18581 17.5282 6.5 16.3199 6.5C15.3606 6.5 14.4563 6.83765 13.6662 7.13262C13.0534 7.3614 12.5094 7.56452 12.0618 7.56452C11.6143 7.56452 11.1718 7.3614 10.6734 7.13262Z" clip-rule="evenodd"></path></svg>