<svg xmlns="http://www.w3.org/2000/svg" xmlns:xlink="http://www.w3.org/1999/xlink" width="910" height="429" viewBox="0 0 910 429">
    <defs>
        <filter id="chmfvtg6gb" width="244.4%" height="244.4%" x="-72.2%" y="-67.8%" filterUnits="objectBoundingBox">
            <feOffset dy="2" in="SourceAlpha" result="shadowOffsetOuter1"/>
            <feGaussianBlur in="shadowOffsetOuter1" result="shadowBlurOuter1" stdDeviation="10.5"/>
            <feColorMatrix in="shadowBlurOuter1" values="0 0 0 0 0.0901960784 0 0 0 0 0.447058824 0 0 0 0 0.97254902 0 0 0 0.1 0"/>
        </filter>
        <filter id="utdr363vxd" width="280.6%" height="280.6%" x="-90.3%" y="-84.7%" filterUnits="objectBoundingBox">
            <feOffset dy="2" in="SourceAlpha" result="shadowOffsetOuter1"/>
            <feGaussianBlur in="shadowOffsetOuter1" result="shadowBlurOuter1" stdDeviation="10.5"/>
            <feColorMatrix in="shadowBlurOuter1" values="0 0 0 0 0.0901960784 0 0 0 0 0.447058824 0 0 0 0 0.97254902 0 0 0 0.1 0"/>
        </filter>
        <circle id="vbe3l6xm0c" cx="22.5" cy="22.5" r="22.5"/>
        <circle id="b5v6oejc8e" cx="18" cy="18" r="18"/>
        <linearGradient id="qe3qgy1d0a" x1="78.939%" x2="37.865%" y1="51.511%" y2="49.235%">
            <stop offset="0%" stop-color="#5496FE" stop-opacity="0"/>
            <stop offset="100%" stop-color="#2A5DFC" stop-opacity=".3"/>
        </linearGradient>
    </defs>
    <g fill="none" fill-rule="evenodd">
        <g>
            <g transform="translate(-700 72) translate(700.528 -71.438)">
                <circle cx="2.972" cy="251.938" r="2.5" fill="#2A5DFC" fill-opacity=".3"/>
                <circle cx="527.472" cy="230.438" r="3" fill="#2A5DFC" fill-opacity=".3"/>
                <ellipse cx="454.367" cy="214.216" stroke="url(#qe3qgy1d0a)" rx="467" ry="49.5" transform="rotate(-21 454.367 214.216)"/>
                <g>
                    <g transform="translate(281.472 197.438)">
                        <use fill="#000" filter="url(#chmfvtg6gb)" xlink:href="#vbe3l6xm0c"/>
                        <use fill="#FFF" xlink:href="#vbe3l6xm0c"/>
                    </g>
                    <path fill="#1772F8" d="M29.123 16.796L12 13l9.333 24L34 20.264l-4.877-3.468zm-.162 1.376l2.913 2.072-7.074 2.8 4.16-4.872zm-6.242 5.416l-7.981-8.748 13 2.88-5.019 5.868zm-.637 1.124l-.915 8.428-6.396-16.44 7.311 8.012zm1.249.22l8.023-3.176-8.98 11.832.957-8.656z" transform="translate(281.472 197.438)"/>
                </g>
                <g>
                    <g transform="translate(132.472 207.438)">
                        <use fill="#000" filter="url(#utdr363vxd)" xlink:href="#b5v6oejc8e"/>
                        <use fill="#FFF" xlink:href="#b5v6oejc8e"/>
                    </g>
                    <g fill="#6236FF">
                        <path d="M9 0c.34 0 .812.147 1.305.843.443.691.775 1.448.985 2.243.218.76.388 1.535.51 2.317.286-.11.564-.209.84-.301.071-.443.394-.802.824-.917.43-.115.887.036 1.167.385.595-.123 1.204-.167 1.81-.13.884.069 1.258.411 1.415.686.156.274.265.771-.11 1.587-.37.732-.853 1.4-1.43 1.982-.54.564-1.113 1.096-1.716 1.59.603.496 1.176 1.027 1.716 1.592.578.582 1.061 1.253 1.43 1.988.375.813.266 1.324.11 1.584-.157.26-.53.607-1.414.686-.13.017-.265.017-.408.017-.678-.014-1.352-.107-2.008-.278-.756-.18-1.5-.408-2.226-.685-.123.775-.293 1.542-.51 2.297-.21.791-.543 1.544-.985 2.232-.493.706-.982.853-1.305.853-.323 0-.812-.147-1.288-.867-.327-.494-.588-1.03-.775-1.594-.461-.155-.773-.59-.774-1.08 0-.271.096-.533.271-.737-.081-.36-.153-.738-.217-1.128-.727.275-1.47.504-2.226.685-.656.17-1.33.264-2.008.278-.143 0-.279-.017-.408-.017-.883-.069-1.257-.412-1.414-.686-.156-.274-.265-.771.11-1.587.371-.732.854-1.4 1.43-1.982.534-.564 1.102-1.095 1.699-1.59-.33-.272-.636-.543-.924-.813-.104.032-.211.05-.32.051-.3 0-.589-.12-.801-.336-.213-.214-.331-.506-.33-.81 0-.125.022-.25.064-.37C.76 7.592.48 7.156.253 6.69-.12 5.877-.012 5.366.144 5.105c.157-.26.53-.607 1.414-.686.814-.042 1.63.046 2.416.261.756.187 1.5.422 2.226.703.123-.776.293-1.543.51-2.297.21-.792.543-1.545.985-2.232C8.188.147 8.66 0 9 0zm0 13.92c-.618.315-1.23.607-1.832.864.062.39.13.778.204 1.121.472.037.87.367 1 .826.128.46-.042.951-.425 1.231.149.409.344.799.58 1.163.232.329.412.418.473.418s.241-.09.472-.418c.378-.601.662-1.257.843-1.944.225-.787.397-1.588.517-2.397-.602-.257-1.214-.549-1.832-.864zm-4.774-2.986c-.634.508-1.233 1.058-1.795 1.645-.5.503-.922 1.082-1.247 1.715-.119.188-.174.411-.156.634.027.041.197.15.622.189.704.029 1.41-.051 2.09-.237.788-.196 1.562-.446 2.317-.747-.078-.659-.136-1.344-.173-2.03-.582-.384-1.135-.774-1.658-1.17zm9.555.003c-.52.394-1.077.785-1.658 1.17-.037.695-.095 1.378-.173 2.029.752.3 1.524.549 2.31.744.68.186 1.386.266 2.09.237.428-.038.598-.151.622-.189.02-.038.03-.24-.15-.63-.325-.634-.745-1.212-1.247-1.715-.561-.588-1.16-1.138-1.794-1.646zm-2.725 1.838l-.47.284-.478.268c.289.14.577.274.86.398.034-.309.064-.628.088-.95zm-4.112 0c.024.322.054.641.088.95.283-.124.571-.258.86-.398l-.479-.268zM9 7.807c-.34.192-.707.387-1.077.596-.37.21-.71.426-1.05.642-.027.411-.027.822-.027 1.24 0 .419.027.83.027 1.242.343.216.69.432 1.05.641.36.21.72.405 1.077.597.357-.192.717-.388 1.077-.597.36-.21.707-.425 1.05-.641.027-.412.027-.823.027-1.241 0-.419-.01-.83-.027-1.241-.343-.216-.69-.432-1.05-.642C9.717 8.194 9.357 8 9 7.807zm0 .92c.857 0 1.552.698 1.552 1.559 0 .86-.695 1.558-1.552 1.558-.857 0-1.552-.698-1.552-1.558 0-.861.695-1.559 1.552-1.559zm3.18 1.007h-.016c.003.185.017.367.017.552v.552c.265-.182.523-.367.771-.552-.248-.185-.506-.37-.771-.552zm-6.327 0c-.265.181-.523.367-.771.552.248.185.506.37.771.552l-.017-.013.008-.263.01-.276zm10.497-4.28c-.503-.03-1.008.007-1.502.11-.102.4-.41.713-.805.818-.395.106-.816-.011-1.101-.307-.323.096-.653.227-.992.364.078.658.136 1.344.173 2.03.581.384 1.138.774 1.658 1.169.634-.508 1.233-1.058 1.794-1.646.502-.503.922-1.081 1.248-1.714.18-.395.17-.597.15-.638-.183-.127-.401-.192-.623-.185zM1.995 5.437l-.352.005c-.425.038-.595.148-.622.189-.02.222.033.445.15.634.177.366.395.712.649 1.029.11-.037.224-.056.34-.055.625 0 1.133.51 1.135 1.141-.001.133-.025.264-.072.388.31.288.639.576.989.854.526-.396 1.078-.786 1.658-1.17.038-.696.095-1.378.174-2.03-.753-.3-1.525-.548-2.311-.743-.68-.186-1.385-.266-2.09-.237zm5.054 1.41c-.034.31-.064.628-.088.95l.47-.284.478-.267c-.289-.141-.577-.275-.86-.398zm3.936 0c-.283.124-.571.258-.86.399h-.017c.16.089.32.174.496.267l.469.285c-.024-.323-.054-.642-.088-.95zM9 1.03c-.061 0-.241.089-.472.418-.377.601-.661 1.257-.843 1.944-.225.787-.397 1.59-.517 2.4.602.257 1.214.548 1.832.864.618-.316 1.23-.607 1.832-.864-.12-.81-.292-1.613-.517-2.4-.18-.688-.465-1.344-.843-1.944-.23-.33-.41-.418-.472-.418z" transform="translate(132.472 207.438) translate(9 7.714)"/>
                    </g>
                </g>
                <circle cx="130.972" cy="181.938" r="2.5" fill="#BFCEFF"/>
                <circle cx="515.972" cy="375.938" r="2.5" fill="#2A5DFC" fill-opacity=".3"/>
                <circle cx="156.472" cy="288.438" r="4" fill="#B9CAFF"/>
            </g>
        </g>
    </g>
</svg>
