<?xml version="1.0" encoding="utf-8"?>
<!-- Generator: Adobe Illustrator 23.0.6, SVG Export Plug-In . SVG Version: 6.00 Build 0)  -->
<svg version="1.1" id="레이어_1" xmlns="http://www.w3.org/2000/svg" xmlns:xlink="http://www.w3.org/1999/xlink" x="0px"
	 y="0px" viewBox="0 0 114 110" style="enable-background:new 0 0 114 110;" xml:space="preserve">
<style type="text/css">
	.st0{fill:#999999;}
	.st1{fill-rule:evenodd;clip-rule:evenodd;fill:#999999;}
</style>
<g id="Layer_x0020_1">
	<path class="st0" d="M20,90.8l-1.3,1.1c2.4,2.7,5.2,5.1,8.2,7.3h3C26.2,96.8,22.9,94,20,90.8L20,90.8z M94.3,90.9
		c-2.9,3.1-6.2,5.9-9.7,8.2h3c3-2.1,5.6-4.5,8.1-7.1L94.3,90.9L94.3,90.9z"/>
	<path class="st0" d="M16.8,93.3l-1.4,1.1c1.5,1.7,3.2,3.2,4.9,4.8H23C20.8,97.3,18.7,95.4,16.8,93.3z M97.5,93.4
		c-1.9,2-3.9,4-6,5.7h2.7c1.7-1.4,3.2-3,4.8-4.6L97.5,93.4z"/>
	<polygon class="st0" points="21.6,50 92.8,50 92.8,38.6 21.6,38.6 	"/>
	<polygon class="st0" points="21.6,55.6 92.8,55.6 92.8,53.7 21.6,53.7 	"/>
	<polygon class="st0" points="21.6,61.3 92.8,61.3 92.8,57.5 21.6,57.5 	"/>
	<polygon class="st0" points="36.7,67 36.7,76.5 38.5,76.5 38.5,69.6 46,76.5 47.5,76.5 47.5,67 45.7,67 45.7,73.8 38.2,67 	"/>
	<polygon class="st0" points="92.8,76.5 92.8,74.7 85.9,74.7 85.9,67 84,67 84,76.5 	"/>
	<polygon class="st0" points="55.3,76.5 56.7,76.5 61.9,67 59.8,67 56,74.1 52.2,67 50.1,67 	"/>
	<path class="st0" d="M74,67c-1.7,0-3,0.2-3.9,1c-0.6,0.6-1,1.5-1,2.7v2c0,1.2,0.4,2.1,1,2.7c0.9,0.8,2.2,1,3.9,1h6.1V71h-5.8v1.7
		h3.9v2.1h-4.8c-0.9,0-1.6-0.1-2.1-0.6c-0.4-0.4-0.5-0.9-0.5-1.6v-1.7c0-0.7,0.1-1.2,0.5-1.6c0.4-0.4,1.2-0.6,2.1-0.6h6.6v-1.7H74
		V67z"/>
	<path class="st1" d="M32.7,70.7c0-1.2-0.4-2.1-1-2.7c-0.9-0.8-2.2-1-3.9-1h-6.2v9.4h6.2c1.7,0,3-0.2,3.9-1c0.6-0.6,1-1.5,1-2.7
		V70.7L32.7,70.7z M23.4,68.7h4.9c0.9,0,1.6,0.1,2.1,0.6c0.4,0.4,0.5,0.9,0.5,1.6v1.7c0,0.7-0.1,1.2-0.5,1.6
		c-0.4,0.4-1.2,0.6-2.1,0.6h-4.9v-6.1V68.7z"/>
	<polygon class="st0" points="63.4,72.8 65.5,72.8 65.5,70.6 63.4,70.6 	"/>
	<polygon class="st0" points="12.5,92.1 11.9,91.4 17.6,87 18.2,87.7 	"/>
	<polygon class="st0" points="10.6,89.7 10.1,88.9 12.9,82.6 12.9,82.6 8,85.7 7.6,84.9 13.6,81.1 14.1,81.9 11.3,88.2 11.3,88.2 
		16.1,85.1 16.6,85.9 	"/>
	<polygon class="st0" points="6.5,83 4.5,78.8 5.2,78.4 6.9,81.8 8.9,80.8 7.5,77.8 8.2,77.5 9.6,80.5 12.5,79 13,79.9 	"/>
	<path class="st0" d="M9.1,72.3c-0.5-1.7-2.2-1.9-3.5-1.4s-2.6,1.6-2,3.2c0.5,1.7,2.2,1.9,3.5,1.4S9.7,73.9,9.1,72.3z M2.8,74.4
		C2,72.2,3.4,70.5,5.3,70s3.9-0.1,4.6,2.1c0.7,2.2-0.6,3.8-2.5,4.4C5.5,77,3.5,76.5,2.8,74.4z"/>
	<path class="st0" d="M4.2,65.7c-0.1-0.9-0.5-1.6-1.5-1.4c-0.7,0.1-1.2,0.6-1,1.4l0.4,2.3l2.4-0.4L4.2,65.7z M1.5,69.2l-0.6-3.3
		c-0.2-1.3,0.4-2.2,1.4-2.4c0.9-0.1,1.6,0.1,2,0.9l0,0c0-0.9,0.6-1.2,1.3-1.3c0.6-0.2,1.4-0.3,1.9-0.8l0.2,1c-0.2,0.3-1,0.3-1.7,0.6
		c-0.6,0.2-1.2,0.5-1.1,1.4l0.4,2.3l3-0.5L8.6,68L1.5,69.2L1.5,69.2z"/>
	<polygon class="st0" points="0.2,61.6 0.2,60.3 6.1,57.9 0,55.8 0,54.5 7.1,54.3 7.1,55.2 1.2,55.4 1.2,55.4 7.2,57.4 7.3,58.2 
		1.4,60.6 1.4,60.7 7.3,60.5 7.4,61.4 	"/>
	<path class="st0" d="M4.5,51.4L4.8,49l-3.5,0.8l0,0L4.5,51.4z M0.4,50.2l0.1-1l7.4-1.9l-0.1,1l-2.2,0.5l-0.4,3l2,1.1l-0.1,1
		L0.4,50.2L0.4,50.2z"/>
	<polygon class="st0" points="2.2,44.6 1.6,47 0.8,46.8 2.1,41.3 2.9,41.4 2.3,43.7 8.5,45.1 8.4,46.1 	"/>
	<polygon class="st0" points="2.5,40 2.8,39.2 9.6,41.3 9.3,42.2 	"/>
	<path class="st0" d="M10.6,36.9c0.6-1.6-0.4-2.9-1.7-3.4c-1.3-0.6-3-0.5-3.7,1.2c-0.6,1.6,0.4,2.9,1.7,3.5S10,38.6,10.6,36.9
		L10.6,36.9z M4.4,34.3c0.9-2.1,3-2.4,4.8-1.7c1.8,0.7,3,2.5,2.1,4.6c-0.9,2.1-3,2.4-4.8,1.7C4.7,38.2,3.5,36.4,4.4,34.3z"/>
	<polygon class="st0" points="6.9,29.4 7.4,28.6 14.3,28.4 14.3,28.4 9.3,25.3 9.7,24.6 15.9,28.3 15.4,29.2 8.5,29.4 8.5,29.4 
		13.4,32.4 12.9,33.2 	"/>
	<path class="st0" d="M17.3,18.6c-0.9-0.6-1.6-0.4-2.3,0.4c-0.5,0.6-0.9,1.4-0.1,2c0.6,0.6,1.5-0.1,2.4-0.9c0.9-0.6,2-1.3,3-0.4
		c1.2,1,0.6,2.5-0.3,3.5c-1.1,1.2-2.5,1.7-3.8,0.5l0.6-0.6c0.9,0.8,1.9,0.4,2.7-0.4c0.6-0.6,1-1.5,0.2-2.2c-0.7-0.6-1.6,0.1-2.6,0.8
		c-0.9,0.7-1.9,1.3-3,0.4c-1.1-0.9-0.7-2.4,0.1-3.3c1-1.1,2.2-1.4,3.5-0.4l-0.6,0.6H17.3z"/>
	<polygon class="st0" points="17.8,15.1 21.5,11.9 22,12.5 19,15.1 20.5,16.8 23.3,14.3 23.8,15 21.1,17.4 22.7,19.3 25.7,16.6 
		26.2,17.2 22.6,20.5 	"/>
	<path class="st0" d="M28.4,9.7C27.7,9,26.7,9,25.9,9.6c-1.4,0.9-1.2,2.5-0.4,3.7c0.9,1.4,2.2,2.1,3.7,1.2c1-0.7,1.2-1.8,0.6-2.9
		l0.8-0.5c0.9,1.6,0.5,3.1-0.9,4.1c-1.9,1.2-3.7,0.5-4.8-1.2s-1.2-3.7,0.7-5c1.2-0.9,2.7-0.9,3.7,0.3L28.4,9.7L28.4,9.7z"/>
	<path class="st0" d="M36.8,8c0.8,1.6,0.3,3-1.3,3.7c-1.7,0.8-3,0.5-3.8-1.2l-2-4.1l0.9-0.4l2,4.1c0.6,1.2,1.5,1.4,2.7,0.9
		c1.1-0.5,1.4-1.4,0.8-2.6l-2-4.1l0.9-0.4l2,4.1L36.8,8z"/>
	<path class="st0" d="M40.7,5.3c0.9-0.3,1.5-0.7,1.2-1.7c-0.2-0.6-0.7-1-1.6-0.8L38,3.5l0.8,2.4L40.7,5.3L40.7,5.3z M36.9,3.1L40,2
		c1.3-0.4,2.3,0,2.7,1.1c0.3,0.8,0.1,1.6-0.6,2.1l0,0c0.9-0.1,1.2,0.4,1.4,1.1c0.3,0.6,0.5,1.4,1,1.7l-1,0.4
		c-0.4-0.2-0.4-0.9-0.8-1.6c-0.3-0.6-0.6-1.2-1.5-0.9L39,6.6l0.9,2.9L39,9.8L36.7,3L36.9,3.1z"/>
	<polygon class="st0" points="44,0.9 44.9,0.7 46.5,7.7 45.6,7.9 	"/>
	<polygon class="st0" points="48.6,0.9 46.2,1.2 46.2,0.4 51.8,-0.4 51.9,0.4 49.5,0.7 50.5,7 49.5,7.1 	"/>
	<polygon class="st0" points="56.2,3.7 56.3,6.6 55.4,6.6 55.3,3.7 52.4,-0.4 53.6,-0.5 55.8,2.9 57.8,-0.6 58.8,-0.6 	"/>
	<polygon class="st0" points="63.6,-0.4 64.8,-0.1 66,6.2 69.3,0.6 70.6,0.9 69.3,7.9 68.5,7.8 69.5,1.9 69.5,1.9 66.3,7.3 
		65.5,7.3 64.2,1 64.2,1 63.2,6.8 62.4,6.7 	"/>
	<path class="st0" d="M72.7,5.9L75,6.7L75,3.2l0,0L72.7,5.9L72.7,5.9z M74.7,2.2l1,0.4l0.4,7.6l-1-0.4l-0.1-2.3l-2.9-0.9l-1.4,1.8
		l-0.9-0.3L74.7,2.2z"/>
	<polygon class="st0" points="79.6,3.9 80.5,4.4 81.4,11.2 81.4,11.2 84,6 84.8,6.4 81.6,12.8 80.6,12.4 79.9,5.6 79.8,5.5 
		77.3,10.7 76.5,10.4 	"/>
	<path class="st0" d="M85.4,11.7l2,1.4l0.9-3.5l0,0L85.4,11.7z M88.3,8.6l0.9,0.6l-1.7,7.5l-0.9-0.6l0.5-2.2l-2.5-1.7l-1.9,1.4
		L81.9,13L88.3,8.6L88.3,8.6z"/>
	<path class="st0" d="M92.5,19.9c-0.9,0.2-1.8-0.1-2.4-0.7c-1.6-1.4-1.4-3.5-0.1-5c1.4-1.6,3.4-2.2,5.1-0.6c1.2,1,1.7,2.4,0.7,3.8
		L95,16.7c0.6-0.9,0.2-1.9-0.6-2.6c-1.3-1.2-2.8-0.5-3.8,0.6c-1,1.2-1.2,2.7-0.1,3.7c1.1,0.9,2.4,0.8,3.2-0.2l-1.7-1.5l0.5-0.6
		l2.4,2.1l-2.4,2.8l-0.4-0.4L92.5,19.9z"/>
	<polygon class="st0" points="98.7,17.2 102,20.9 101.4,21.5 98.7,18.5 97.1,19.9 99.4,22.7 98.9,23.3 96.4,20.5 94.5,22.1 
		97.2,25.1 96.6,25.6 93.3,22 	"/>
	<polygon class="st0" points="103.2,22.5 103.9,23.6 100.1,28.7 106.3,27.4 107.1,28.4 101.1,32.3 100.6,31.6 105.6,28.4 
		105.6,28.4 99.4,29.7 98.9,29 102.7,23.9 102.7,23.9 97.7,27.1 97.2,26.3 	"/>
	<polygon class="st0" points="108.1,30.5 110.2,35 109.4,35.3 107.8,31.7 105.8,32.7 107.3,36.1 106.6,36.4 105.1,33 102.7,34.1 
		104.5,37.7 103.8,38 101.7,33.5 	"/>
	<polygon class="st0" points="110.9,36.8 111.2,37.7 106.8,43 106.8,43 112.3,41.3 112.6,42.2 105.8,44.3 105.5,43.3 109.8,38.1 
		109.8,38 104.3,39.7 104,38.9 	"/>
	<polygon class="st0" points="112.5,46.1 112.2,43.8 112.9,43.6 114,49.2 113.2,49.4 112.8,47 106.5,48.2 106.3,47.2 	"/>
	<path class="st0" d="M112.3,57.9c1-0.1,1.4-0.8,1.4-1.8c0-0.8-0.3-1.6-1.2-1.6c-0.9,0-1,1.2-1.2,2.3c-0.3,1.2-0.6,2.3-2,2.3
		c-1.5,0-2.2-1.5-2.2-2.8c0-1.6,0.8-3,2.5-3v0.9c-1.2,0-1.7,1-1.7,2.1c0,0.9,0.3,1.8,1.3,1.8c1,0,1.2-1.2,1.4-2.3
		c0.2-1.2,0.6-2.3,1.9-2.3c1.4,0,2.1,1.3,2.1,2.6v0.1c0,1.4-0.7,2.5-2.2,2.6V57.9z"/>
	<polygon class="st0" points="109.7,63.3 106.8,62.9 106.9,62 109.8,62.3 114.3,60.1 114.2,61.2 110.5,62.9 113.7,65.4 113.5,66.4 	
		"/>
	<path class="st0" d="M110.2,71.4c1,0.1,1.6-0.4,1.9-1.4c0.2-0.8,0.1-1.7-0.8-1.9c-0.9-0.2-1.2,0.9-1.8,1.9
		c-0.5,1.1-1.2,2.1-2.5,1.7c-1.4-0.4-1.7-1.9-1.4-3.2c0.4-1.6,1.4-2.7,3.2-2.2l-0.2,0.9c-1.2-0.3-1.9,0.6-2.2,1.6
		c-0.2,0.9-0.1,1.8,0.9,2.1c0.9,0.2,1.4-0.9,1.9-1.9c0.5-1.1,1.1-2.1,2.4-1.8c1.4,0.4,1.7,1.7,1.4,3c-0.4,1.4-1.3,2.3-2.8,2l0.2-0.9
		H110.2z"/>
	<polygon class="st0" points="110.1,76 110.9,73.8 111.7,74.1 109.7,79.4 108.9,79.1 109.7,76.9 103.8,74.7 104.1,73.8 	"/>
	<polygon class="st0" points="109,80.7 106.8,85 106.1,84.7 107.9,81.1 105.9,80.1 104.2,83.4 103.5,83.1 105.2,79.8 103,78.6 
		101.2,82.2 100.4,81.8 102.7,77.4 	"/>
	<polygon class="st0" points="105.8,86.8 105.1,87.8 98.9,86.2 102.4,91.5 101.7,92.6 95.8,88.4 96.4,87.7 101.2,91.1 101.2,91.1 
		97.7,85.9 98.1,85.2 104.3,86.8 104.3,86.8 99.4,83.4 100,82.6 	"/>
	<polygon class="st0" points="24.8,109.8 25.7,109.8 25.7,102.7 24.8,102.7 	"/>
	<path class="st0" d="M31.5,104.7c-0.1-1-0.8-1.4-1.8-1.4c-0.8,0-1.6,0.3-1.6,1.2c0,0.9,1.2,1,2.3,1.3c1.2,0.3,2.3,0.6,2.3,2.1
		c0,1.5-1.5,2.2-2.8,2.2c-1.6,0-3-0.8-3-2.5h0.9c0,1.2,1,1.7,2.1,1.7c0.9,0,1.8-0.3,1.8-1.3c0-1-1.2-1.2-2.3-1.4
		c-1.2-0.2-2.3-0.6-2.3-1.9c0-1.4,1.3-2.1,2.6-2.1c1.4,0,2.6,0.7,2.7,2.2h-0.9V104.7z"/>
	<path class="st0" d="M36.8,109.2c1.7,0,2.4-1.5,2.4-3c0-1.4-0.7-3-2.4-3c-1.7,0-2.4,1.5-2.4,3C34.4,107.7,35.1,109.2,36.8,109.2z
		 M36.8,102.5c2.3,0,3.4,1.8,3.4,3.7c0,1.9-1.2,3.7-3.4,3.7c-2.3,0-3.4-1.8-3.4-3.7C33.4,104.3,34.6,102.5,36.8,102.5z"/>
	<polygon class="st0" points="43.4,102.5 44.1,102.5 41.2,110 40.5,110 	"/>
	<polygon class="st0" points="44.8,109.8 45.7,109.8 45.7,102.7 44.8,102.7 	"/>
	<polygon class="st0" points="47.3,102.7 52.3,102.7 52.3,103.4 48.3,103.4 48.3,105.8 52,105.8 52,106.5 48.3,106.5 48.3,109 
		52.3,109 52.3,109.8 47.3,109.8 	"/>
	<path class="st0" d="M58.5,104.8c-0.2-1-1-1.5-2-1.5c-1.7,0-2.4,1.4-2.4,2.9c0,1.7,0.7,3,2.4,3c1.2,0,1.9-0.9,2.1-2.1h0.9
		c-0.1,1.8-1.3,2.9-3.1,2.9c-2.2,0-3.3-1.7-3.3-3.7s1.2-3.7,3.4-3.7c1.5,0,2.7,0.8,3,2.3H58.5z"/>
	<path class="st0" d="M63.1,105.2c-0.1-1.4,0.8-2.5,2.3-2.5c1.2,0,2.2,0.7,2.2,2c0,1.2-0.9,1.9-1.7,2.4c-0.9,0.5-1.8,1-2,1.9h3.7
		v0.7h-4.6c0.1-1.7,1-2.3,2-2.9c1.2-0.7,1.8-1.2,1.8-2.2c0-0.8-0.6-1.3-1.4-1.3c-1,0-1.4,0.9-1.4,1.7L63.1,105.2L63.1,105.2z"/>
	<path class="st0" d="M73.3,103.6c-1.4,1.4-2.6,4-2.7,6.3h-0.9c0.1-2.4,1.3-4.6,2.8-6.2h-3.7v-0.8h4.6V103.6z"/>
	<path class="st0" d="M76.5,109.2c1.4,0,1.4-1.8,1.4-2.9c0-1.1,0-2.9-1.4-2.9c-1.4,0-1.4,1.8-1.4,2.9
		C75.1,107.4,75.1,109.2,76.5,109.2z M76.5,102.7c2.2,0,2.4,2,2.4,3.6s-0.1,3.6-2.4,3.6c-2.2,0-2.4-2-2.4-3.6S74.3,102.7,76.5,102.7
		z"/>
	<path class="st0" d="M82.1,109.2c1.4,0,1.4-1.8,1.4-2.9c0-1.1,0-2.9-1.4-2.9c-1.4,0-1.4,1.8-1.4,2.9
		C80.6,107.4,80.6,109.2,82.1,109.2z M82.1,102.7c2.2,0,2.4,2,2.4,3.6s-0.1,3.6-2.4,3.6c-2.2,0-2.4-2-2.4-3.6S79.9,102.7,82.1,102.7
		z"/>
	<path class="st0" d="M88.4,109.8h-0.9v-5.1h-1.9V104c0.9,0,1.9-0.3,2-1.3h0.6L88.4,109.8L88.4,109.8z"/>
</g>
</svg>
