<svg xmlns="http://www.w3.org/2000/svg" height="20" width="20"><path d="M10 18.167q-1.688 0-3.177-.636-1.49-.635-2.604-1.75-1.115-1.114-1.75-2.604-.636-1.489-.636-3.177t.636-3.177q.635-1.49 1.75-2.604 1.114-1.115 2.604-1.75Q8.312 1.833 10 1.833t3.177.636q1.49.635 2.604 1.75 1.115 1.114 1.75 2.604.636 1.489.636 3.177t-.636 3.177q-.635 1.49-1.75 2.604-1.114 1.115-2.604 1.75-1.489.636-3.177.636Zm0-1.792q.333-.333.688-1.302.354-.969.541-2.094H8.771q.187 1.125.531 2.094.344.969.698 1.302Zm-1.875-.208q-.313-.605-.521-1.417-.208-.812-.354-1.771H4.312q.584 1.167 1.573 2.011.99.843 2.24 1.177Zm3.75 0q1.229-.334 2.229-1.177 1-.844 1.584-2.011H12.75q-.146.959-.365 1.771-.218.812-.51 1.417Zm1.146-4.688h3.312q.105-.396.146-.75.042-.354.042-.729t-.042-.74q-.041-.364-.146-.739h-3.312q.041.375.052.76.01.386.01.761t-.01.739q-.011.365-.052.698Zm-4.438 0h2.834q.041-.417.041-.771V9.281q0-.364-.041-.76H8.583q-.041.396-.052.76-.01.365-.01.719t.01.719q.011.364.052.76Zm-4.916 0h3.312q-.041-.375-.052-.76-.01-.386-.01-.761t.01-.739q.011-.365.052-.698H3.667q-.125.396-.167.75-.042.354-.042.729t.042.729q.042.354.167.75Zm9.083-4.458h2.938q-.584-1.167-1.584-2.011-1-.843-2.229-1.177.292.605.51 1.417.219.812.365 1.771Zm-3.979 0h2.458q-.187-1.125-.541-2.094-.355-.969-.688-1.302-.354.333-.698 1.302-.344.969-.531 2.094Zm-4.459 0H7.25q.146-.959.354-1.771.208-.812.521-1.417-1.25.334-2.24 1.177-.989.844-1.573 2.011Z"/></svg>