<?xml version="1.0" encoding="utf-8"?>
<!-- Generator: Adobe Illustrator 27.1.1, SVG Export Plug-In . SVG Version: 6.00 Build 0)  -->
<svg version="1.1" id="레이어_1" xmlns="http://www.w3.org/2000/svg" xmlns:xlink="http://www.w3.org/1999/xlink" x="0px"
	 y="0px" viewBox="0 0 40 40" style="enable-background:new 0 0 40 40;" xml:space="preserve">
<style type="text/css">
	.st0{fill:#B6BAC2;}
</style>
<g>
	<path class="st0" d="M14.11,9.8v2.02c0,0,0.96-0.04,0.96,1.74v5.17h2.02v-5.65C17.09,13.08,17.17,9.8,14.11,9.8z"/>
	<path class="st0" d="M32,0H8C3.58,0,0,3.58,0,8v24c0,4.42,3.58,8,8,8h24c4.42,0,8-3.58,8-8V8C40,3.58,36.42,0,32,0z M37.13,21.37
		c0,3-2.42,5.43-5.41,5.43h-8.07l-2.75,4.48c0,0-0.02,0.05-0.09,0.13c-0.16,0.27-0.46,0.46-0.8,0.46c-0.34,0-0.64-0.19-0.8-0.46
		c-0.06-0.07-0.09-0.13-0.09-0.13l-2.75-4.49H8.28c-2.99,0-5.41-2.43-5.41-5.43V8.49c0-3,2.42-5.43,5.41-5.43h23.43
		c2.99,0,5.41,2.43,5.41,5.43V21.37z"/>
	<path class="st0" d="M10.48,12.5c0,0-0.93,0-1.78,0.83V10H6.6v8.74h2.12v-0.68c0,0,0.5,0.9,1.76,0.9c0,0,2.96-0.11,2.96-3.26
		C13.44,15.69,13.33,12.5,10.48,12.5z M10.02,17.11c-0.74,0-1.35-0.6-1.35-1.35c0-0.74,0.6-1.35,1.35-1.35
		c0.74,0,1.35,0.6,1.35,1.35C11.37,16.5,10.76,17.11,10.02,17.11z"/>
	<path class="st0" d="M22.03,12.52c0,0-3.46,0-3.46,3.24c0,0-0.11,3.19,3.46,3.19c0,0,3.54-0.01,3.54-3.19
		C25.57,15.76,25.69,12.52,22.03,12.52z M22.03,17.11c-0.74,0-1.35-0.6-1.35-1.35c0-0.74,0.6-1.35,1.35-1.35
		c0.74,0,1.35,0.6,1.35,1.35C23.38,16.5,22.77,17.11,22.03,17.11z"/>
	<path class="st0" d="M31.36,13.32c0,0-0.6-0.8-1.76-0.8c0,0-2.97-0.13-2.97,3.21c0,0-0.03,3.11,2.89,3.11c0,0,1.19,0.05,1.84-0.8
		v0.49c0,0,0.15,1.53-1.34,1.53h-0.5v1.86h0.81c0,0,3.06,0.03,3.06-3.28v-5.92h-2.04V13.32z M30.11,17.11
		c-0.74,0-1.35-0.6-1.35-1.35c0-0.74,0.6-1.35,1.35-1.35c0.74,0,1.35,0.6,1.35,1.35C31.45,16.5,30.85,17.11,30.11,17.11z"/>
</g>
</svg>
