<?xml version="1.0" encoding="utf-8"?>
<!-- Generator: Adobe Illustrator 27.1.1, SVG Export Plug-In . SVG Version: 6.00 Build 0)  -->
<svg version="1.1" id="레이어_1" xmlns="http://www.w3.org/2000/svg" xmlns:xlink="http://www.w3.org/1999/xlink" x="0px"
	 y="0px" viewBox="0 0 40 40" style="enable-background:new 0 0 40 40;" xml:space="preserve">
<style type="text/css">
	.st0{fill-rule:evenodd;clip-rule:evenodd;fill:#B6BAC2;}
</style>
<path class="st0" d="M37.94,0H2.06C0.92,0,0,0.92,0,2.06v35.87C0,39.08,0.92,40,2.06,40h19.88V25.24h-5.56v-6.16h5.56V14.5
	c0-4.58,2.7-8.41,7.59-8.11l5.11,0.23v5.11h-2.85c-1.58,0-3.23,0.98-3.23,2.7v4.66h5.86l-0.98,6.16h-4.88V40h9.38
	c1.14,0,2.06-0.92,2.06-2.06V2.06C40,0.92,39.08,0,37.94,0z"/>
</svg>
