<?xml version="1.0" encoding="utf-8"?>
<!-- Generator: Adobe Illustrator 27.1.1, SVG Export Plug-In . SVG Version: 6.00 Build 0)  -->
<svg version="1.1" id="레이어_1" xmlns="http://www.w3.org/2000/svg" xmlns:xlink="http://www.w3.org/1999/xlink" x="0px"
	 y="0px" viewBox="0 0 40 40" style="enable-background:new 0 0 40 40;" xml:space="preserve">
<style type="text/css">
	.st0{fill-rule:evenodd;clip-rule:evenodd;fill:#B6BAC2;}
</style>
<g id="XMLID_8_">
	<path id="XMLID_3_" class="st0" d="M10.79,0h18.42C35.13,0,40,4.88,40,10.81v18.37C40,35.12,35.13,40,29.21,40H10.79
		C4.87,40,0,35.12,0,29.19V10.81C0,4.88,4.87,0,10.79,0L10.79,0z M30.74,6.99L30.74,6.99c1.24,0,2.29,1.05,2.29,2.3l0,0
		c0,1.24-1.05,2.3-2.29,2.3l0,0c-1.34,0-2.29-1.05-2.29-2.3l0,0C28.45,8.04,29.4,6.99,30.74,6.99L30.74,6.99z M19.95,9.09h0.1
		c5.92,0,10.88,4.98,10.88,10.91l0,0c0,6.03-4.96,10.91-10.88,10.91h-0.1c-5.92,0-10.79-4.88-10.79-10.91l0,0
		C9.16,14.07,14.03,9.09,19.95,9.09L19.95,9.09z M19.95,12.82h0.1c3.91,0,7.16,3.25,7.16,7.18l0,0c0,4.02-3.25,7.27-7.16,7.27h-0.1
		c-3.91,0-7.16-3.25-7.16-7.27l0,0C12.79,16.08,16.04,12.82,19.95,12.82L19.95,12.82z M10.88,3.44h18.23c4.11,0,7.45,3.35,7.45,7.46
		v18.18c0,4.11-3.34,7.46-7.45,7.46H10.88c-4.1,0-7.45-3.35-7.45-7.46V10.91C3.44,6.79,6.78,3.44,10.88,3.44L10.88,3.44z"/>
</g>
</svg>
