<?xml version="1.0" encoding="utf-8"?>
<!-- Generator: Adobe Illustrator 27.1.1, SVG Export Plug-In . SVG Version: 6.00 Build 0)  -->
<svg version="1.1" id="레이어_1" xmlns="http://www.w3.org/2000/svg" xmlns:xlink="http://www.w3.org/1999/xlink" x="0px"
	 y="0px" viewBox="0 0 40 40" style="enable-background:new 0 0 40 40;" xml:space="preserve">
<style type="text/css">
	.st0{fill-rule:evenodd;clip-rule:evenodd;fill:#B6BAC2;}
</style>
<g id="XMLID_10_">
	<path id="XMLID_36_" class="st0" d="M19.73,13.75c-1.59-8.38,8.49-13.37,14.43-7.32c0,0,2.65-0.74,4.99-2.23
		c0,0-0.85,2.86-3.71,4.67c0,0,3.18-0.42,4.56-1.27c0,0-1.38,2.86-3.93,3.93C37.45,30.72,16.76,42.39,0,32.85
		c0,0,8.28,0.42,11.78-3.61c0,0-5.09,0.42-7.64-5.73c0,0,1.91,0.74,3.82-0.21c0,0-5.94-0.95-6.47-8.06c0,0,1.91,1.49,4.03,0.95
		c0,0-6.58-3.93-2.86-11.03C2.65,5.15,9.66,14.07,19.73,13.75L19.73,13.75z"/>
</g>
</svg>
