<?xml version="1.0" encoding="utf-8"?>
<!-- Generator: Adobe Illustrator 27.1.1, SVG Export Plug-In . SVG Version: 6.00 Build 0)  -->
<svg version="1.1" id="레이어_1" xmlns="http://www.w3.org/2000/svg" xmlns:xlink="http://www.w3.org/1999/xlink" x="0px"
	 y="0px" viewBox="0 0 40 40" style="enable-background:new 0 0 40 40;" xml:space="preserve">
<style type="text/css">
	.st0{fill-rule:evenodd;clip-rule:evenodd;fill:#B6BAC2;}
</style>
<path class="st0" d="M39.53,12.17c-0.62-4.59-2.96-5.37-7.55-5.76C28.02,6.1,23.5,5.95,20,5.95c-3.5,0-8.09,0.16-11.98,0.47
	c-4.59,0.39-7,1.17-7.63,5.76C0.16,14.27,0,17.15,0,20.11c0,2.96,0.16,5.91,0.39,7.94c0.62,4.67,3.04,5.37,7.63,5.76
	c3.89,0.39,8.48,0.47,11.98,0.47c3.5,0,8.02-0.08,11.98-0.47c4.59-0.39,6.93-1.09,7.55-5.76c0.31-2.02,0.47-4.98,0.47-7.94
	C40,17.15,39.84,14.27,39.53,12.17z M15.95,26.18V14.12l10.43,5.99L15.95,26.18z"/>
</svg>
