<svg xmlns="http://www.w3.org/2000/svg" fill="none" viewBox="0 0 200 200" stroke-width=".75" height="400" width="400"><g id="Marketing-Clickbait-01"><g id="color 2"><path id="Vector" fill="#cbddff" d="M87.027 138.587L81.27 161.939C76.0588 162.108 70.9105 160.761 66.449 158.063L70.287 142.729L87.027 138.587Z"></path><path id="Vector_2" fill="#cbddff" d="M146.063 101.4L136.828 111.869L124.744 102.161L132.477 90.304C131.451 89.639 130.425 88.936 129.361 88.214L114.275 111.072H85.735C83.5815 111.072 81.4899 111.792 79.7926 113.117C78.0953 114.443 76.8899 116.298 76.368 118.387L75.95 120.04C75.817 120.097 36.428 135.868 36.428 135.868C36.3314 141.032 38.2067 146.038 41.672 149.868L77.736 137.803C85.166 138.491 108.723 140.386 116.441 139.418C124.141 138.458 129.568 131.051 131.28 124.597L148.78 104.057L146.063 101.4Z"></path><path id="Vector_3" fill="#cbddff" d="M68.672 89.565L75.551 95.702L66.487 105.848L71.37 110.2L80.434 100.053L87.293 106.19L92.385 81.736L68.672 89.565Z"></path></g><g id="color 1"><path id="Vector_4" fill="#01348f" d="M65.632 89.736C65.417 91.6942 65.4297 93.6707 65.67 95.626L70.439 94.695C68.4819 93.4272 66.8382 91.7316 65.632 89.736V89.736Z"></path><path id="Vector_5" fill="#01348f" d="M38.043 56.009C38.0412 56.4319 37.9141 56.8448 37.6776 57.1954C37.4412 57.546 37.106 57.8186 36.7146 57.9787C36.3232 58.1389 35.8931 58.1794 35.4787 58.095C35.0643 58.0107 34.6842 57.8054 34.3865 57.505C34.0888 57.2047 33.8869 56.8228 33.8063 56.4076C33.7256 55.9925 33.7699 55.5628 33.9335 55.1728C34.0971 54.7828 34.3727 54.4502 34.7254 54.2168C35.0781 53.9835 35.4921 53.86 35.915 53.862C36.4816 53.8654 37.0238 54.0933 37.4226 54.4958C37.8215 54.8982 38.0446 55.4424 38.043 56.009V56.009Z"></path><path id="Vector_6" fill="#01348f" d="M145.455 120.213C143.612 118.636 141.655 116.907 139.508 114.969L140.933 113.297L145.455 120.213Z"></path><path id="Vector_7" fill="#01348f" d="M141.75 91.693L138.767 91.826C139.271 91.5228 139.726 91.1448 140.116 90.705C140.615 91.1041 141.165 91.4362 141.75 91.693V91.693Z"></path><path id="Vector_8" fill="#01348f" d="M77.717 137.827L70.933 140.107L70.287 142.729L87.027 138.587C81.631 138.169 77.736 137.808 77.717 137.827Z"></path><path id="Vector_9" fill="#01348f" d="M173.652 138.7C171.885 139.555 170.652 138.928 170.764 136.857L173.652 138.7Z"></path><path id="Vector_10" fill="#01348f" d="M179.656 128.687C178.668 128.715 177.701 128.4 176.92 127.794C178.212 127.186 179.352 127.357 179.656 128.687Z"></path><path id="Vector_11" fill="#01348f" d="M146.937 82.382C150.49 82.082 149.255 86.734 147.545 88.444C147.222 88.862 147.355 89.144 148.381 89.223C150.528 89.394 149.54 92.472 146.12 91.446C145.792 91.4666 145.476 91.5785 145.208 91.769C149.808 93.954 151.06 101.858 154.727 93.969C158.375 86.106 150.908 81.945 146.937 82.382Z"></path><path id="Vector_12" fill="#01348f" d="M172.284 125.8C172.284 126.022 172.196 126.234 172.039 126.391C171.882 126.548 171.67 126.636 171.448 126.636C171.226 126.636 171.014 126.548 170.857 126.391C170.7 126.234 170.612 126.022 170.612 125.8C170.612 125.578 170.7 125.366 170.857 125.209C171.014 125.052 171.226 124.964 171.448 124.964C171.67 124.964 171.882 125.052 172.039 125.209C172.196 125.366 172.284 125.578 172.284 125.8V125.8Z"></path><path id="Vector_13" fill="#01348f" d="M159.382 124.963C159.382 125.185 159.294 125.397 159.137 125.554C158.98 125.711 158.768 125.799 158.546 125.799C158.324 125.799 158.112 125.711 157.955 125.554C157.798 125.397 157.71 125.185 157.71 124.963C157.71 124.741 157.798 124.529 157.955 124.372C158.112 124.215 158.324 124.127 158.546 124.127C158.768 124.127 158.98 124.215 159.137 124.372C159.294 124.529 159.382 124.741 159.382 124.963Z"></path><path id="Vector_14" fill="#01348f" d="M157.14 114.133C157.14 114.355 157.052 114.567 156.895 114.724C156.738 114.881 156.526 114.969 156.304 114.969C156.082 114.969 155.87 114.881 155.713 114.724C155.556 114.567 155.468 114.355 155.468 114.133C155.468 113.911 155.556 113.699 155.713 113.542C155.87 113.385 156.082 113.297 156.304 113.297C156.526 113.297 156.738 113.385 156.895 113.542C157.052 113.699 157.14 113.911 157.14 114.133V114.133Z"></path><path id="Vector_15" fill="#01348f" d="M144.106 114.133C144.106 114.355 144.018 114.567 143.861 114.724C143.704 114.881 143.492 114.969 143.27 114.969C143.048 114.969 142.836 114.881 142.679 114.724C142.522 114.567 142.434 114.355 142.434 114.133C142.434 113.911 142.522 113.699 142.679 113.542C142.836 113.385 143.048 113.297 143.27 113.297C143.492 113.297 143.704 113.385 143.861 113.542C144.018 113.699 144.106 113.911 144.106 114.133Z"></path><path id="Vector_16" fill="#01348f" d="M142.206 101.478C142.206 101.7 142.118 101.912 141.961 102.069C141.804 102.226 141.592 102.314 141.37 102.314C141.148 102.314 140.936 102.226 140.779 102.069C140.622 101.912 140.534 101.7 140.534 101.478C140.534 101.256 140.622 101.044 140.779 100.887C140.936 100.73 141.148 100.642 141.37 100.642C141.592 100.642 141.804 100.73 141.961 100.887C142.118 101.044 142.206 101.256 142.206 101.478Z"></path><path id="Vector_17" fill="#01348f" d="M130.653 101.687C130.653 101.909 130.565 102.121 130.408 102.278C130.251 102.435 130.039 102.523 129.817 102.523C129.595 102.523 129.383 102.435 129.226 102.278C129.069 102.121 128.981 101.909 128.981 101.687C128.981 101.465 129.069 101.253 129.226 101.096C129.383 100.939 129.595 100.851 129.817 100.851C130.039 100.851 130.251 100.939 130.408 101.096C130.565 101.253 130.653 101.465 130.653 101.687V101.687Z"></path><path id="Vector_18" fill="#01348f" d="M124.5 87.741C124.5 87.9627 124.412 88.1754 124.255 88.3321C124.098 88.4889 123.886 88.577 123.664 88.577C123.442 88.577 123.23 88.4889 123.073 88.3321C122.916 88.1754 122.828 87.9627 122.828 87.741C122.828 87.5193 122.916 87.3066 123.073 87.1499C123.23 86.9931 123.442 86.905 123.664 86.905C123.886 86.905 124.098 86.9931 124.255 87.1499C124.412 87.3066 124.5 87.5193 124.5 87.741Z"></path><path id="Vector_19" fill="#01348f" d="M112.412 89.109C112.412 89.3307 112.324 89.5434 112.167 89.7001C112.01 89.8569 111.798 89.945 111.576 89.945C111.354 89.945 111.142 89.8569 110.985 89.7001C110.828 89.5434 110.74 89.3307 110.74 89.109C110.74 88.8873 110.828 88.6746 110.985 88.5179C111.142 88.3611 111.354 88.273 111.576 88.273C111.798 88.273 112.01 88.3611 112.167 88.5179C112.324 88.6746 112.412 88.8873 112.412 89.109V89.109Z"></path><path id="Vector_20" fill="#01348f" d="M112.412 78.411C112.412 78.6327 112.324 78.8453 112.167 79.0021C112.01 79.1589 111.798 79.247 111.576 79.247C111.354 79.247 111.142 79.1589 110.985 79.0021C110.828 78.8453 110.74 78.6327 110.74 78.411C110.74 78.1893 110.828 77.9766 110.985 77.8198C111.142 77.6631 111.354 77.575 111.576 77.575C111.798 77.575 112.01 77.6631 112.167 77.8198C112.324 77.9766 112.412 78.1893 112.412 78.411V78.411Z"></path><path id="Vector_21" fill="#01348f" d="M102.1 80.235C102.1 80.4567 102.012 80.6693 101.855 80.8261C101.698 80.9829 101.486 81.071 101.264 81.071C101.042 81.071 100.83 80.9829 100.673 80.8261C100.516 80.6693 100.428 80.4567 100.428 80.235C100.428 80.0133 100.516 79.8006 100.673 79.6438C100.83 79.4871 101.042 79.399 101.264 79.399C101.486 79.399 101.698 79.4871 101.855 79.6438C102.012 79.8006 102.1 80.0133 102.1 80.235V80.235Z"></path><path id="Vector_22" fill="#01348f" d="M100.708 68.531C100.708 68.7527 100.62 68.9654 100.463 69.1221C100.306 69.2789 100.094 69.367 99.872 69.367C99.6503 69.367 99.4376 69.2789 99.2809 69.1221C99.1241 68.9654 99.036 68.7527 99.036 68.531C99.036 68.3093 99.1241 68.0966 99.2809 67.9399C99.4376 67.7831 99.6503 67.695 99.872 67.695C100.094 67.695 100.306 67.7831 100.463 67.9399C100.62 68.0966 100.708 68.3093 100.708 68.531V68.531Z"></path><path id="Vector_23" fill="#01348f" d="M90.428 70.013C90.428 70.2347 90.3399 70.4474 90.1831 70.6041C90.0263 70.7609 89.8137 70.849 89.592 70.849C89.3703 70.849 89.1576 70.7609 89.0008 70.6041C88.8441 70.4474 88.756 70.2347 88.756 70.013C88.756 69.7913 88.8441 69.5786 89.0008 69.4219C89.1576 69.2651 89.3703 69.177 89.592 69.177C89.8137 69.177 90.0263 69.2651 90.1831 69.4219C90.3399 69.5786 90.428 69.7913 90.428 70.013V70.013Z"></path></g><g id="outlines"><path id="Vector_24" stroke="#0058ff" stroke-linejoin="round" d="M12.221 120.65C12.221 120.736 12.187 120.818 12.1264 120.878C12.0658 120.939 11.9837 120.973 11.898 120.973C11.8123 120.973 11.7302 120.939 11.6696 120.878C11.609 120.818 11.575 120.736 11.575 120.65C11.575 120.564 11.609 120.482 11.6696 120.422C11.7302 120.361 11.8123 120.327 11.898 120.327C11.9837 120.327 12.0658 120.361 12.1264 120.422C12.187 120.482 12.221 120.564 12.221 120.65V120.65Z"></path><path id="Vector_25" stroke="#0058ff" stroke-linecap="round" stroke-linejoin="round" d="M44.066 132.82H38.936C37.1331 132.81 35.35 132.444 33.6887 131.744C32.0275 131.044 30.5208 130.022 29.2552 128.738C27.9895 127.454 26.9896 125.933 26.313 124.262C25.6363 122.591 25.2962 120.803 25.312 119V60.816C25.334 59.0118 25.7114 57.2297 26.4224 55.5714C27.1334 53.9131 28.1642 52.4111 29.4558 51.1513C30.7475 49.8915 32.2747 48.8985 33.9503 48.2291C35.6258 47.5597 37.4168 47.227 39.221 47.25H122.635C126.296 47.2993 129.788 48.796 132.349 51.4128C134.91 54.0297 136.33 57.5539 136.3 61.215V92.377"></path><path id="Vector_26" stroke="#0058ff" stroke-linecap="round" stroke-linejoin="round" d="M127.708 132.051C130.201 131.008 132.331 129.253 133.831 127.005C135.332 124.757 136.136 122.117 136.144 119.415V118.9"></path><path id="Vector_27" stroke="#0058ff" stroke-linecap="round" stroke-linejoin="round" d="M98.676 63.923H136.334"></path><path id="Vector_28" stroke="#0058ff" stroke-linecap="round" stroke-linejoin="round" d="M25.407 63.686H79.807"></path><path id="Vector_29" stroke="#0058ff" stroke-linecap="round" stroke-linejoin="round" d="M38.043 56.009C38.0412 56.4319 37.9141 56.8448 37.6776 57.1954C37.4412 57.546 37.106 57.8186 36.7146 57.9788C36.3232 58.1389 35.8931 58.1794 35.4787 58.0951C35.0643 58.0107 34.6842 57.8054 34.3865 57.5051C34.0888 57.2047 33.8869 56.8228 33.8063 56.4077C33.7256 55.9925 33.7699 55.5628 33.9335 55.1728C34.0971 54.7829 34.3727 54.4502 34.7254 54.2169C35.0781 53.9835 35.4921 53.86 35.915 53.862C36.4816 53.8655 37.0238 54.0934 37.4226 54.4958C37.8215 54.8983 38.0446 55.4424 38.043 56.009V56.009Z"></path><path id="Vector_30" stroke="#0058ff" stroke-linecap="round" stroke-linejoin="round" d="M44.484 56.028C44.4822 56.4509 44.355 56.8638 44.1186 57.2144C43.8821 57.565 43.547 57.8376 43.1556 57.9978C42.7642 58.1579 42.3341 58.1984 41.9197 58.114C41.5053 58.0297 41.1252 57.8244 40.8275 57.524C40.5298 57.2237 40.3279 56.8418 40.2472 56.4266C40.1666 56.0115 40.2109 55.5818 40.3745 55.1918C40.5381 54.8018 40.8137 54.4692 41.1664 54.2358C41.5191 54.0025 41.9331 53.879 42.356 53.881C42.9226 53.8844 43.4647 54.1124 43.8636 54.5148C44.2625 54.9172 44.4856 55.4614 44.484 56.028V56.028Z"></path><path id="Vector_31" stroke="#0058ff" stroke-linecap="round" stroke-linejoin="round" d="M50.945 56.066C50.9433 56.4889 50.8161 56.9017 50.5797 57.2523C50.3433 57.6029 50.0083 57.8755 49.6169 58.0357C49.2256 58.1959 48.7955 58.2364 48.3811 58.1522C47.9668 58.0679 47.5867 57.8627 47.2889 57.5624C46.9912 57.2622 46.7892 56.8804 46.7084 56.4653C46.6277 56.0502 46.6718 55.6205 46.8353 55.2305C46.9987 54.8406 47.2742 54.5078 47.6267 54.2743C47.9793 54.0409 48.3932 53.9172 48.8161 53.919C49.3828 53.9222 49.9252 54.15 50.3243 54.5525C50.7234 54.9549 50.9466 55.4992 50.945 56.066V56.066Z"></path><path id="Vector_32" stroke="#0058ff" stroke-linecap="round" stroke-linejoin="round" d="M68.672 89.565L75.551 95.702L66.487 105.848L71.37 110.2L80.434 100.053L87.293 106.19L92.385 81.736L68.672 89.565Z"></path><path id="Vector_33" stroke="#0058ff" stroke-linecap="round" stroke-linejoin="round" d="M65.6321 89.736C65.417 91.6942 65.4298 93.6708 65.67 95.626L70.4391 94.695C68.4776 93.4325 66.8329 91.7358 65.6321 89.736Z"></path><path id="Vector_34" stroke="#0058ff" stroke-linecap="round" stroke-linejoin="round" d="M84.424 56.294V18.653"></path><path id="Vector_35" stroke="#0058ff" stroke-linecap="round" stroke-linejoin="round" d="M84.415 73.889V68.645"></path><path id="Vector_36" stroke="#0058ff" stroke-linecap="round" stroke-linejoin="round" d="M84.424 84.358V78.069"></path><path id="Vector_37" stroke="#0058ff" stroke-linecap="round" stroke-linejoin="round" d="M65.67 95.626C66.392 101.155 69.09 106.326 74.506 106.326C78.439 106.326 80.985 104.635 82.524 101.937"></path><path id="Vector_38" stroke="#0058ff" stroke-linecap="round" stroke-linejoin="round" d="M86.476 75.979C86.476 76.3924 86.3534 76.7965 86.1238 77.1402C85.8941 77.4839 85.5677 77.7517 85.1858 77.9099C84.8039 78.0681 84.3837 78.1095 83.9783 78.0289C83.5729 77.9482 83.2005 77.7492 82.9082 77.4569C82.6159 77.1646 82.4168 76.7922 82.3362 76.3868C82.2555 75.9813 82.2969 75.5611 82.4551 75.1792C82.6133 74.7973 82.8812 74.4709 83.2249 74.2412C83.5686 74.0116 83.9727 73.889 84.386 73.889C84.6607 73.8882 84.9328 73.9417 85.1868 74.0465C85.4407 74.1512 85.6714 74.3052 85.8656 74.4994C86.0599 74.6936 86.2138 74.9243 86.3185 75.1783C86.4233 75.4322 86.4768 75.7043 86.476 75.979V75.979Z"></path><path id="Vector_39" stroke="#0058ff" stroke-linecap="round" stroke-linejoin="round" d="M84.481 65.4C86.419 65.34 86.59 62.987 84.709 62.91C83.303 62.854 82.315 62.872 81.209 62.872C79.347 62.872 79.252 65.364 80.791 65.495C81.707 65.568 82.7 65.45 84.481 65.4Z"></path><path id="Vector_40" stroke="#0058ff" stroke-linecap="round" stroke-linejoin="round" d="M83.417 57.453C82.733 57.415 82.239 57.395 81.593 57.353C79.826 57.253 79.638 59.735 81.099 59.937C81.841 60.0198 82.5877 60.0515 83.334 60.032"></path><path id="Vector_41" stroke="#0058ff" stroke-linecap="round" stroke-linejoin="round" d="M84.8 68.075C86.681 67.956 86.8 65.684 84.971 65.662C83.622 65.645 82.653 65.692 81.589 65.719C79.784 65.763 79.747 68.145 81.228 68.246C82.421 68.256 83.6135 68.1989 84.8 68.075Z"></path><path id="Vector_42" stroke="#0058ff" stroke-linecap="round" stroke-linejoin="round" d="M83.335 60.094C82.615 60.076 81.99 60.113 81.289 60.094C79.408 60.056 79.256 62.583 80.795 62.735C81.745 62.83 82.733 62.756 84.557 62.735C84.8272 62.7523 85.0958 62.6818 85.3228 62.5343C85.5498 62.3867 85.7231 62.1698 85.817 61.9158C85.9109 61.6619 85.9203 61.3844 85.844 61.1247C85.7676 60.8649 85.6094 60.6367 85.393 60.474"></path><path id="Vector_43" stroke="#0058ff" stroke-linecap="round" stroke-linejoin="round" d="M92.854 59.993C91.8964 58.8726 90.8431 57.8377 89.706 56.9C88.585 56.007 88.167 56.144 85.83 56.2C83.094 56.262 83.33 56.39 83.341 61.064C83.341 62.204 85.317 62.432 85.849 58.822C85.412 61.596 86.59 63.554 88.449 64.257"></path><path id="Vector_44" stroke="#0058ff" stroke-linecap="round" stroke-linejoin="round" d="M85.45 68.8C84.577 68.522 84.035 68.7 81.272 68.252"></path><path id="Vector_45" stroke="#0058ff" stroke-linecap="round" stroke-linejoin="round" d="M140.933 113.297L145.455 120.213"></path><path id="Vector_46" stroke="#0058ff" stroke-linecap="round" stroke-linejoin="round" d="M171.451 138.849C156.981 129.54 151.221 125.542 139.508 114.969"></path><path id="Vector_47" stroke="#0058ff" stroke-linecap="round" stroke-linejoin="round" d="M132.458 90.363L124.725 102.219L136.809 111.948L146.044 101.478"></path><path id="Vector_48" stroke="#0058ff" stroke-linecap="round" stroke-linejoin="round" d="M145.208 91.75C141.053 96.114 141.02 96.82 144.091 99.687C151.724 106.814 152.986 108.108 156.627 111.053C160.616 114.282 166.552 118.692 179.05 127.697"></path><path id="Vector_49" stroke="#0058ff" stroke-linecap="round" stroke-linejoin="round" d="M138.747 91.826L141.747 91.693C141.173 91.4146 140.626 91.0839 140.113 90.705"></path><path id="Vector_50" stroke="#0058ff" stroke-linecap="round" stroke-linejoin="round" d="M146.937 82.363C145.87 82.5106 144.836 82.8383 143.878 83.332C136.845 86.67 138.425 89.356 140.116 90.705L138.747 91.826C138.162 92.2044 137.482 92.4089 136.786 92.4156C136.09 92.4224 135.406 92.2311 134.814 91.864C114.214 78.736 94.126 59.725 93.714 59.296C90.1531 62.0425 87.2083 65.5059 85.07 69.462C96.3961 80.6206 108.596 90.8565 121.552 100.072"></path><path id="Vector_51" stroke="#0058ff" stroke-linecap="round" stroke-linejoin="round" d="M75.95 120.08C79.1168 118.882 82.5349 118.504 85.887 118.98L109.866 122.305"></path><path id="Vector_52" stroke="#0058ff" stroke-linecap="round" stroke-linejoin="round" d="M148.78 104.062L131.28 124.602C130.484 127.256 129.279 129.769 127.708 132.051C125.389 135.394 121.779 138.756 116.441 139.423C108.741 140.386 85.313 138.51 77.741 137.808L41.672 149.892C38.2067 146.062 36.3314 141.056 36.428 135.892L75.95 120.08L76.35 118.427C76.8724 116.339 78.0782 114.485 79.7756 113.161C81.4729 111.837 83.5644 111.119 85.717 111.121H114.256L129.343 88.273"></path><path id="Vector_53" stroke="#0058ff" stroke-linecap="round" stroke-linejoin="round" d="M70.944 140.084L66.444 158.063C70.9055 160.761 76.0538 162.108 81.265 161.939L87.022 138.587"></path><path id="Vector_54" stroke="#0058ff" stroke-linecap="round" stroke-linejoin="round" d="M183 139.785C184.148 141.234 185.507 142.502 187.033 143.546C190.054 145.617 189.279 146.367 186.333 145.161C184.278 144.321 183.859 143.95 179.302 141.893C176.367 140.374 173.519 138.693 170.771 136.858"></path><path id="Vector_55" stroke="#0058ff" stroke-linecap="round" stroke-linejoin="round" d="M183.875 140.829C183.875 140.829 186.137 141.622 188.948 142.463C192.104 143.407 192.995 142.387 189.556 140.677C187.763 139.897 186.127 138.796 184.73 137.428"></path><path id="Vector_56" stroke="#0058ff" stroke-linecap="round" stroke-linejoin="round" d="M185.471 135.11C185.471 135.11 192.234 137.391 192.671 137.523C195.936 138.504 195.654 139.767 192.519 139.499C189.65 139.254 186.135 138.625 186.135 138.625"></path><path id="Vector_57" stroke="#0058ff" stroke-linecap="round" stroke-linejoin="round" d="M179.656 128.687C179.588 128.292 179.371 127.938 179.05 127.697C177.529 126.648 174.813 129.123 173.55 130.704C172.065 132.567 169.489 137.547 171.45 138.849C171.798 139.016 172.184 139.09 172.57 139.064C172.955 139.038 173.327 138.913 173.65 138.701"></path><path id="Vector_58" stroke="#0058ff" stroke-linecap="round" stroke-linejoin="round" d="M176.92 127.794C178.32 128.646 180.366 129.18 181.42 128.022C182.826 126.483 184.652 124.031 185.354 124.716C186.439 125.778 183.473 129.143 183.473 130.949C183.473 131.557 185.089 132.1 185.773 132.222C186.873 132.422 190.618 133.112 190.998 133.172C194.398 133.703 193.981 135.063 191.017 135.034C189.554 134.98 188.09 135.127 186.666 135.471"></path><path id="Vector_59" stroke="#0058ff" stroke-linecap="round" stroke-linejoin="round" d="M185.813 133.552C185.453 136.186 184.238 138.629 182.355 140.506"></path><path id="Vector_60" stroke="#0058ff" stroke-linecap="round" stroke-linejoin="round" d="M183.59 133.818C181.708 136.212 179.523 137.257 177.015 136.174"></path><path id="Vector_61" stroke="#0058ff" stroke-linecap="round" stroke-linejoin="round" d="M36.523 138.644C32.423 140.244 25.863 142.653 22.177 143.698C18.077 144.857 14.52 146.054 14.368 146.798C13.874 149.458 24.568 148.298 29.132 150.198C30.2066 150.665 31.3607 150.923 32.532 150.957C34.732 150.957 36.674 149.019 40.151 147.898C38.1876 145.165 36.9403 141.983 36.523 138.644V138.644Z"></path><path id="Vector_62" stroke="#0058ff" stroke-linecap="round" stroke-linejoin="round" d="M68.767 159.317C67.475 163.535 65.48 169.634 64.112 172.978C62.497 176.95 61.243 180.484 61.737 181.054C63.523 183.087 69.204 173.948 73.517 171.535C74.5491 170.981 75.4656 170.234 76.217 169.335C77.528 167.682 77.281 165.098 78.364 161.868C75.0345 161.621 71.78 160.756 68.767 159.317V159.317Z"></path><path id="Vector_63" stroke="#0058ff" stroke-linecap="round" stroke-linejoin="round" d="M147.637 88.348C149.298 86.566 150.426 82.065 146.937 82.363C150.908 81.945 158.391 86.105 154.727 93.973C151.057 101.857 149.806 93.935 145.208 91.75C145.326 91.632 145.47 91.5434 145.628 91.4913C145.787 91.4392 145.955 91.425 146.12 91.45C149.54 92.476 150.529 89.392 148.381 89.227C147.544 89.158 147.067 88.959 147.637 88.348Z"></path><path id="Vector_64" stroke="#0058ff" stroke-linecap="round" stroke-linejoin="round" d="M18.662 122.113C18.7496 122.267 18.7955 122.441 18.7951 122.618C18.7948 122.795 18.7481 122.969 18.6598 123.123C18.5715 123.277 18.4446 123.404 18.2917 123.494C18.1388 123.583 17.9652 123.631 17.788 123.633H6.00802C5.83044 123.632 5.65614 123.585 5.50257 123.496C5.349 123.407 5.22154 123.279 5.13295 123.125C5.04435 122.971 4.99773 122.797 4.99774 122.619C4.99775 122.441 5.0444 122.267 5.13302 122.113L11.024 111.891C11.1138 111.739 11.2416 111.613 11.3948 111.526C11.5481 111.438 11.7215 111.392 11.898 111.392C12.0745 111.392 12.2479 111.438 12.4012 111.526C12.5545 111.613 12.6823 111.739 12.772 111.891L18.662 122.113Z"></path><path id="Vector_65" stroke="#0058ff" stroke-linecap="round" stroke-linejoin="round" d="M11.898 115.368V118.921"></path><path id="Vector_66" stroke="#0058ff" stroke-linecap="round" stroke-linejoin="round" d="M111.586 157.018V166.86"></path><path id="Vector_67" stroke="#0058ff" stroke-linecap="round" stroke-linejoin="round" d="M116.517 161.939H106.655"></path><path id="Vector_68" stroke="#0058ff" stroke-linecap="round" stroke-linejoin="round" d="M151.9 62.963C151.552 62.6168 151.08 62.4224 150.589 62.4224C150.098 62.4224 149.626 62.6168 149.278 62.963L148.784 63.438L148.328 62.963C147.98 62.6153 147.509 62.42 147.017 62.42C146.525 62.42 146.054 62.6153 145.706 62.963C145.358 63.3107 145.163 63.7823 145.163 64.274C145.163 64.7657 145.358 65.2373 145.706 65.585L148.806 68.685L151.906 65.585C152.252 65.236 152.446 64.7642 152.444 64.2728C152.443 63.7814 152.248 63.3104 151.9 62.963V62.963Z"></path><path id="Vector_69" stroke="#0058ff" stroke-linecap="round" stroke-linejoin="round" d="M64.872 27.812C65.0206 27.8128 65.1676 27.843 65.3045 27.9008C65.4414 27.9586 65.5655 28.0429 65.6697 28.1488C65.7739 28.2548 65.8561 28.3803 65.9116 28.5181C65.967 28.656 65.9947 28.8034 65.993 28.952V36.4C65.9922 36.5486 65.9621 36.6956 65.9043 36.8325C65.8465 36.9694 65.7622 37.0935 65.6562 37.1977C65.5503 37.3019 65.4248 37.3841 65.2869 37.4396C65.1491 37.4951 65.0016 37.5227 64.853 37.521H53.738C53.5894 37.5202 53.4424 37.4901 53.3056 37.4323C53.1687 37.3745 53.0446 37.2902 52.9404 37.1842C52.8362 37.0783 52.754 36.9528 52.6985 36.8149C52.643 36.6771 52.6153 36.5296 52.617 36.381V28.933C52.6178 28.7844 52.648 28.6375 52.7058 28.5006C52.7636 28.3637 52.8479 28.2396 52.9538 28.1354C53.0598 28.0312 53.1853 27.949 53.3231 27.8935C53.461 27.838 53.6084 27.8103 53.757 27.812H64.872Z"></path><path id="Vector_70" stroke="#0058ff" stroke-linecap="round" stroke-linejoin="round" d="M52.997 28.078L59.305 32.657L65.613 28.097"></path><path id="Vector_71" stroke="#0058ff" stroke-linecap="round" stroke-linejoin="round" d="M134.833 91.864C135.84 96.2527 138.532 98.463 142.909 98.495"></path><path id="Vector_72" stroke="#0058ff" stroke-linecap="round" stroke-linejoin="round" d="M120.887 126.635C120.238 129.321 120.589 132.151 121.875 134.597"></path><path id="Vector_73" stroke="#0058ff" stroke-linecap="round" stroke-linejoin="round" d="M124.193 105.316L118.949 112.613L121.495 118.199L127.689 119.643L133.883 113.012L124.193 105.316Z"></path><path id="Vector_74" stroke="#0058ff" stroke-linecap="round" stroke-linejoin="round" d="M75.228 161.445L78.971 146.966"></path><path id="Vector_75" stroke="#0058ff" stroke-linecap="round" stroke-linejoin="round" d="M38.632 145.408L54.384 139.537"></path><path id="Vector_76" stroke="#0058ff" stroke-linecap="round" stroke-linejoin="round" d="M70.287 142.71L87.027 138.587"></path></g></g></svg>