<svg xmlns="http://www.w3.org/2000/svg" xmlns:xlink="http://www.w3.org/1999/xlink" viewBox="0 0 500 360"><defs><style>.cls-1{fill:none;}.cls-2{isolation:isolate;}.cls-3{fill:url(#linear-gradient);}.cls-4{fill:url(#linear-gradient-2);}.cls-11,.cls-17,.cls-24,.cls-28,.cls-5,.cls-6,.cls-7{fill:#0059ff;}.cls-5{opacity:0.3;}.cls-6{opacity:0.65;}.cls-12,.cls-28,.cls-8{opacity:0.6;}.cls-10,.cls-16,.cls-23,.cls-8{mix-blend-mode:multiply;}.cls-8{fill:url(#linear-gradient-3);}.cls-10,.cls-9{fill:#fff;}.cls-10,.cls-16{opacity:0.5;}.cls-11{opacity:0.4;}.cls-13,.cls-21,.cls-25{fill:#bbd7ff;}.cls-14{fill:#064ab7;}.cls-15{fill:url(#linear-gradient-4);}.cls-16,.cls-23{fill:#ebf4ff;}.cls-17,.cls-19{opacity:0.2;}.cls-18{clip-path:url(#clip-path);}.cls-19,.cls-20{fill:#17e0b9;}.cls-21{opacity:0.8;}.cls-22{fill:url(#linear-gradient-5);}.cls-23{opacity:0.9;}.cls-24,.cls-25{opacity:0.7;}.cls-26{opacity:0.35;}.cls-27{opacity:0.45;}</style><linearGradient id="linear-gradient" x1="125.77" y1="409.14" x2="125.77" y2="29.78" gradientUnits="userSpaceOnUse"><stop offset="0" stop-color="#0059ff" stop-opacity="0"/><stop offset="0.14" stop-color="#0059ff" stop-opacity="0.01"/><stop offset="0.27" stop-color="#0059ff" stop-opacity="0.06"/><stop offset="0.39" stop-color="#0059ff" stop-opacity="0.13"/><stop offset="0.51" stop-color="#0059ff" stop-opacity="0.23"/><stop offset="0.63" stop-color="#0059ff" stop-opacity="0.36"/><stop offset="0.74" stop-color="#0059ff" stop-opacity="0.53"/><stop offset="0.86" stop-color="#0059ff" stop-opacity="0.72"/><stop offset="0.97" stop-color="#0059ff" stop-opacity="0.93"/><stop offset="1" stop-color="#0059ff"/></linearGradient><linearGradient id="linear-gradient-2" x1="164.76" y1="379.36" x2="164.76" y2="180.3" gradientUnits="userSpaceOnUse"><stop offset="0" stop-color="#e3eeff"/><stop offset="0.2" stop-color="#e0ecff"/><stop offset="0.34" stop-color="#d7e6ff"/><stop offset="0.46" stop-color="#c7dcff"/><stop offset="0.57" stop-color="#b1cdff"/><stop offset="0.67" stop-color="#95bbff"/><stop offset="0.77" stop-color="#72a4ff"/><stop offset="0.87" stop-color="#4888ff"/><stop offset="0.96" stop-color="#196aff"/><stop offset="1" stop-color="#0059ff"/></linearGradient><linearGradient id="linear-gradient-3" x1="96.46" y1="144.88" x2="96.46" y2="368.69" gradientUnits="userSpaceOnUse"><stop offset="0.06" stop-color="#0059ff" stop-opacity="0.6"/><stop offset="1" stop-color="#c0d8ff" stop-opacity="0"/></linearGradient><linearGradient id="linear-gradient-4" x1="814.04" y1="102.97" x2="631.51" y2="102.97" gradientTransform="matrix(1, 0, 0.32, 1, -673.35, 0)" gradientUnits="userSpaceOnUse"><stop offset="0" stop-color="#fff"/><stop offset="1" stop-color="#fff"/></linearGradient><clipPath id="clip-path"><circle id="SVGID" class="cls-1" cx="116.16" cy="95.3" r="13.2"/></clipPath><linearGradient id="linear-gradient-5" x1="255.23" y1="256.38" x2="255.23" y2="101.88" gradientUnits="userSpaceOnUse"><stop offset="0.6" stop-color="#0059ff" stop-opacity="0.3"/><stop offset="0.76" stop-color="#0059ff" stop-opacity="0.31"/><stop offset="0.82" stop-color="#0059ff" stop-opacity="0.33"/><stop offset="0.86" stop-color="#0059ff" stop-opacity="0.38"/><stop offset="0.89" stop-color="#0059ff" stop-opacity="0.45"/><stop offset="0.92" stop-color="#0059ff" stop-opacity="0.53"/><stop offset="0.95" stop-color="#0059ff" stop-opacity="0.64"/><stop offset="0.97" stop-color="#0059ff" stop-opacity="0.77"/><stop offset="0.99" stop-color="#0059ff" stop-opacity="0.91"/><stop offset="1" stop-color="#0059ff"/></linearGradient></defs><title>Artboard 1 copy 4</title><g class="cls-2"><g id="Layer_1" data-name="Layer 1"><rect class="cls-3" x="88.81" y="233.99" width="73.93" height="57.59"/><rect class="cls-4" x="162.73" y="233.99" width="4.05" height="57.59"/><rect class="cls-5" x="137.05" y="253.38" width="25.69" height="18.8"/><rect class="cls-6" x="162.73" y="253.38" width="4.05" height="18.8"/><circle class="cls-7" cx="147.51" cy="262.78" r="3.85"/><path class="cls-8" d="M122,291.58a26.69,26.69,0,1,0-51.11,0H122Z"/><circle class="cls-9" cx="89.6" cy="283.88" r="26.7"/><circle class="cls-10" cx="89.6" cy="283.88" r="26.7"/><circle class="cls-11" cx="89.6" cy="283.88" r="26.7"/><path class="cls-9" d="M100.84,278.79a7,7,0,0,0-7-7h-2.2v-3.46H87.93v3.46H85.56v-3.46H81.82v3.46H78.36v3.74h3.46V292.2H78.36v3.74h3.46v3.45h3.74v-3.45h2.37v3.45h3.74v-3.45h2.2a7,7,0,0,0,4.74-12.06A6.93,6.93,0,0,0,100.84,278.79Zm-7,3.22H85.56v-6.44h8.31a3.22,3.22,0,1,1,0,6.44Zm-8.31,3.74h8.31a3.23,3.23,0,0,1,0,6.45H85.56Z"/><path class="cls-9" d="M100.84,278.79a7,7,0,0,0-7-7h-2.2v-3.46H87.93v3.46H85.56v-3.46H81.82v3.46H78.36v3.74h3.46V292.2H78.36v3.74h3.46v3.45h3.74v-3.45h2.37v3.45h3.74v-3.45h2.2a7,7,0,0,0,4.74-12.06A6.93,6.93,0,0,0,100.84,278.79Zm-7,3.22H85.56v-6.44h8.31a3.22,3.22,0,1,1,0,6.44Zm-8.31,3.74h8.31a3.23,3.23,0,0,1,0,6.45H85.56Z"/><g class="cls-12"><polygon class="cls-7" points="388.5 194.57 325.5 194.57 325.5 194.08 388.01 194.08 388.01 124.07 388.5 124.07 388.5 194.57"/></g><polygon class="cls-13" points="158.93 75.25 158.93 130.69 159.03 130.69 162.88 130.69 162.88 75.25 158.93 75.25"/><polygon class="cls-14" points="162.88 75.25 162.86 65.89 158.93 65.89 158.93 75.25 162.88 75.25"/><rect class="cls-15" x="73.38" y="75.25" width="85.55" height="55.44"/><rect class="cls-16" x="73.38" y="75.25" width="85.55" height="55.44"/><rect class="cls-7" x="73.38" y="65.89" width="85.55" height="9.36"/><circle class="cls-17" cx="116.16" cy="95.3" r="13.2"/><g class="cls-18"><ellipse class="cls-7" cx="116.16" cy="92.14" rx="4.84" ry="5.16"/><path class="cls-7" d="M119.59,118h-6.86a7.68,7.68,0,0,1-7.68-7.68v-.3A11.11,11.11,0,0,1,116.16,99h0a11.12,11.12,0,0,1,11.11,11.11v.3A7.68,7.68,0,0,1,119.59,118Z"/></g><rect class="cls-19" x="91.81" y="113.24" width="48.7" height="7.64"/><rect class="cls-20" x="129.92" y="113.24" width="10.59" height="7.64"/><rect class="cls-7" x="359.22" y="65.99" width="58.07" height="58.07"/><rect class="cls-21" x="317.6" y="133.61" width="7.9" height="105.8"/><path class="cls-22" d="M225.88,113.43c0-21.23,22.67-37.28,45.08-25.2a26.35,26.35,0,0,1,13.63,23.26v22.12h13V111c0-13.72-10-30-22.46-35.78-31.46-14.57-62.17,8-62.17,37.77v20.64h13Z"/><rect class="cls-23" x="186.94" y="133.61" width="130.66" height="105.8"/><path class="cls-9" d="M388.31,75.17l-15.06,7.37-.06,16.52c0,8.29,12.46,14.51,13.84,15.19l1.28.63h0l1.33-.57c1.44-.62,13.59-6.29,13.62-14.73l.05-17Z"/><polygon class="cls-7" points="390.13 93.16 390.13 87.85 386.39 87.85 386.39 93.16 381.07 93.16 381.07 96.9 386.39 96.9 386.39 102.21 390.13 102.21 390.13 96.9 395.44 96.9 395.44 93.16 390.13 93.16"/><rect class="cls-24" x="428.34" y="276.66" width="3.95" height="20.54"/><rect class="cls-5" x="428.34" y="256.13" width="3.95" height="20.54"/><rect class="cls-25" x="428.34" y="235.59" width="3.95" height="20.54"/><rect class="cls-9" x="346.1" y="276.66" width="82.24" height="20.54"/><rect class="cls-9" x="346.1" y="256.13" width="82.24" height="20.54"/><rect class="cls-9" x="346.1" y="235.59" width="82.24" height="20.54"/><rect class="cls-11" x="346.1" y="276.66" width="82.24" height="20.54"/><rect class="cls-17" x="346.1" y="256.13" width="82.24" height="20.54"/><rect class="cls-16" x="346.1" y="235.59" width="82.24" height="20.54"/><circle class="cls-20" cx="361.09" cy="245.86" r="3.69"/><circle class="cls-7" cx="361.09" cy="266.6" r="3.69"/><circle class="cls-7" cx="361.09" cy="287.11" r="3.69"/><rect class="cls-20" x="395.1" y="243.88" width="9.84" height="3.95"/><rect class="cls-20" x="409.9" y="243.88" width="9.84" height="3.95"/><g class="cls-26"><rect class="cls-7" x="395.1" y="264.63" width="9.84" height="3.95"/></g><rect class="cls-7" x="409.9" y="264.63" width="9.84" height="3.95"/><g class="cls-27"><rect class="cls-7" x="395.1" y="285.14" width="9.84" height="3.95"/></g><rect class="cls-7" x="409.9" y="285.14" width="9.84" height="3.95"/><polygon class="cls-28" points="186.94 180.01 117.64 180.01 117.64 130.69 117.14 130.69 117.14 180.48 117.14 180.51 117.14 233.99 117.64 233.99 117.64 180.51 186.94 180.51 186.94 180.01"/><path class="cls-7" d="M262.53,180a10.26,10.26,0,1,0-14.3,9.44v11.8h8.08v-11.8A10.26,10.26,0,0,0,262.53,180Z"/><g class="cls-12"><polygon class="cls-7" points="346.1 286.81 268.7 286.81 268.7 239.41 269.19 239.41 269.19 286.32 346.1 286.32 346.1 286.81"/></g></g></g></svg>