<svg xmlns="http://www.w3.org/2000/svg" xmlns:xlink="http://www.w3.org/1999/xlink" viewBox="0 0 500 360"><defs><style>.cls-1{fill:#e3eeff;}.cls-2{fill:none;}.cls-3{isolation:isolate;}.cls-4{fill:url(#linear-gradient);}.cls-5{fill:url(#linear-gradient-2);}.cls-6{fill:#c0d8ff;}.cls-7{fill:#fff;}.cls-8{fill:url(#linear-gradient-3);}.cls-9{fill:url(#linear-gradient-4);}.cls-10,.cls-13,.cls-18{mix-blend-mode:multiply;}.cls-10{fill:url(#linear-gradient-5);}.cls-11,.cls-25{fill:#17e0b9;}.cls-12,.cls-28{fill:#0059ff;}.cls-13{opacity:0.7;fill:url(#linear-gradient-6);}.cls-14{fill:#76aeff;}.cls-15{fill:#97bcff;}.cls-16{fill:#bbd7ff;}.cls-17{fill:url(#linear-gradient-7);}.cls-18,.cls-23{fill:#ebf4ff;opacity:0.5;}.cls-19{fill:#064ab7;}.cls-20{opacity:0.18;}.cls-21{fill:#9cf2e2;}.cls-22{clip-path:url(#clip-path);}.cls-24{clip-path:url(#clip-path-2);}.cls-25,.cls-28{opacity:0.14;}.cls-26{fill:#a0f2e2;}.cls-27{clip-path:url(#clip-path-3);}.cls-29{fill:#92bcff;}</style><linearGradient id="linear-gradient" x1="1048.23" y1="530.15" x2="1048.23" y2="41.73" gradientTransform="matrix(1, 0, 0.32, 1, -673.35, 0)" gradientUnits="userSpaceOnUse"><stop offset="0" stop-color="#e3eeff"/><stop offset="0.2" stop-color="#e0ecff"/><stop offset="0.34" stop-color="#d7e6ff"/><stop offset="0.46" stop-color="#c7dcff"/><stop offset="0.57" stop-color="#b1cdff"/><stop offset="0.67" stop-color="#95bbff"/><stop offset="0.77" stop-color="#72a4ff"/><stop offset="0.87" stop-color="#4888ff"/><stop offset="0.96" stop-color="#196aff"/><stop offset="1" stop-color="#0059ff"/></linearGradient><linearGradient id="linear-gradient-2" x1="930.26" y1="398.04" x2="930.26" y2="33.48" gradientTransform="matrix(1, 0, 0.32, 1, -673.35, 0)" gradientUnits="userSpaceOnUse"><stop offset="0.26" stop-color="#e3eeff"/><stop offset="0.41" stop-color="#e0ecff"/><stop offset="0.51" stop-color="#d7e6ff"/><stop offset="0.6" stop-color="#c7dcff"/><stop offset="0.68" stop-color="#b1cdff"/><stop offset="0.76" stop-color="#95bbff"/><stop offset="0.83" stop-color="#72a4ff"/><stop offset="0.9" stop-color="#4888ff"/><stop offset="0.97" stop-color="#196aff"/><stop offset="1" stop-color="#0059ff"/></linearGradient><linearGradient id="linear-gradient-3" x1="1134.01" y1="296.07" x2="755.28" y2="296.07" gradientTransform="matrix(1, 0, 0.32, 1, -673.35, 0)" gradientUnits="userSpaceOnUse"><stop offset="0" stop-color="#e3eeff"/><stop offset="0.1" stop-color="#ddeaff"/><stop offset="0.24" stop-color="#ccdfff"/><stop offset="0.39" stop-color="#b1cdff"/><stop offset="0.56" stop-color="#8ab4ff"/><stop offset="0.73" stop-color="#5893ff"/><stop offset="0.92" stop-color="#1d6cff"/><stop offset="1" stop-color="#0059ff"/></linearGradient><linearGradient id="linear-gradient-4" x1="1616" y1="296.07" x2="310" y2="296.07" xlink:href="#linear-gradient-2"/><linearGradient id="linear-gradient-5" x1="772.78" y1="281.43" x2="772.78" y2="294.99" gradientTransform="matrix(1, 0, 0.32, 1, -673.35, 0)" gradientUnits="userSpaceOnUse"><stop offset="0" stop-color="#fff"/><stop offset="1" stop-color="#c0d8ff"/></linearGradient><linearGradient id="linear-gradient-6" x1="890.73" y1="213.25" x2="890.73" y2="169.98" gradientTransform="matrix(1, 0, 0.32, 1, -673.35, 0)" gradientUnits="userSpaceOnUse"><stop offset="0" stop-color="#c0d8ff" stop-opacity="0.5"/><stop offset="1" stop-color="#0059ff" stop-opacity="0.6"/></linearGradient><linearGradient id="linear-gradient-7" x1="975.53" y1="134.72" x2="537.71" y2="134.72" gradientTransform="matrix(1, 0, 0.32, 1, -673.35, 0)" gradientUnits="userSpaceOnUse"><stop offset="0" stop-color="#fff"/><stop offset="1" stop-color="#fff"/></linearGradient><clipPath id="clip-path"><polygon id="SVGID" class="cls-1" points="221.4 114.78 256.29 114.78 256.26 98.87 221.37 98.87 221.4 114.78"/></clipPath><clipPath id="clip-path-2"><rect id="SVGID-2" data-name="SVGID" class="cls-2" x="73.1" y="214.79" width="92.31" height="38.51"/></clipPath><clipPath id="clip-path-3"><rect id="SVGID-3" data-name="SVGID" class="cls-2" x="45" y="173.33" width="92.4" height="38.51"/></clipPath></defs><title>Artboard 1 copy</title><g class="cls-3"><g id="Layer_1" data-name="Layer 1"><polygon class="cls-4" points="436.55 290.74 436.55 125.36 444.67 125.36 445 125.36 445 290.74 436.55 290.74"/><rect class="cls-5" x="209.07" y="125.36" width="227.48" height="165.38"/><rect class="cls-6" x="219.41" y="135.75" width="206.79" height="154.99"/><polygon class="cls-7" points="391.95 135.75 219.41 135.75 219.41 290.74 426.2 290.74 426.2 135.75 391.95 135.75"/><rect class="cls-8" x="308.97" y="290.74" width="136.03" height="10.65"/><rect class="cls-9" x="72.06" y="290.74" width="236.91" height="10.65"/><path class="cls-10" d="M209.22,295.5h-34.4a7.1,7.1,0,0,1-6.27-4.76h45.93C214.48,293.12,211.84,295.5,209.22,295.5Z"/><polygon class="cls-11" points="357.39 220.42 352.27 220.42 352.17 173.69 357.29 173.69 357.39 220.42"/><path class="cls-12" d="M242.26,262.66h-5.11s0,0,0,0l0-23.67h5.11a0,0,0,0,1,0,0Z"/><path class="cls-12" d="M253.78,260.1h-5.11s0,0,0,0l0-13.43h5.12Z"/><polygon class="cls-11" points="265.31 268.51 260.19 268.51 260.17 255.62 265.29 255.62 265.31 268.51"/><path class="cls-12" d="M276.82,260.1h-5.11s0,0,0,0l0-14.07h5.12Z"/><polygon class="cls-11" points="288.36 269.7 283.24 269.7 283.2 251.78 288.32 251.78 288.36 269.7"/><polygon class="cls-11" points="299.86 260.1 294.74 260.1 294.65 213.26 299.77 213.26 299.86 260.1"/><polygon class="cls-12" points="311.33 233.86 306.21 233.86 306.16 208.26 311.28 208.26 311.33 233.86"/><polygon class="cls-12" points="322.85 233.86 317.73 233.86 317.65 196.1 322.77 196.1 322.85 233.86"/><polygon class="cls-11" points="334.4 246.66 329.28 246.66 329.15 182.65 334.27 182.65 334.4 246.66"/><polygon class="cls-12" points="345.88 230.02 340.76 230.02 340.68 190.34 345.8 190.34 345.88 230.02"/><rect class="cls-13" x="209.07" y="125.36" width="127.98" height="100.83"/><polygon class="cls-14" points="381.1 187.5 381.1 187.5 381.37 187.25 219.41 187.25 219.41 187.75 381.37 187.75 381.1 187.5"/><rect class="cls-14" x="219.41" y="213.05" width="166.16" height="0.5"/><rect class="cls-14" x="219.41" y="238.84" width="166.22" height="0.5"/><rect class="cls-14" x="218.89" y="269.45" width="166.27" height="0.5"/><polygon class="cls-12" points="411.25 180.28 411.25 180.28 388.74 180.28 381.37 187.25 381.1 187.5 381.1 187.5 381.37 187.75 388.76 194.72 388.77 194.72 411.28 194.72 411.28 194.72 411.25 180.28"/><path class="cls-15" d="M411.31,210.59H385.57v5.32h25.74Z"/><path class="cls-15" d="M411.36,236.44H385.62v5.32h25.75Z"/><path class="cls-15" d="M411.42,262.24H385.68v5.31h25.74Z"/><rect class="cls-16" x="311.01" y="70.22" width="4.05" height="128.98"/><polygon class="cls-17" points="234.61 70.22 104.53 70.22 104.53 199.21 311.01 199.21 311.01 70.22 234.61 70.22"/><polygon class="cls-18" points="234.61 70.22 104.53 70.22 104.53 199.21 311.01 199.21 311.01 70.22 234.61 70.22"/><rect class="cls-12" x="104.53" y="58.61" width="206.48" height="11.61"/><polygon class="cls-19" points="315.06 70.22 315.03 58.61 311.01 58.61 311.01 70.22 315.06 70.22"/><path class="cls-7" d="M124.67,66.29h-15V62.58h15s0,0,0,0Z"/><ellipse class="cls-7" cx="302.02" cy="64.44" rx="1.95" ry="1.96" transform="translate(42.96 232.54) rotate(-45.02)"/><ellipse class="cls-7" cx="293.9" cy="64.44" rx="1.95" ry="1.96" transform="translate(40.58 226.8) rotate(-45.02)"/><g class="cls-20"><path class="cls-12" d="M150.3,108.52h-18l0-9.55h18Z"/></g><path class="cls-12" d="M176.21,108.52h-25.9l0-9.56h25.9Z"/><g class="cls-20"><path class="cls-12" d="M150.33,122.44H120.7l0-9.55h29.63Z"/></g><polygon class="cls-12" points="176.23 122.44 150.34 122.44 150.31 112.88 176.21 112.88 176.23 122.44"/><g class="cls-20"><path class="cls-12" d="M150.36,136.36H124.47s0,0,0,0l0-9.55h25.9Z"/></g><polygon class="cls-12" points="176.26 136.36 150.36 136.36 150.34 126.8 176.24 126.8 176.26 136.36"/><polygon class="cls-11" points="176.29 150.28 150.39 150.28 150.37 140.72 176.27 140.72 176.29 150.28"/><path class="cls-21" d="M193.84,150.28H176.29l0-9.56h17.55Z"/><polygon class="cls-11" points="176.32 164.2 150.42 164.2 150.4 154.64 176.3 154.64 176.32 164.2"/><path class="cls-21" d="M202.22,164.2h-25.9l0-9.56h25.89a0,0,0,0,1,0,0Z"/><polygon class="cls-11" points="176.34 178.13 150.45 178.13 150.43 168.57 176.32 168.57 176.34 178.13"/><path class="cls-21" d="M193.89,178.13H176.35l0-9.56h17.54Z"/><path class="cls-1" d="M291.31,178.23H221.53l-.14-68.67h69.78Z"/><path class="cls-12" d="M285.2,171.46H227.62s0,0,0,0l0-14.58h57.59Z"/><polygon class="cls-7" points="285.12 130.51 246.87 130.51 246.86 122.61 285.1 122.61 285.12 130.51"/><polygon class="cls-7" points="285.14 141.4 246.9 141.4 246.88 133.49 285.13 133.49 285.14 141.4"/><polygon class="cls-15" points="256.26 98.87 291.14 98.87 291.17 109.55 256.28 109.55 256.26 98.87"/><polygon id="SVGID-4" data-name="SVGID" class="cls-1" points="221.4 114.78 256.29 114.78 256.26 98.87 221.37 98.87 221.4 114.78"/><g class="cls-22"><polygon class="cls-1" points="256.26 100.02 221.37 100.02 221.4 114.78 256.29 114.78 256.26 100.02"/><polygon class="cls-12" points="256.26 98.87 221.37 98.87 221.37 100.02 256.26 100.02 256.26 98.87"/><rect class="cls-12" x="233.18" y="104.52" width="11.33" height="3.44"/></g><rect class="cls-15" x="227.58" y="125.08" width="11.33" height="3.44"/><rect class="cls-15" x="227.58" y="135.72" width="11.33" height="3.44"/><rect id="SVGID-5" data-name="SVGID" class="cls-7" x="45" y="173.29" width="92.4" height="38.51"/><rect id="SVGID-6" data-name="SVGID" class="cls-18" x="45" y="173.29" width="92.4" height="38.51"/><rect class="cls-16" x="137.4" y="173.29" width="2.85" height="38.51"/><rect id="SVGID-7" data-name="SVGID" class="cls-23" x="73.1" y="214.79" width="92.31" height="38.51"/><rect class="cls-16" x="165.41" y="214.79" width="2.85" height="38.51"/><g class="cls-24"><polyline class="cls-25" points="126.56 231.59 137.53 238.76 152.22 227.06 152.28 253.49 60.16 253.49 58.88 245.06 82.79 245.56 103.54 234.99 109.96 238.76 116.75 235.36 126.56 231.59"/><polygon class="cls-26" points="83.29 246.56 69.45 246.56 69.45 244.55 82.8 244.55 103.57 233.84 110 237.62 116.3 234.47 126.2 230.65 126.92 232.53 117.11 236.3 109.92 239.9 103.5 236.13 83.29 246.56"/><polygon class="cls-11" points="137.58 240 126.2 232.8 126.2 230.65 137.47 237.53 151.6 226.27 152.85 227.84 137.58 240"/><ellipse class="cls-11" cx="152.22" cy="227.06" rx="2.93" ry="2.94" transform="translate(-116 174.3) rotate(-45.03)"/></g><g class="cls-27"><polygon class="cls-28" points="100.36 195 110.34 185.37 124.15 195.94 124.19 211.8 32.06 211.99 32.04 203.68 44.49 200.09 65.83 199.91 78.86 203.49 88.65 193.87 100.36 195"/><polygon class="cls-29" points="78.93 204.22 65.89 200.72 43.94 201.1 43.91 199.09 66.14 198.71 78.41 202.01 89.47 192.23 100.89 194.01 100.58 195.99 90.1 194.36 78.93 204.22"/><polygon class="cls-12" points="123.89 197.47 110.42 186.36 100.58 195.99 100 193.87 110.27 183.63 125.17 195.92 123.89 197.47"/><ellipse class="cls-12" cx="124.15" cy="196.32" rx="2.93" ry="2.94" transform="translate(-102.49 145.42) rotate(-45.03)"/></g></g></g></svg>