<svg xmlns="http://www.w3.org/2000/svg" xmlns:xlink="http://www.w3.org/1999/xlink" viewBox="0 0 500 360"><defs><style>.cls-1{isolation:isolate;}.cls-2{fill:#f5faff;}.cls-3{fill:url(#linear-gradient);}.cls-13,.cls-14,.cls-4{fill:#0059ff;}.cls-5{fill:#17e0b9;}.cls-11,.cls-15,.cls-16,.cls-6{mix-blend-mode:multiply;}.cls-6{fill:url(#linear-gradient-2);}.cls-7{fill:url(#linear-gradient-3);}.cls-8{fill:#fff;}.cls-9{fill:url(#linear-gradient-4);}.cls-10{fill:url(#linear-gradient-5);}.cls-11{fill:url(#linear-gradient-6);}.cls-12,.cls-13{opacity:0.2;}.cls-14{opacity:0.5;}.cls-15{fill:url(#linear-gradient-7);}.cls-16{fill:url(#linear-gradient-8);}</style><linearGradient id="linear-gradient" x1="274.12" y1="280.6" x2="274.12" y2="150.11" gradientUnits="userSpaceOnUse"><stop offset="0" stop-color="#0059ff" stop-opacity="0"/><stop offset="0.14" stop-color="#0059ff" stop-opacity="0.01"/><stop offset="0.27" stop-color="#0059ff" stop-opacity="0.06"/><stop offset="0.39" stop-color="#0059ff" stop-opacity="0.13"/><stop offset="0.51" stop-color="#0059ff" stop-opacity="0.23"/><stop offset="0.63" stop-color="#0059ff" stop-opacity="0.36"/><stop offset="0.74" stop-color="#0059ff" stop-opacity="0.53"/><stop offset="0.86" stop-color="#0059ff" stop-opacity="0.72"/><stop offset="0.97" stop-color="#0059ff" stop-opacity="0.93"/><stop offset="1" stop-color="#0059ff"/></linearGradient><linearGradient id="linear-gradient-2" x1="228.88" y1="355.48" x2="231.63" y2="122.2" gradientUnits="userSpaceOnUse"><stop offset="0.24" stop-color="#c0d8ff" stop-opacity="0"/><stop offset="0.73" stop-color="#0059ff" stop-opacity="0.6"/></linearGradient><linearGradient id="linear-gradient-3" x1="304.53" y1="245.89" x2="304.53" y2="158.81" gradientUnits="userSpaceOnUse"><stop offset="0" stop-color="#0059ff" stop-opacity="0.3"/><stop offset="0.4" stop-color="#0059ff" stop-opacity="0.31"/><stop offset="0.54" stop-color="#0059ff" stop-opacity="0.33"/><stop offset="0.65" stop-color="#0059ff" stop-opacity="0.38"/><stop offset="0.73" stop-color="#0059ff" stop-opacity="0.45"/><stop offset="0.8" stop-color="#0059ff" stop-opacity="0.53"/><stop offset="0.86" stop-color="#0059ff" stop-opacity="0.64"/><stop offset="0.92" stop-color="#0059ff" stop-opacity="0.77"/><stop offset="0.97" stop-color="#0059ff" stop-opacity="0.91"/><stop offset="1" stop-color="#0059ff"/></linearGradient><linearGradient id="linear-gradient-4" x1="399.42" y1="296.68" x2="399.42" y2="66.94" gradientUnits="userSpaceOnUse"><stop offset="0.02" stop-color="#0059ff" stop-opacity="0"/><stop offset="0.24" stop-color="#0059ff" stop-opacity="0.01"/><stop offset="0.38" stop-color="#0059ff" stop-opacity="0.04"/><stop offset="0.49" stop-color="#0059ff" stop-opacity="0.1"/><stop offset="0.58" stop-color="#0059ff" stop-opacity="0.18"/><stop offset="0.67" stop-color="#0059ff" stop-opacity="0.28"/><stop offset="0.75" stop-color="#0059ff" stop-opacity="0.41"/><stop offset="0.83" stop-color="#0059ff" stop-opacity="0.56"/><stop offset="0.91" stop-color="#0059ff" stop-opacity="0.73"/><stop offset="0.98" stop-color="#0059ff" stop-opacity="0.92"/><stop offset="1" stop-color="#0059ff"/></linearGradient><linearGradient id="linear-gradient-5" x1="166.75" y1="240.29" x2="166.75" y2="-105.83" gradientUnits="userSpaceOnUse"><stop offset="0.42" stop-color="#0059ff" stop-opacity="0.05"/><stop offset="0.5" stop-color="#0059ff" stop-opacity="0.06"/><stop offset="0.54" stop-color="#0059ff" stop-opacity="0.09"/><stop offset="0.57" stop-color="#0059ff" stop-opacity="0.14"/><stop offset="0.6" stop-color="#0059ff" stop-opacity="0.21"/><stop offset="0.62" stop-color="#0059ff" stop-opacity="0.31"/><stop offset="0.64" stop-color="#0059ff" stop-opacity="0.43"/><stop offset="0.66" stop-color="#0059ff" stop-opacity="0.56"/><stop offset="0.68" stop-color="#0059ff" stop-opacity="0.73"/><stop offset="0.69" stop-color="#0059ff" stop-opacity="0.9"/><stop offset="0.7" stop-color="#0059ff"/></linearGradient><linearGradient id="linear-gradient-6" x1="166.75" y1="183.05" x2="166.75" y2="-62.28" gradientUnits="userSpaceOnUse"><stop offset="0" stop-color="#17e0b9" stop-opacity="0"/><stop offset="0.11" stop-color="#17e0b9" stop-opacity="0.15"/><stop offset="0.35" stop-color="#17e0b9" stop-opacity="0.45"/><stop offset="0.57" stop-color="#17e0b9" stop-opacity="0.68"/><stop offset="0.76" stop-color="#17e0b9" stop-opacity="0.86"/><stop offset="0.91" stop-color="#17e0b9" stop-opacity="0.96"/><stop offset="1" stop-color="#17e0b9"/></linearGradient><linearGradient id="linear-gradient-7" x1="238.89" y1="205.66" x2="238.89" y2="149.26" gradientUnits="userSpaceOnUse"><stop offset="0" stop-color="#c0d8ff" stop-opacity="0"/><stop offset="1" stop-color="#0059ff" stop-opacity="0.6"/></linearGradient><linearGradient id="linear-gradient-8" x1="133.81" y1="310.38" x2="133.81" y2="161.35" gradientUnits="userSpaceOnUse"><stop offset="0" stop-color="#c0d8ff" stop-opacity="0"/><stop offset="0.02" stop-color="#bbd4ff" stop-opacity="0.02"/><stop offset="0.18" stop-color="#82afff" stop-opacity="0.19"/><stop offset="0.35" stop-color="#5390ff" stop-opacity="0.34"/><stop offset="0.52" stop-color="#2f78ff" stop-opacity="0.45"/><stop offset="0.68" stop-color="#1567ff" stop-opacity="0.54"/><stop offset="0.84" stop-color="#055cff" stop-opacity="0.58"/><stop offset="1" stop-color="#0059ff" stop-opacity="0.6"/></linearGradient></defs><title>Artboard 1 copy 2</title><g class="cls-1"><g id="Layer_1" data-name="Layer 1"><polygon class="cls-2" points="331.63 230.9 216.6 230.9 216.6 315.01 266.5 315.01 266.5 335.49 286.98 315.01 331.63 315.01 331.63 230.9"/><rect class="cls-3" x="216.6" y="230.89" width="115.02" height="84.11"/><path class="cls-4" d="M274.06,281.6h-6.42c-.1.85-.36,2.38-.49,3a4.45,4.45,0,0,1,2.9-.85c3.16,0,4.93,2.28,4.93,5.32s-1.7,5.93-6,5.93c-3.16,0-5.47-1.63-5.83-4.47h3.48a2.3,2.3,0,0,0,2.43,1.8c1.65,0,2.45-1.22,2.45-3s-.61-2.87-2.45-2.87a2.29,2.29,0,0,0-2.46,1.61l-3.14-.41c.44-2,1.12-6.79,1.39-9h9.72Z"/><path class="cls-4" d="M286.6,283.06c0,2.72-1.58,4.62-4.32,4.62-2.58,0-4.31-1.58-4.31-4.62,0-2.58,1.53-4.6,4.33-4.6C284.83,278.46,286.6,280,286.6,283.06Zm-5.93,0c0,1.58.58,2.43,1.65,2.43s1.66-.76,1.66-2.43-.68-2.41-1.68-2.41S280.67,281.43,280.67,283.06Zm1.58,11.69,9.82-16h2.56l-9.85,16Zm16.66-4.33c0,2.75-1.59,4.65-4.33,4.65s-4.31-1.61-4.31-4.62c0-2.58,1.51-4.6,4.33-4.6C297.13,285.85,298.91,287.41,298.91,290.42Zm-6,0c0,1.58.58,2.46,1.65,2.46s1.68-.78,1.68-2.46S295.6,288,294.6,288,293,288.82,293,290.42Z"/><polygon class="cls-4" points="243.2 294.05 250.97 280.59 235.43 280.59 243.2 294.05"/><path class="cls-5" d="M265.66,268.73V256a11.66,11.66,0,0,1-3.08.75V254a7.85,7.85,0,0,0,4.22-2.31h2.64v17.06Z"/><path class="cls-5" d="M282,268.73V264.9h-7.68v-3.24l7.09-10h4v10.2h2.07l-.36,3h-1.71v3.83Zm0-9.86c0-1.84,0-2.87.08-3.94a74.58,74.58,0,0,1-4.5,7H282Z"/><path class="cls-5" d="M299.23,256.28c0,2.9-1.69,4.92-4.61,4.92-2.74,0-4.58-1.68-4.58-4.92,0-2.74,1.63-4.89,4.61-4.89C297.34,251.39,299.23,253,299.23,256.28Zm-6.32,0c0,1.68.62,2.59,1.76,2.59s1.76-.8,1.76-2.59-.72-2.56-1.78-2.56S292.91,254.55,292.91,256.28Zm1.68,12.45,10.46-17.06h2.72l-10.49,17.06Zm17.73-4.61c0,2.93-1.68,4.95-4.6,4.95s-4.59-1.71-4.59-4.92c0-2.74,1.61-4.89,4.61-4.89C310.43,259.26,312.32,260.91,312.32,264.12Zm-6.34,0c0,1.69.62,2.62,1.76,2.62s1.79-.83,1.79-2.62-.73-2.53-1.79-2.53S306,262.41,306,264.12Z"/><polygon class="cls-5" points="243.71 252.31 235.43 266.64 251.98 266.64 243.71 252.31"/><rect class="cls-6" x="216.6" y="230.89" width="27.1" height="32.71"/><rect class="cls-7" x="234.07" y="99.99" width="140.93" height="117.16"/><path class="cls-8" d="M229,199a1,1,0,0,1-.95-.68,1,1,0,0,1,.63-1.27l12.72-4.25a1,1,0,0,1,.84.09l2.86,1.75,6-3.81a1,1,0,0,1,1,0L256,193l4-3.93,4.65-18.33a1,1,0,0,1,.79-.74,1,1,0,0,1,1,.42l3.17,4.7,3.79-3.68,3.07-7.06a1,1,0,0,1,.75-.59,1,1,0,0,1,.91.31l5.63,6.12,4.41-10a1,1,0,0,1,1.33-.51l2.3,1.05,2.45-10.64,2.58-23.72a1,1,0,0,1,1-.89,1,1,0,0,1,1,.85l2.75,18.8,1.11-2.52a1,1,0,0,1,.84-.59,1,1,0,0,1,.92.46l.43.68,1.39-5.06a1,1,0,0,1,1.94,0l2,8.79a.68.68,0,0,0,0,.14l.81,9.76,1.68-4.84a1,1,0,0,1,.87-.66,1,1,0,0,1,1,.53l3.82,7.31,3.06-8.23a1,1,0,0,1,.28-.41l1.55-1.34,1.95-8A1,1,0,0,1,327,141l4.4,6.2a1,1,0,0,1,.17.44l1,6.85,2.26-4.09a1,1,0,0,1,1-.51,1,1,0,0,1,.85.7l1.11,3.69,1.21-1.05a1,1,0,0,1,.89-.22,1,1,0,0,1,.69.59l1.44,3.49.71-1,2.48-5.59a1,1,0,0,1,.8-.59,1,1,0,0,1,.92.39l3,4.07,1-1.46a1,1,0,0,1,1.44-.2l4.49,3.62a1,1,0,0,1-1.25,1.55L352,154.87l-1.21,1.72a1,1,0,0,1-.81.42,1,1,0,0,1-.81-.4l-2.83-3.8-1.83,4.12a.91.91,0,0,1-.09.17l-1.83,2.59a1,1,0,0,1-.93.42,1,1,0,0,1-.81-.62l-1.6-3.88-1.33,1.16a1,1,0,0,1-.94.2,1,1,0,0,1-.67-.67l-.87-2.89L332.84,158a1,1,0,0,1-1.87-.34l-1.35-9.58-3-4.22-1.51,6.15a.94.94,0,0,1-.31.51l-1.6,1.39L319.47,162a1,1,0,0,1-.88.65,1,1,0,0,1-.95-.53l-3.79-7.25L311.39,162a1,1,0,0,1-1.94-.24l-1.21-14.4-1.1-4.84-.93,3.4a1,1,0,0,1-.82.72,1,1,0,0,1-1-.45l-.64-1-1.76,4a1,1,0,0,1-1.9-.26L298,134.46l-1.74,16a.5.5,0,0,1,0,.12l-2.74,11.89a1,1,0,0,1-1.38.68L289.62,162,285,172.44a1,1,0,0,1-.76.58,1,1,0,0,1-.89-.31l-5.64-6.11-2.53,5.83a1,1,0,0,1-.22.32l-4.79,4.65a1,1,0,0,1-.8.28,1,1,0,0,1-.72-.43l-2.59-3.84-4.17,16.45a1,1,0,0,1-.27.47L256.83,195a1,1,0,0,1-1.19.15l-4-2.29-6,3.82a1,1,0,0,1-1.06,0l-3-1.83L229.32,199A1.19,1.19,0,0,1,229,199Z"/><polygon class="cls-2" points="454.48 182.1 344.36 182.1 344.36 252.06 367.71 252.06 367.71 268.91 384.56 252.06 454.48 252.06 454.48 182.1"/><polygon class="cls-9" points="454.48 182.1 344.36 182.1 344.36 252.06 367.71 252.06 367.71 268.91 384.56 252.06 454.48 252.06 454.48 182.1"/><rect class="cls-5" x="359.07" y="204.61" width="80.7" height="6.01"/><rect class="cls-4" x="359.07" y="204.61" width="58.87" height="6.01"/><rect class="cls-5" x="359.07" y="224.04" width="80.7" height="6.01"/><rect class="cls-4" x="359.07" y="224.04" width="35.11" height="6.01"/><polygon class="cls-8" points="234.07 48 99.44 48 99.44 197.05 99.44 253.61 139.24 253.61 180.9 253.61 200.51 273.22 200.51 253.61 234.07 253.61 234.07 48"/><polygon class="cls-10" points="234.07 48 99.44 48 99.44 197.05 99.44 253.61 139.24 253.61 180.9 253.61 200.51 273.22 200.51 253.61 234.07 253.61 234.07 48"/><rect class="cls-11" x="111.6" y="100.99" width="110.3" height="60.28"/><g class="cls-12"><rect class="cls-4" x="111.7" y="173.54" width="94.82" height="5.64"/><rect class="cls-4" x="111.7" y="187.09" width="103.21" height="5.64"/><rect class="cls-4" x="111.7" y="200.63" width="94.82" height="5.64"/><rect class="cls-4" x="111.7" y="214.18" width="79.02" height="5.64"/></g><rect class="cls-13" x="146.06" y="68.63" width="63.19" height="12.72"/><circle class="cls-14" cx="123.38" cy="74.99" r="11.68"/><rect class="cls-15" x="234.07" y="99.99" width="9.64" height="117.16"/><rect class="cls-16" x="127.36" y="214.16" width="12.89" height="39.43"/><rect class="cls-4" x="56.65" y="214.18" width="73.97" height="73.97"/><path class="cls-8" d="M93.63,229.2a22,22,0,0,0-.69,43.91l.69,0a22,22,0,1,0,0-43.94Zm18.09,20.07h-5.43a30.45,30.45,0,0,0-3.79-14A18.23,18.23,0,0,1,111.72,249.27Zm-20-15.81v15.81h-7C85.19,241,88.33,235.09,91.74,233.46Zm0,19.6v15.82c-3.41-1.64-6.55-7.53-7-15.82Zm3.79,15.82V253.06h7C102.08,261.35,98.93,267.24,95.53,268.88Zm0-19.61V233.46c3.4,1.63,6.55,7.52,7,15.81Zm-10.76-14a30.32,30.32,0,0,0-3.79,14H75.55A18.23,18.23,0,0,1,84.77,235.3Zm-9.22,17.76H81a30.25,30.25,0,0,0,3.79,14,17.82,17.82,0,0,1-3.25-2.29A18.2,18.2,0,0,1,75.55,253.06Zm27,14a30.45,30.45,0,0,0,3.79-14h5.43A18.19,18.19,0,0,1,102.5,267Z"/></g></g></svg>