<svg xmlns="http://www.w3.org/2000/svg" xmlns:xlink="http://www.w3.org/1999/xlink" viewBox="0 0 500 360"><defs><style>.cls-1{isolation:isolate;}.cls-2{fill:#fff;}.cls-3{fill:#ebf4ff;opacity:0.23;}.cls-14,.cls-15,.cls-21,.cls-3,.cls-4,.cls-7{mix-blend-mode:multiply;}.cls-14,.cls-4,.cls-7{opacity:0.7;}.cls-4{fill:url(#linear-gradient);}.cls-11,.cls-12,.cls-5,.cls-9{fill:#0059ff;}.cls-5{opacity:0.1;}.cls-6{fill:#97bcff;}.cls-12,.cls-15,.cls-25,.cls-6,.cls-8{opacity:0.5;}.cls-7{fill:url(#linear-gradient-2);}.cls-13,.cls-8{fill:#a6c8ff;}.cls-9{opacity:0.2;}.cls-10,.cls-24{fill:#17e0b9;}.cls-14{fill:url(#linear-gradient-3);}.cls-15{fill:url(#linear-gradient-4);}.cls-16{fill:url(#linear-gradient-5);}.cls-17{fill:url(#linear-gradient-6);}.cls-18{fill:url(#linear-gradient-7);}.cls-19{fill:url(#linear-gradient-8);}.cls-20{fill:url(#linear-gradient-9);}.cls-21{opacity:0.6;fill:url(#linear-gradient-10);}.cls-22{fill:url(#linear-gradient-11);}.cls-23{fill:url(#linear-gradient-12);}.cls-24{opacity:0.25;}.cls-25{fill:#bbd7ff;}</style><linearGradient id="linear-gradient" x1="404.85" y1="208.61" x2="437.25" y2="208.61" gradientUnits="userSpaceOnUse"><stop offset="0" stop-color="#c0d8ff" stop-opacity="0"/><stop offset="1" stop-color="#0059ff" stop-opacity="0.6"/></linearGradient><linearGradient id="linear-gradient-2" x1="279.23" y1="208.61" x2="311.64" y2="208.61" xlink:href="#linear-gradient"/><linearGradient id="linear-gradient-3" x1="379.13" y1="195.57" x2="382.84" y2="186.91" xlink:href="#linear-gradient"/><linearGradient id="linear-gradient-4" x1="211" y1="273.48" x2="211" y2="52.85" gradientUnits="userSpaceOnUse"><stop offset="0" stop-color="#c0d8ff" stop-opacity="0.5"/><stop offset="1" stop-color="#0059ff" stop-opacity="0.6"/></linearGradient><linearGradient id="linear-gradient-5" x1="246.71" y1="826.84" x2="246.71" y2="27.27" gradientUnits="userSpaceOnUse"><stop offset="0" stop-color="#e3eeff"/><stop offset="0.2" stop-color="#e0ecff"/><stop offset="0.34" stop-color="#d7e6ff"/><stop offset="0.46" stop-color="#c7dcff"/><stop offset="0.57" stop-color="#b1cdff"/><stop offset="0.67" stop-color="#95bbff"/><stop offset="0.77" stop-color="#72a4ff"/><stop offset="0.87" stop-color="#4888ff"/><stop offset="0.96" stop-color="#196aff"/><stop offset="1" stop-color="#0059ff"/></linearGradient><linearGradient id="linear-gradient-6" x1="153.79" y1="372.31" x2="153.79" y2="-304.38" gradientUnits="userSpaceOnUse"><stop offset="0.25" stop-color="#fff" stop-opacity="0.9"/><stop offset="0.38" stop-color="#fcfdff" stop-opacity="0.9"/><stop offset="0.49" stop-color="#f1f6ff" stop-opacity="0.91"/><stop offset="0.58" stop-color="#dfeaff" stop-opacity="0.91"/><stop offset="0.67" stop-color="#c5d9ff" stop-opacity="0.92"/><stop offset="0.75" stop-color="#a4c4ff" stop-opacity="0.94"/><stop offset="0.83" stop-color="#7ba9ff" stop-opacity="0.95"/><stop offset="0.9" stop-color="#4a89ff" stop-opacity="0.97"/><stop offset="0.98" stop-color="#1466ff" stop-opacity="0.99"/><stop offset="1" stop-color="#0059ff"/></linearGradient><linearGradient id="linear-gradient-7" x1="153.79" y1="183.15" x2="153.79" y2="-113.85" gradientUnits="userSpaceOnUse"><stop offset="0" stop-color="#0059ff" stop-opacity="0"/><stop offset="0.14" stop-color="#0059ff" stop-opacity="0.01"/><stop offset="0.27" stop-color="#0059ff" stop-opacity="0.06"/><stop offset="0.39" stop-color="#0059ff" stop-opacity="0.13"/><stop offset="0.51" stop-color="#0059ff" stop-opacity="0.23"/><stop offset="0.63" stop-color="#0059ff" stop-opacity="0.36"/><stop offset="0.74" stop-color="#0059ff" stop-opacity="0.53"/><stop offset="0.86" stop-color="#0059ff" stop-opacity="0.72"/><stop offset="0.97" stop-color="#0059ff" stop-opacity="0.93"/><stop offset="1" stop-color="#0059ff"/></linearGradient><linearGradient id="linear-gradient-8" x1="135.09" y1="224.12" x2="135.09" y2="281.53" gradientUnits="userSpaceOnUse"><stop offset="0" stop-color="#fff" stop-opacity="0.9"/><stop offset="0.11" stop-color="#f9fbff" stop-opacity="0.9"/><stop offset="0.24" stop-color="#e8f0ff" stop-opacity="0.91"/><stop offset="0.38" stop-color="#cbddff" stop-opacity="0.92"/><stop offset="0.54" stop-color="#a4c4ff" stop-opacity="0.94"/><stop offset="0.71" stop-color="#71a2ff" stop-opacity="0.96"/><stop offset="0.87" stop-color="#337aff" stop-opacity="0.98"/><stop offset="1" stop-color="#0059ff"/></linearGradient><linearGradient id="linear-gradient-9" x1="135.09" y1="237.99" x2="135.09" y2="306.26" gradientUnits="userSpaceOnUse"><stop offset="0" stop-color="#0059ff" stop-opacity="0"/><stop offset="0.21" stop-color="#0059ff" stop-opacity="0.28"/><stop offset="0.42" stop-color="#0059ff" stop-opacity="0.53"/><stop offset="0.61" stop-color="#0059ff" stop-opacity="0.73"/><stop offset="0.78" stop-color="#0059ff" stop-opacity="0.88"/><stop offset="0.91" stop-color="#0059ff" stop-opacity="0.97"/><stop offset="1" stop-color="#0059ff"/></linearGradient><linearGradient id="linear-gradient-10" x1="165.03" y1="101.88" x2="165.03" y2="67.2" gradientUnits="userSpaceOnUse"><stop offset="0" stop-color="#c0d8ff" stop-opacity="0"/><stop offset="0.23" stop-color="#99beff" stop-opacity="0.12"/><stop offset="0.74" stop-color="#367dff" stop-opacity="0.43"/><stop offset="1" stop-color="#0059ff" stop-opacity="0.6"/></linearGradient><linearGradient id="linear-gradient-11" x1="160.9" y1="173.32" x2="160.9" y2="30.18" gradientUnits="userSpaceOnUse"><stop offset="0" stop-color="#0059ff" stop-opacity="0"/><stop offset="0.21" stop-color="#0059ff" stop-opacity="0.01"/><stop offset="0.34" stop-color="#0059ff" stop-opacity="0.05"/><stop offset="0.46" stop-color="#0059ff" stop-opacity="0.1"/><stop offset="0.56" stop-color="#0059ff" stop-opacity="0.19"/><stop offset="0.65" stop-color="#0059ff" stop-opacity="0.3"/><stop offset="0.74" stop-color="#0059ff" stop-opacity="0.43"/><stop offset="0.83" stop-color="#0059ff" stop-opacity="0.59"/><stop offset="0.91" stop-color="#0059ff" stop-opacity="0.77"/><stop offset="0.99" stop-color="#0059ff" stop-opacity="0.97"/><stop offset="1" stop-color="#0059ff"/></linearGradient><linearGradient id="linear-gradient-12" x1="160.9" y1="285.53" x2="160.9" y2="-130.75" xlink:href="#linear-gradient-7"/></defs><title>Artboard 1</title><g class="cls-1"><g id="Layer_1" data-name="Layer 1"><rect class="cls-2" x="159.14" y="119.74" width="266.13" height="177.73"/><rect class="cls-3" x="159.14" y="119.74" width="266.13" height="177.73"/><rect class="cls-4" x="353.56" y="119.74" width="67.42" height="177.73"/><rect class="cls-5" x="170.93" y="130.44" width="114.04" height="55.4"/><rect class="cls-6" x="240.81" y="193.46" width="42.6" height="4.11"/><rect class="cls-6" x="240.81" y="202.16" width="42.6" height="4.11"/><rect class="cls-6" x="240.81" y="210.87" width="42.6" height="4.11"/><rect class="cls-6" x="240.81" y="219.57" width="42.6" height="4.11"/><rect class="cls-6" x="240.81" y="228.39" width="42.6" height="4.11"/><rect class="cls-6" x="240.81" y="237.1" width="42.6" height="4.11"/><rect class="cls-6" x="240.81" y="245.8" width="42.6" height="4.11"/><rect class="cls-6" x="240.81" y="254.5" width="42.6" height="4.11"/><rect class="cls-6" x="240.81" y="263.32" width="42.6" height="4.11"/><rect class="cls-6" x="240.81" y="272.03" width="42.6" height="4.11"/><rect class="cls-7" x="227.95" y="119.74" width="67.42" height="177.73"/><rect class="cls-8" x="223.09" y="166.48" width="7.69" height="19.38"/><rect class="cls-8" x="235.16" y="156.61" width="7.69" height="29.25"/><rect class="cls-8" x="247.24" y="163.38" width="7.69" height="22.47"/><rect class="cls-8" x="259.31" y="173.73" width="7.69" height="12.13"/><rect class="cls-8" x="271.39" y="166.48" width="7.69" height="19.38"/><polygon class="cls-9" points="425.27 119.75 425.27 297.48 159.14 297.48 159.14 304.05 431.84 304.05 431.84 119.75 425.27 119.75"/><rect class="cls-5" x="353.56" y="233.89" width="50.47" height="8.09"/><rect class="cls-5" x="353.56" y="246.22" width="45.31" height="8.09"/><path class="cls-10" d="M372.45,181.46a14.69,14.69,0,0,1-.63,4.21l20.39,6.17a35.87,35.87,0,0,0-22.49-44.22l-7,20.12A14.54,14.54,0,0,1,372.45,181.46Z"/><path class="cls-11" d="M357.9,196a14.55,14.55,0,1,1,0-29.09,14.35,14.35,0,0,1,4.79.83l7-20.12A35.85,35.85,0,1,0,378,211.07l-12-17.6A14.45,14.45,0,0,1,357.9,196Z"/><path class="cls-12" d="M392.21,191.84l-20.39-6.17a14.54,14.54,0,0,1-5.75,7.8l12,17.6A35.94,35.94,0,0,0,392.21,191.84Z"/><rect class="cls-11" x="318.7" y="270.32" width="80.63" height="3.42"/><circle class="cls-13" cx="318.7" cy="272.03" r="4.7"/><circle class="cls-13" cx="345.58" cy="272.03" r="4.7"/><circle class="cls-10" cx="372.45" cy="272.03" r="4.59"/><circle class="cls-13" cx="399.33" cy="272.03" r="4.7"/><circle class="cls-2" cx="318.7" cy="272.03" r="4.7"/><circle class="cls-2" cx="345.58" cy="272.03" r="4.7"/><circle class="cls-2" cx="399.33" cy="272.03" r="4.7"/><circle class="cls-9" cx="318.7" cy="272.03" r="4.7"/><circle class="cls-9" cx="345.58" cy="272.03" r="4.7"/><circle class="cls-9" cx="399.33" cy="272.03" r="4.7"/><path class="cls-14" d="M371.82,185.67l20.39,6.17a32.65,32.65,0,0,1-3.79,8.39l-18.49-10.61A14.89,14.89,0,0,0,371.82,185.67Z"/><rect class="cls-15" x="159.14" y="119.75" width="103.71" height="173.86"/><path class="cls-10" d="M371.73,141.92l-9,25.82a14.53,14.53,0,0,1,9.73,13.7,14.37,14.37,0,0,1-.63,4.22h0L398,193.58a41.91,41.91,0,0,0-26.23-51.66Z"/><rect class="cls-16" x="243.75" y="67.72" width="5.92" height="212.25"/><rect class="cls-2" x="77.61" y="67.72" width="166.14" height="212.25"/><rect class="cls-9" x="77.61" y="67.72" width="166.14" height="212.25"/><path class="cls-17" d="M220.72,262.93H70.43S84,260.53,84,246.59V59.46H237.14v187A16.42,16.42,0,0,1,220.72,262.93Z"/><path class="cls-18" d="M220.72,262.93H70.43S84,260.53,84,246.59V59.46H237.14v187A16.42,16.42,0,0,1,220.72,262.93Z"/><path class="cls-19" d="M219.86,262.93c-16.93,0-18.3-16.42-18.3-16.42H50.33s.3,16.42,19.24,16.42Z"/><path class="cls-20" d="M219.86,262.93c-16.93,0-18.3-16.42-18.3-16.42H50.33s.3,16.42,19.24,16.42Z"/><rect class="cls-21" x="120.81" y="59.46" width="88.44" height="23.2"/><rect class="cls-11" x="120.81" y="53.31" width="79.74" height="20.11"/><rect class="cls-22" x="104.93" y="99.02" width="111.94" height="8.54"/><rect class="cls-23" x="104.93" y="115.2" width="111.94" height="40.58"/><rect class="cls-10" x="314" y="233.89" width="8.06" height="8.06"/><rect class="cls-24" x="326.28" y="235.56" width="18.18" height="4.73"/><rect class="cls-25" x="326.28" y="247.9" width="18.18" height="4.73"/><rect class="cls-11" x="314" y="246.24" width="8.06" height="8.06"/><rect class="cls-25" x="129.95" y="168.55" width="86.34" height="7.11"/><rect class="cls-25" x="129.95" y="182.89" width="64.59" height="7.11"/><rect class="cls-10" x="106.34" y="168.55" width="14.23" height="14.23"/><polygon class="cls-2" points="111.95 179.15 109.04 176.24 110.11 175.17 111.95 177.02 116.79 172.18 117.86 173.25 111.95 179.15"/><rect class="cls-25" x="129.95" y="199.13" width="86.34" height="7.11"/><rect class="cls-25" x="129.95" y="213.47" width="64.59" height="7.11"/><rect class="cls-10" x="106.34" y="199.13" width="14.23" height="14.23"/><polygon class="cls-2" points="111.95 209.73 109.04 206.82 110.11 205.75 111.95 207.6 116.79 202.76 117.86 203.83 111.95 209.73"/></g></g></svg>