<svg xmlns="http://www.w3.org/2000/svg" viewBox="0 0 500 500"><g id="freepik--Shadow--inject-184"><ellipse id="freepik--path--inject-184" cx="250" cy="415.69" rx="193.89" ry="11.32" style="fill:#f5f5f5"></ellipse></g><g id="freepik--chart-2--inject-184"><rect x="217.2" y="242.7" width="66.02" height="173.73" style="fill:#0058FF"></rect><rect x="234.2" y="242.7" width="49.23" height="173.73" style="opacity:0.5"></rect><rect x="303.45" y="301.93" width="66.02" height="114.49" style="fill:#0058FF"></rect><rect x="320.24" y="301.66" width="49.23" height="114.77" style="opacity:0.30000000000000004"></rect><rect x="130.53" y="273.68" width="66.02" height="142.74" style="fill:#0058FF"></rect><rect x="147.32" y="273.33" width="49.23" height="143.09" style="opacity:0.4"></rect></g><g id="freepik--Coins--inject-184"><path d="M156.23,416.61c-.09,2.13,6.64,4.14,15,4.5s15.27-1.08,15.36-3.21-6.64-4.13-15-4.49S156.32,414.49,156.23,416.61Z" style="fill:#0058FF"></path><rect x="169.58" y="400.13" width="3.85" height="30.42" transform="translate(-250.73 569.06) rotate(-87.57)" style="fill:#0058FF"></rect><path d="M156.39,412.76c-.09,2.13,6.64,4.14,15,4.5s15.27-1.08,15.36-3.21-6.64-4.13-15-4.49S156.48,410.64,156.39,412.76Z" style="fill:#0058FF"></path><path d="M156.39,412.76c-.09,2.13,6.64,4.14,15,4.5s15.27-1.08,15.36-3.21-6.64-4.13-15-4.49S156.48,410.64,156.39,412.76Z" style="fill:#fff;opacity:0.4"></path><path d="M158.33,412.7a.62.62,0,0,0,.13.38c1-1.25,6.57-2,13.21-1.71s12.13,1.49,13,2.82a.54.54,0,0,0,.16-.37c.06-1.44-5.82-2.88-13.15-3.19S158.39,411.26,158.33,412.7Z" style="fill:#0058FF"></path><path d="M158.33,412.7a.62.62,0,0,0,.13.38c1-1.25,6.57-2,13.21-1.71s12.13,1.49,13,2.82a.54.54,0,0,0,.16-.37c.06-1.44-5.82-2.88-13.15-3.19S158.39,411.26,158.33,412.7Z" style="fill:#0058FF;opacity:0.4"></path><path d="M158.46,413.08c.91,1.33,6.38,2.53,13,2.81s12.21-.45,13.21-1.7c-.89-1.33-6.36-2.53-13-2.82S159.48,411.83,158.46,413.08Z" style="fill:#0058FF;opacity:0.4"></path><path d="M153,410.78c-.09,2.13,6.64,4.14,15,4.5s15.27-1.08,15.36-3.2-6.64-4.14-15-4.5S153.13,408.66,153,410.78Z" style="fill:#0058FF"></path><rect x="166.39" y="394.3" width="3.85" height="30.42" transform="translate(-247.96 560.31) rotate(-87.57)" style="fill:#0058FF"></rect><path d="M153.2,406.94c-.09,2.12,6.64,4.13,15,4.49s15.27-1.08,15.36-3.2-6.64-4.14-15-4.5S153.29,404.81,153.2,406.94Z" style="fill:#0058FF"></path><path d="M153.2,406.94c-.09,2.12,6.64,4.13,15,4.49s15.27-1.08,15.36-3.2-6.64-4.14-15-4.5S153.29,404.81,153.2,406.94Z" style="fill:#fff;opacity:0.4"></path><path d="M155.14,406.87a.57.57,0,0,0,.13.38c1-1.25,6.57-2,13.21-1.7s12.13,1.48,13,2.81a.62.62,0,0,0,.16-.36c.06-1.44-5.82-2.89-13.15-3.2S155.2,405.43,155.14,406.87Z" style="fill:#0058FF"></path><path d="M155.14,406.87a.57.57,0,0,0,.13.38c1-1.25,6.57-2,13.21-1.7s12.13,1.48,13,2.81a.62.62,0,0,0,.16-.36c.06-1.44-5.82-2.89-13.15-3.2S155.2,405.43,155.14,406.87Z" style="fill:#0058FF;opacity:0.4"></path><path d="M155.27,407.25c.9,1.33,6.38,2.53,13,2.81s12.21-.45,13.21-1.7c-.89-1.33-6.36-2.53-13-2.81S156.28,406,155.27,407.25Z" style="fill:#0058FF;opacity:0.4"></path><path d="M153.45,403.76c-.09,2.13,6.64,4.14,15,4.5s15.27-1.08,15.36-3.21-6.64-4.13-15-4.49S153.54,401.64,153.45,403.76Z" style="fill:#0058FF"></path><rect x="166.8" y="387.28" width="3.85" height="30.42" transform="translate(-240.55 553.99) rotate(-87.57)" style="fill:#0058FF"></rect><path d="M153.61,399.91c-.09,2.13,6.64,4.14,15,4.5s15.26-1.08,15.35-3.2-6.64-4.14-15-4.5S153.7,397.79,153.61,399.91Z" style="fill:#0058FF"></path><path d="M153.61,399.91c-.09,2.13,6.64,4.14,15,4.5s15.26-1.08,15.35-3.2-6.64-4.14-15-4.5S153.7,397.79,153.61,399.91Z" style="fill:#fff;opacity:0.4"></path><path d="M155.55,399.85a.62.62,0,0,0,.13.38c1-1.25,6.57-2,13.21-1.7s12.13,1.48,13,2.81a.52.52,0,0,0,.16-.36c.06-1.44-5.82-2.89-13.15-3.2S155.61,398.41,155.55,399.85Z" style="fill:#0058FF"></path><path d="M155.55,399.85a.62.62,0,0,0,.13.38c1-1.25,6.57-2,13.21-1.7s12.13,1.48,13,2.81a.52.52,0,0,0,.16-.36c.06-1.44-5.82-2.89-13.15-3.2S155.61,398.41,155.55,399.85Z" style="fill:#0058FF;opacity:0.4"></path><path d="M155.68,400.23c.91,1.33,6.38,2.53,13,2.81s12.21-.45,13.21-1.7c-.89-1.33-6.36-2.53-13-2.81S156.7,399,155.68,400.23Z" style="fill:#0058FF;opacity:0.4"></path><path d="M150.26,397.94c-.09,2.12,6.64,4.13,15,4.49s15.27-1.08,15.36-3.2-6.64-4.14-15-4.5S150.35,395.81,150.26,397.94Z" style="fill:#0058FF"></path><rect x="163.61" y="381.45" width="3.85" height="30.42" transform="translate(-237.79 545.2) rotate(-87.57)" style="fill:#0058FF"></rect><path d="M150.42,394.09c-.09,2.12,6.64,4.13,15,4.49s15.27-1.08,15.36-3.2-6.64-4.14-15-4.5S150.51,392,150.42,394.09Z" style="fill:#0058FF"></path><path d="M150.42,394.09c-.09,2.12,6.64,4.13,15,4.49s15.27-1.08,15.36-3.2-6.64-4.14-15-4.5S150.51,392,150.42,394.09Z" style="fill:#fff;opacity:0.4"></path><path d="M152.36,394a.55.55,0,0,0,.13.38c1-1.25,6.57-2,13.21-1.7s12.13,1.48,13,2.81a.62.62,0,0,0,.16-.36c.06-1.44-5.82-2.89-13.15-3.2S152.42,392.58,152.36,394Z" style="fill:#0058FF"></path><path d="M152.36,394a.55.55,0,0,0,.13.38c1-1.25,6.57-2,13.21-1.7s12.13,1.48,13,2.81a.62.62,0,0,0,.16-.36c.06-1.44-5.82-2.89-13.15-3.2S152.42,392.58,152.36,394Z" style="fill:#0058FF;opacity:0.4"></path><path d="M152.49,394.4c.9,1.33,6.38,2.53,13,2.81s12.21-.45,13.21-1.7c-.89-1.33-6.36-2.53-13-2.81S153.5,393.15,152.49,394.4Z" style="fill:#0058FF;opacity:0.4"></path><path d="M155.13,393c-.09,2.12,6.64,4.13,15,4.49s15.27-1.08,15.36-3.2-6.64-4.14-15-4.5S155.22,390.87,155.13,393Z" style="fill:#0058FF"></path><rect x="168.48" y="376.51" width="3.85" height="30.42" transform="translate(-228.18 545.36) rotate(-87.57)" style="fill:#0058FF"></rect><path d="M155.3,389.15c-.09,2.12,6.64,4.13,15,4.49s15.27-1.08,15.36-3.2-6.64-4.14-15-4.5S155.39,387,155.3,389.15Z" style="fill:#0058FF"></path><path d="M155.3,389.15c-.09,2.12,6.64,4.13,15,4.49s15.27-1.08,15.36-3.2-6.64-4.14-15-4.5S155.39,387,155.3,389.15Z" style="fill:#fff;opacity:0.4"></path><path d="M157.23,389.08a.67.67,0,0,0,.13.38c1-1.25,6.58-2,13.21-1.7s12.14,1.48,13,2.81a.58.58,0,0,0,.17-.36c.06-1.44-5.82-2.89-13.15-3.2S157.3,387.64,157.23,389.08Z" style="fill:#0058FF"></path><path d="M157.23,389.08a.67.67,0,0,0,.13.38c1-1.25,6.58-2,13.21-1.7s12.14,1.48,13,2.81a.58.58,0,0,0,.17-.36c.06-1.44-5.82-2.89-13.15-3.2S157.3,387.64,157.23,389.08Z" style="fill:#0058FF;opacity:0.4"></path><path d="M157.36,389.46c.91,1.33,6.38,2.53,13,2.81s12.22-.45,13.21-1.7c-.88-1.33-6.36-2.53-13-2.81S158.38,388.21,157.36,389.46Z" style="fill:#0058FF;opacity:0.4"></path><path d="M151.94,387.17c-.09,2.12,6.64,4.14,15,4.49s15.27-1.08,15.36-3.2-6.64-4.14-15-4.5S152,385,151.94,387.17Z" style="fill:#0058FF"></path><rect x="165.29" y="370.68" width="3.85" height="30.42" transform="translate(-225.42 536.58) rotate(-87.57)" style="fill:#0058FF"></rect><path d="M152.1,383.32c-.09,2.12,6.64,4.14,15,4.49s15.27-1.07,15.36-3.2-6.64-4.14-15-4.5S152.19,381.19,152.1,383.32Z" style="fill:#0058FF"></path><path d="M152.1,383.32c-.09,2.12,6.64,4.14,15,4.49s15.27-1.07,15.36-3.2-6.64-4.14-15-4.5S152.19,381.19,152.1,383.32Z" style="fill:#fff;opacity:0.4"></path><path d="M154,383.25a.58.58,0,0,0,.13.38c1-1.25,6.57-2,13.21-1.7s12.13,1.48,13,2.82a.56.56,0,0,0,.16-.37c.06-1.44-5.82-2.88-13.15-3.2S154.1,381.81,154,383.25Z" style="fill:#0058FF"></path><path d="M154,383.25a.58.58,0,0,0,.13.38c1-1.25,6.57-2,13.21-1.7s12.13,1.48,13,2.82a.56.56,0,0,0,.16-.37c.06-1.44-5.82-2.88-13.15-3.2S154.1,381.81,154,383.25Z" style="fill:#0058FF;opacity:0.4"></path><path d="M154.17,383.63c.91,1.33,6.38,2.53,13,2.82s12.21-.45,13.21-1.7c-.89-1.34-6.36-2.54-13-2.82S155.19,382.38,154.17,383.63Z" style="fill:#0058FF;opacity:0.4"></path><path d="M110.91,414.75c-.1,2.13,6.63,4.14,15,4.49s15.26-1.07,15.35-3.2-6.63-4.14-15-4.49S111,412.62,110.91,414.75Z" style="fill:#0058FF"></path><rect x="124.26" y="398.26" width="3.85" height="30.42" transform="translate(-292.27 521.99) rotate(-87.57)" style="fill:#0058FF"></rect><path d="M111.07,410.9c-.09,2.13,6.64,4.14,15,4.5s15.27-1.08,15.36-3.21-6.64-4.14-15-4.49S111.16,408.77,111.07,410.9Z" style="fill:#0058FF"></path><path d="M111.07,410.9c-.09,2.13,6.64,4.14,15,4.5s15.27-1.08,15.36-3.21-6.64-4.14-15-4.49S111.16,408.77,111.07,410.9Z" style="fill:#fff;opacity:0.4"></path><path d="M113,410.83a.53.53,0,0,0,.13.38c1-1.25,6.57-2,13.21-1.7s12.13,1.49,13,2.82a.65.65,0,0,0,.16-.37c.06-1.44-5.82-2.88-13.15-3.19S113.07,409.39,113,410.83Z" style="fill:#0058FF"></path><path d="M113,410.83a.53.53,0,0,0,.13.38c1-1.25,6.57-2,13.21-1.7s12.13,1.49,13,2.82a.65.65,0,0,0,.16-.37c.06-1.44-5.82-2.88-13.15-3.19S113.07,409.39,113,410.83Z" style="fill:#0058FF;opacity:0.4"></path><path d="M113.14,411.21c.9,1.33,6.38,2.54,13,2.82s12.21-.45,13.21-1.7c-.89-1.33-6.36-2.54-13-2.82S114.15,410,113.14,411.21Z" style="fill:#0058FF;opacity:0.4"></path><path d="M124.13,411c-.5,2.07,5.73,5.32,13.9,7.26s15.2,1.84,15.69-.23-5.74-5.32-13.91-7.26S124.62,408.93,124.13,411Z" style="fill:#0058FF"></path><rect x="137.44" y="397.43" width="3.85" height="30.42" transform="translate(-294.32 452.76) rotate(-76.62)" style="fill:#0058FF"></rect><path d="M125,407.25c-.5,2.07,5.73,5.32,13.9,7.27s15.2,1.84,15.69-.23S148.88,409,140.7,407,125.51,405.18,125,407.25Z" style="fill:#0058FF"></path><path d="M125,407.25c-.5,2.07,5.73,5.32,13.9,7.27s15.2,1.84,15.69-.23S148.88,409,140.7,407,125.51,405.18,125,407.25Z" style="fill:#fff;opacity:0.4"></path><path d="M126.93,407.55a.57.57,0,0,0,.06.4c1.23-1,6.83-.7,13.29.84s11.63,3.76,12.25,5.23a.59.59,0,0,0,.23-.33c.33-1.4-5.17-3.93-12.31-5.63S127.27,406.15,126.93,407.55Z" style="fill:#0058FF"></path><path d="M126.93,407.55a.57.57,0,0,0,.06.4c1.23-1,6.83-.7,13.29.84s11.63,3.76,12.25,5.23a.59.59,0,0,0,.23-.33c.33-1.4-5.17-3.93-12.31-5.63S127.27,406.15,126.93,407.55Z" style="fill:#0058FF;opacity:0.4"></path><path d="M127,408c.64,1.48,5.78,3.7,12.25,5.23s12.07,1.88,13.29.84c-.62-1.47-5.77-3.69-12.25-5.23S128.22,406.91,127,408Z" style="fill:#0058FF;opacity:0.4"></path><circle cx="162.7" cy="372.2" r="13.7" style="fill:#0058FF"></circle><circle cx="164.34" cy="372.2" r="13.7" style="fill:#0058FF"></circle><circle cx="164.34" cy="372.2" r="13.7" style="fill:#fff;opacity:0.5"></circle><circle cx="164.34" cy="372.2" r="10.26" transform="translate(-215.05 225.22) rotate(-45)" style="fill:#0058FF"></circle><path d="M168.49,375.59a4.27,4.27,0,0,1-3.21,1.3A4.46,4.46,0,0,1,161,374.1h5.52v-1.18H160.7a4.89,4.89,0,0,1,0-.54,4.75,4.75,0,0,1,0-.54h5.81v-1.18H161a4.46,4.46,0,0,1,4.29-2.79,4.27,4.27,0,0,1,3.21,1.29l.16.16,1.11-1.09-.15-.16a5.8,5.8,0,0,0-4.39-1.74,6,6,0,0,0-6,4.33h-1.95v1.18H159c0,.18,0,.36,0,.54s0,.36,0,.54h-1.74v1.18h1.95a6,6,0,0,0,6,4.33,5.81,5.81,0,0,0,4.39-1.76l.15-.16-1.11-1.09Z" style="fill:#fff;opacity:0.30000000000000004"></path><path d="M356.27,418.49c-.08,2.12-6.94,3.6-15.34,3.3s-15.13-2.27-15.06-4.39,6.95-3.61,15.34-3.31S356.35,416.36,356.27,418.49Z" style="fill:#0058FF"></path><rect x="339.22" y="400.81" width="3.85" height="30.42" transform="translate(-86.83 742.03) rotate(-87.95)" style="fill:#0058FF"></rect><path d="M356.41,414.64c-.08,2.12-6.94,3.6-15.34,3.3s-15.13-2.27-15.06-4.39,6.94-3.61,15.34-3.31S356.49,412.51,356.41,414.64Z" style="fill:#0058FF"></path><path d="M356.41,414.64c-.08,2.12-6.94,3.6-15.34,3.3s-15.13-2.27-15.06-4.39,6.94-3.61,15.34-3.31S356.49,412.51,356.41,414.64Z" style="fill:#fff;opacity:0.4"></path><path d="M354.48,414.42a.56.56,0,0,1-.16.37c-.91-1.33-6.39-2.5-13-2.73s-12.21.53-13.2,1.78a.59.59,0,0,1-.14-.37c.06-1.44,6-2.42,13.36-2.16S354.53,413,354.48,414.42Z" style="fill:#0058FF"></path><path d="M354.48,414.42a.56.56,0,0,1-.16.37c-.91-1.33-6.39-2.5-13-2.73s-12.21.53-13.2,1.78a.59.59,0,0,1-.14-.37c.06-1.44,6-2.42,13.36-2.16S354.53,413,354.48,414.42Z" style="fill:#0058FF;opacity:0.4"></path><path d="M354.32,414.79c-1,1.25-6.56,2-13.2,1.78s-12.14-1.4-13-2.73c1-1.25,6.54-2,13.2-1.78S353.41,413.46,354.32,414.79Z" style="fill:#0058FF;opacity:0.4"></path><path d="M359.91,412.93c-.08,2.12-6.94,3.6-15.34,3.3s-15.13-2.27-15.06-4.4,6.95-3.6,15.34-3.3S360,410.8,359.91,412.93Z" style="fill:#0058FF"></path><rect x="342.85" y="395.25" width="3.85" height="30.42" transform="translate(-77.79 740.28) rotate(-87.94)" style="fill:#0058FF"></rect><path d="M360.05,409.08c-.08,2.12-6.94,3.6-15.34,3.3s-15.14-2.27-15.06-4.4,6.94-3.6,15.34-3.3S360.12,407,360.05,409.08Z" style="fill:#0058FF"></path><path d="M360.05,409.08c-.08,2.12-6.94,3.6-15.34,3.3s-15.14-2.27-15.06-4.4,6.94-3.6,15.34-3.3S360.12,407,360.05,409.08Z" style="fill:#fff;opacity:0.4"></path><path d="M358.12,408.86a.52.52,0,0,1-.16.36c-.91-1.32-6.39-2.49-13-2.72s-12.22.53-13.2,1.78a.59.59,0,0,1-.14-.37c.06-1.44,6-2.42,13.36-2.16S358.17,407.42,358.12,408.86Z" style="fill:#0058FF"></path><path d="M358.12,408.86a.52.52,0,0,1-.16.36c-.91-1.32-6.39-2.49-13-2.72s-12.22.53-13.2,1.78a.59.59,0,0,1-.14-.37c.06-1.44,6-2.42,13.36-2.16S358.17,407.42,358.12,408.86Z" style="fill:#0058FF;opacity:0.4"></path><path d="M358,409.22c-1,1.26-6.56,2-13.2,1.79s-12.14-1.4-13-2.73c1-1.25,6.54-2,13.2-1.78S357.05,407.9,358,409.22Z" style="fill:#0058FF;opacity:0.4"></path><path d="M360.05,405.89c-.08,2.13-6.95,3.61-15.34,3.31s-15.14-2.27-15.06-4.4,6.94-3.6,15.34-3.3S360.12,403.77,360.05,405.89Z" style="fill:#0058FF"></path><rect x="342.99" y="388.21" width="3.85" height="30.42" transform="translate(-70.63 733.64) rotate(-87.94)" style="fill:#0058FF"></rect><path d="M360.19,402c-.08,2.13-6.95,3.61-15.34,3.31s-15.14-2.27-15.06-4.4,6.94-3.6,15.33-3.3S360.26,399.92,360.19,402Z" style="fill:#0058FF"></path><path d="M360.19,402c-.08,2.13-6.95,3.61-15.34,3.31s-15.14-2.27-15.06-4.4,6.94-3.6,15.33-3.3S360.26,399.92,360.19,402Z" style="fill:#fff;opacity:0.4"></path><path d="M358.26,401.83a.62.62,0,0,1-.16.36c-.92-1.32-6.4-2.49-13-2.73s-12.21.53-13.2,1.79a.58.58,0,0,1-.13-.38c0-1.44,6-2.41,13.36-2.15S358.31,400.39,358.26,401.83Z" style="fill:#0058FF"></path><path d="M358.26,401.83a.62.62,0,0,1-.16.36c-.92-1.32-6.4-2.49-13-2.73s-12.21.53-13.2,1.79a.58.58,0,0,1-.13-.38c0-1.44,6-2.41,13.36-2.15S358.31,400.39,358.26,401.83Z" style="fill:#0058FF;opacity:0.4"></path><path d="M358.1,402.19c-1,1.26-6.56,2-13.2,1.79s-12.14-1.4-13-2.73c1-1.26,6.54-2,13.2-1.79S357.18,400.87,358.1,402.19Z" style="fill:#0058FF;opacity:0.4"></path><path d="M363.69,400.33c-.08,2.13-6.95,3.61-15.34,3.31s-15.14-2.27-15.06-4.4,6.94-3.6,15.34-3.3S363.76,398.21,363.69,400.33Z" style="fill:#0058FF"></path><rect x="346.63" y="382.65" width="3.85" height="30.42" transform="translate(-61.54 731.94) rotate(-87.95)" style="fill:#0058FF"></rect><path d="M363.82,396.48c-.07,2.13-6.94,3.61-15.33,3.31s-15.14-2.27-15.06-4.4,6.94-3.6,15.33-3.3S363.9,394.36,363.82,396.48Z" style="fill:#0058FF"></path><path d="M363.82,396.48c-.07,2.13-6.94,3.61-15.33,3.31s-15.14-2.27-15.06-4.4,6.94-3.6,15.33-3.3S363.9,394.36,363.82,396.48Z" style="fill:#fff;opacity:0.4"></path><path d="M361.9,396.27a.62.62,0,0,1-.16.36c-.92-1.32-6.4-2.49-13-2.73s-12.21.53-13.2,1.79a.58.58,0,0,1-.13-.38c.05-1.44,6-2.41,13.36-2.15S362,394.83,361.9,396.27Z" style="fill:#0058FF"></path><path d="M361.9,396.27a.62.62,0,0,1-.16.36c-.92-1.32-6.4-2.49-13-2.73s-12.21.53-13.2,1.79a.58.58,0,0,1-.13-.38c.05-1.44,6-2.41,13.36-2.15S362,394.83,361.9,396.27Z" style="fill:#0058FF;opacity:0.4"></path><path d="M361.74,396.63c-1,1.26-6.56,2-13.2,1.79s-12.14-1.4-13-2.73c1-1.26,6.54-2,13.2-1.79S360.82,395.31,361.74,396.63Z" style="fill:#0058FF;opacity:0.4"></path><path d="M243,414.21c-.09,2.13,6.63,4.14,15,4.5s15.26-1.08,15.35-3.21-6.63-4.14-15-4.49S243.06,412.09,243,414.21Z" style="fill:#0058FF"></path><rect x="256.32" y="397.72" width="3.85" height="30.42" transform="translate(-165.28 653.42) rotate(-87.57)" style="fill:#0058FF"></rect><path d="M243.13,410.36c-.09,2.13,6.64,4.14,15,4.5s15.27-1.08,15.36-3.21-6.64-4.14-15-4.49S243.22,408.24,243.13,410.36Z" style="fill:#0058FF"></path><path d="M243.13,410.36c-.09,2.13,6.64,4.14,15,4.5s15.27-1.08,15.36-3.21-6.64-4.14-15-4.49S243.22,408.24,243.13,410.36Z" style="fill:#fff;opacity:0.4"></path><path d="M245.07,410.3a.53.53,0,0,0,.13.37c1-1.25,6.57-2,13.21-1.7s12.13,1.49,13,2.82a.65.65,0,0,0,.16-.37c.06-1.44-5.82-2.88-13.15-3.19S245.13,408.86,245.07,410.3Z" style="fill:#0058FF"></path><path d="M245.07,410.3a.53.53,0,0,0,.13.37c1-1.25,6.57-2,13.21-1.7s12.13,1.49,13,2.82a.65.65,0,0,0,.16-.37c.06-1.44-5.82-2.88-13.15-3.19S245.13,408.86,245.07,410.3Z" style="fill:#0058FF;opacity:0.4"></path><path d="M245.2,410.67c.9,1.34,6.38,2.54,13,2.82s12.21-.45,13.21-1.7c-.89-1.33-6.36-2.53-13-2.82S246.21,409.42,245.2,410.67Z" style="fill:#0058FF;opacity:0.4"></path><path d="M239.77,408.38c-.09,2.13,6.64,4.14,15,4.5s15.27-1.08,15.36-3.21-6.64-4.14-15-4.49S239.86,406.26,239.77,408.38Z" style="fill:#0058FF"></path><rect x="253.12" y="391.89" width="3.85" height="30.42" transform="translate(-162.5 644.67) rotate(-87.57)" style="fill:#0058FF"></rect><path d="M239.94,404.53c-.09,2.13,6.64,4.14,15,4.5s15.27-1.08,15.36-3.21-6.64-4.13-15-4.49S240,402.41,239.94,404.53Z" style="fill:#0058FF"></path><path d="M239.94,404.53c-.09,2.13,6.64,4.14,15,4.5s15.27-1.08,15.36-3.21-6.64-4.13-15-4.49S240,402.41,239.94,404.53Z" style="fill:#fff;opacity:0.4"></path><path d="M241.87,404.47a.7.7,0,0,0,.13.38c1-1.25,6.58-2,13.21-1.71s12.14,1.49,13,2.82a.6.6,0,0,0,.17-.37c.06-1.44-5.82-2.88-13.15-3.19S241.94,403,241.87,404.47Z" style="fill:#0058FF"></path><path d="M241.87,404.47a.7.7,0,0,0,.13.38c1-1.25,6.58-2,13.21-1.71s12.14,1.49,13,2.82a.6.6,0,0,0,.17-.37c.06-1.44-5.82-2.88-13.15-3.19S241.94,403,241.87,404.47Z" style="fill:#0058FF;opacity:0.4"></path><path d="M242,404.85c.91,1.33,6.38,2.53,13,2.81s12.22-.45,13.21-1.7c-.88-1.33-6.36-2.53-13-2.82S243,403.6,242,404.85Z" style="fill:#0058FF;opacity:0.4"></path><path d="M240.19,401.36c-.09,2.13,6.64,4.14,15,4.5s15.27-1.08,15.36-3.21-6.64-4.14-15-4.49S240.28,399.24,240.19,401.36Z" style="fill:#0058FF"></path><rect x="253.54" y="384.87" width="3.85" height="30.42" transform="translate(-155.09 638.35) rotate(-87.57)" style="fill:#0058FF"></rect><path d="M240.35,397.51c-.09,2.13,6.64,4.14,15,4.5s15.27-1.08,15.36-3.21-6.64-4.14-15-4.49S240.44,395.39,240.35,397.51Z" style="fill:#0058FF"></path><path d="M240.35,397.51c-.09,2.13,6.64,4.14,15,4.5s15.27-1.08,15.36-3.21-6.64-4.14-15-4.49S240.44,395.39,240.35,397.51Z" style="fill:#fff;opacity:0.4"></path><path d="M242.29,397.45a.53.53,0,0,0,.13.37c1-1.24,6.57-2,13.21-1.7s12.13,1.49,13,2.82a.65.65,0,0,0,.16-.37c.06-1.44-5.82-2.88-13.15-3.19S242.35,396,242.29,397.45Z" style="fill:#0058FF"></path><path d="M242.29,397.45a.53.53,0,0,0,.13.37c1-1.24,6.57-2,13.21-1.7s12.13,1.49,13,2.82a.65.65,0,0,0,.16-.37c.06-1.44-5.82-2.88-13.15-3.19S242.35,396,242.29,397.45Z" style="fill:#0058FF;opacity:0.4"></path><path d="M242.42,397.82c.9,1.34,6.38,2.54,13,2.82s12.21-.45,13.21-1.7c-.89-1.33-6.36-2.53-13-2.82S243.43,396.58,242.42,397.82Z" style="fill:#0058FF;opacity:0.4"></path><path d="M237,395.53c-.09,2.13,6.64,4.14,15,4.5s15.27-1.08,15.36-3.21-6.64-4.13-15-4.49S237.08,393.41,237,395.53Z" style="fill:#0058FF"></path><rect x="250.34" y="379.05" width="3.85" height="30.42" transform="translate(-152.34 629.56) rotate(-87.57)" style="fill:#0058FF"></rect><path d="M237.16,391.68c-.09,2.13,6.64,4.14,15,4.5s15.27-1.08,15.36-3.21-6.64-4.13-15-4.49S237.25,389.56,237.16,391.68Z" style="fill:#0058FF"></path><path d="M237.16,391.68c-.09,2.13,6.64,4.14,15,4.5s15.27-1.08,15.36-3.21-6.64-4.13-15-4.49S237.25,389.56,237.16,391.68Z" style="fill:#fff;opacity:0.4"></path><path d="M239.1,391.62a.61.61,0,0,0,.12.38c1-1.25,6.58-2,13.22-1.7s12.13,1.48,13,2.81a.62.62,0,0,0,.16-.37c.06-1.43-5.82-2.88-13.15-3.19S239.16,390.18,239.1,391.62Z" style="fill:#0058FF"></path><path d="M239.1,391.62a.61.61,0,0,0,.12.38c1-1.25,6.58-2,13.22-1.7s12.13,1.48,13,2.81a.62.62,0,0,0,.16-.37c.06-1.43-5.82-2.88-13.15-3.19S239.16,390.18,239.1,391.62Z" style="fill:#0058FF;opacity:0.4"></path><path d="M239.22,392c.91,1.33,6.38,2.53,13,2.81s12.22-.45,13.22-1.7c-.89-1.33-6.37-2.53-13-2.81S240.24,390.75,239.22,392Z" style="fill:#0058FF;opacity:0.4"></path><path d="M241.87,390.59c-.09,2.13,6.64,4.14,15,4.5s15.27-1.08,15.36-3.21-6.64-4.13-15-4.49S242,388.47,241.87,390.59Z" style="fill:#0058FF"></path><rect x="255.22" y="374.11" width="3.85" height="30.42" transform="translate(-142.72 629.72) rotate(-87.57)" style="fill:#0058FF"></rect><path d="M242,386.74c-.09,2.13,6.64,4.14,15,4.5s15.27-1.08,15.36-3.21-6.64-4.13-15-4.49S242.12,384.62,242,386.74Z" style="fill:#0058FF"></path><path d="M242,386.74c-.09,2.13,6.64,4.14,15,4.5s15.27-1.08,15.36-3.21-6.64-4.13-15-4.49S242.12,384.62,242,386.74Z" style="fill:#fff;opacity:0.4"></path><path d="M244,386.68a.62.62,0,0,0,.13.38c1-1.25,6.57-2,13.21-1.7s12.13,1.48,13,2.81a.52.52,0,0,0,.16-.37c.06-1.43-5.82-2.88-13.15-3.19S244,385.24,244,386.68Z" style="fill:#0058FF"></path><path d="M244,386.68a.62.62,0,0,0,.13.38c1-1.25,6.57-2,13.21-1.7s12.13,1.48,13,2.81a.52.52,0,0,0,.16-.37c.06-1.43-5.82-2.88-13.15-3.19S244,385.24,244,386.68Z" style="fill:#0058FF;opacity:0.4"></path><path d="M244.1,387.06c.91,1.33,6.38,2.53,13,2.81s12.21-.45,13.21-1.7c-.89-1.33-6.36-2.53-13-2.81S245.12,385.81,244.1,387.06Z" style="fill:#0058FF;opacity:0.4"></path><path d="M238.68,384.77c-.09,2.12,6.64,4.13,15,4.49s15.26-1.08,15.36-3.2-6.64-4.14-15-4.5S238.77,382.64,238.68,384.77Z" style="fill:#0058FF"></path><rect x="252.03" y="368.28" width="3.85" height="30.42" transform="translate(-139.97 620.94) rotate(-87.57)" style="fill:#0058FF"></rect><path d="M238.84,380.92c-.09,2.12,6.64,4.13,15,4.49s15.27-1.08,15.36-3.2-6.64-4.14-15-4.5S238.93,378.79,238.84,380.92Z" style="fill:#0058FF"></path><path d="M238.84,380.92c-.09,2.12,6.64,4.13,15,4.49s15.27-1.08,15.36-3.2-6.64-4.14-15-4.5S238.93,378.79,238.84,380.92Z" style="fill:#fff;opacity:0.4"></path><path d="M240.78,380.85a.55.55,0,0,0,.13.38c1-1.25,6.57-2,13.21-1.7s12.13,1.48,13,2.81a.62.62,0,0,0,.16-.36c.06-1.44-5.82-2.89-13.15-3.2S240.84,379.41,240.78,380.85Z" style="fill:#0058FF"></path><path d="M240.78,380.85a.55.55,0,0,0,.13.38c1-1.25,6.57-2,13.21-1.7s12.13,1.48,13,2.81a.62.62,0,0,0,.16-.36c.06-1.44-5.82-2.89-13.15-3.2S240.84,379.41,240.78,380.85Z" style="fill:#0058FF;opacity:0.4"></path><path d="M240.91,381.23c.9,1.33,6.38,2.53,13,2.81s12.21-.45,13.21-1.7c-.89-1.33-6.36-2.53-13-2.81S241.92,380,240.91,381.23Z" style="fill:#0058FF;opacity:0.4"></path><path d="M272.25,380.63c.09,2.12-6.64,4.14-15,4.49S242,384,241.86,381.92s6.63-4.14,15-4.5S272.15,378.5,272.25,380.63Z" style="fill:#0058FF"></path><rect x="241.76" y="377.42" width="30.42" height="3.85" transform="matrix(1, -0.04, 0.04, 1, -15.87, 11.25)" style="fill:#0058FF"></rect><path d="M272.08,376.78c.09,2.12-6.64,4.14-15,4.49s-15.27-1.07-15.36-3.2,6.64-4.14,15-4.5S272,374.65,272.08,376.78Z" style="fill:#0058FF"></path><path d="M272.08,376.78c.09,2.12-6.64,4.14-15,4.49s-15.27-1.07-15.36-3.2,6.64-4.14,15-4.5S272,374.65,272.08,376.78Z" style="fill:#fff;opacity:0.4"></path><path d="M270.14,376.71a.53.53,0,0,1-.13.38c-1-1.25-6.57-2-13.21-1.7s-12.13,1.48-13,2.82a.68.68,0,0,1-.16-.37c-.06-1.44,5.82-2.88,13.15-3.19S270.08,375.27,270.14,376.71Z" style="fill:#0058FF"></path><path d="M270.14,376.71a.53.53,0,0,1-.13.38c-1-1.25-6.57-2-13.21-1.7s-12.13,1.48-13,2.82a.68.68,0,0,1-.16-.37c-.06-1.44,5.82-2.88,13.15-3.19S270.08,375.27,270.14,376.71Z" style="fill:#0058FF;opacity:0.4"></path><path d="M270,377.09c-.9,1.33-6.38,2.53-13,2.82s-12.21-.45-13.21-1.7c.89-1.34,6.36-2.54,13-2.82S269,375.84,270,377.09Z" style="fill:#0058FF;opacity:0.4"></path><path d="M275.44,374.8c.09,2.13-6.64,4.14-15,4.49s-15.27-1.07-15.36-3.2,6.64-4.14,15-4.49S275.35,372.67,275.44,374.8Z" style="fill:#0058FF"></path><rect x="244.95" y="371.59" width="30.42" height="3.85" transform="translate(-15.6 11.36) rotate(-2.43)" style="fill:#0058FF"></rect><path d="M275.27,371c.09,2.13-6.63,4.14-15,4.5s-15.26-1.08-15.35-3.21,6.63-4.14,15-4.49S275.18,368.82,275.27,371Z" style="fill:#0058FF"></path><path d="M275.27,371c.09,2.13-6.63,4.14-15,4.5s-15.26-1.08-15.35-3.21,6.63-4.14,15-4.49S275.18,368.82,275.27,371Z" style="fill:#fff;opacity:0.4"></path><path d="M273.34,370.88a.65.65,0,0,1-.13.38c-1-1.25-6.58-2-13.21-1.7s-12.14,1.49-13,2.82a.54.54,0,0,1-.16-.37c-.07-1.44,5.82-2.88,13.14-3.19S273.27,369.44,273.34,370.88Z" style="fill:#0058FF"></path><path d="M273.34,370.88a.65.65,0,0,1-.13.38c-1-1.25-6.58-2-13.21-1.7s-12.14,1.49-13,2.82a.54.54,0,0,1-.16-.37c-.07-1.44,5.82-2.88,13.14-3.19S273.27,369.44,273.34,370.88Z" style="fill:#0058FF;opacity:0.4"></path><path d="M273.21,371.26c-.91,1.33-6.38,2.54-13,2.82s-12.22-.45-13.21-1.7c.88-1.33,6.36-2.54,13-2.82S272.19,370,273.21,371.26Z" style="fill:#0058FF;opacity:0.4"></path><path d="M275,367.78c.09,2.12-6.63,4.14-15,4.49s-15.26-1.07-15.35-3.2,6.63-4.14,15-4.5S274.93,365.65,275,367.78Z" style="fill:#0058FF"></path><rect x="244.54" y="364.57" width="30.42" height="3.85" transform="translate(-15.31 11.35) rotate(-2.43)" style="fill:#0058FF"></rect><path d="M274.86,363.93c.09,2.13-6.64,4.14-15,4.49s-15.27-1.07-15.36-3.2,6.64-4.14,15-4.49S274.77,361.8,274.86,363.93Z" style="fill:#0058FF"></path><path d="M274.86,363.93c.09,2.13-6.64,4.14-15,4.49s-15.27-1.07-15.36-3.2,6.64-4.14,15-4.49S274.77,361.8,274.86,363.93Z" style="fill:#fff;opacity:0.4"></path><path d="M272.92,363.86a.53.53,0,0,1-.13.38c-1-1.25-6.57-2-13.21-1.7s-12.13,1.49-13,2.82a.68.68,0,0,1-.16-.37c-.06-1.44,5.82-2.88,13.15-3.19S272.86,362.42,272.92,363.86Z" style="fill:#0058FF"></path><path d="M272.92,363.86a.53.53,0,0,1-.13.38c-1-1.25-6.57-2-13.21-1.7s-12.13,1.49-13,2.82a.68.68,0,0,1-.16-.37c-.06-1.44,5.82-2.88,13.15-3.19S272.86,362.42,272.92,363.86Z" style="fill:#0058FF;opacity:0.4"></path><path d="M272.79,364.24c-.9,1.33-6.38,2.54-13,2.82s-12.21-.45-13.21-1.7c.89-1.33,6.36-2.54,13-2.82S271.78,363,272.79,364.24Z" style="fill:#0058FF;opacity:0.4"></path><path d="M278.22,362c.09,2.13-6.64,4.14-15,4.5s-15.27-1.08-15.36-3.21,6.64-4.14,15-4.49S278.13,359.82,278.22,362Z" style="fill:#0058FF"></path><rect x="247.73" y="358.74" width="30.42" height="3.85" transform="translate(-15.08 11.49) rotate(-2.43)" style="fill:#0058FF"></rect><path d="M278.05,358.1c.09,2.13-6.64,4.14-15,4.5s-15.27-1.08-15.36-3.21,6.64-4.14,15-4.49S278,356,278.05,358.1Z" style="fill:#0058FF"></path><path d="M278.05,358.1c.09,2.13-6.64,4.14-15,4.5s-15.27-1.08-15.36-3.21,6.64-4.14,15-4.49S278,356,278.05,358.1Z" style="fill:#fff;opacity:0.4"></path><path d="M276.12,358a.64.64,0,0,1-.13.37c-1-1.25-6.58-2-13.21-1.7s-12.14,1.49-13,2.82a.6.6,0,0,1-.17-.37c-.06-1.44,5.82-2.88,13.15-3.19S276.05,356.6,276.12,358Z" style="fill:#0058FF"></path><path d="M276.12,358a.64.64,0,0,1-.13.37c-1-1.25-6.58-2-13.21-1.7s-12.14,1.49-13,2.82a.6.6,0,0,1-.17-.37c-.06-1.44,5.82-2.88,13.15-3.19S276.05,356.6,276.12,358Z" style="fill:#0058FF;opacity:0.4"></path><path d="M276,358.41c-.91,1.34-6.38,2.54-13,2.82s-12.22-.45-13.21-1.7c.88-1.33,6.36-2.54,13-2.82S275,357.16,276,358.41Z" style="fill:#0058FF;opacity:0.4"></path><path d="M273.34,357c.09,2.13-6.64,4.14-15,4.5S243,360.43,243,358.3s6.64-4.14,15-4.49S273.25,354.89,273.34,357Z" style="fill:#0058FF"></path><rect x="242.86" y="353.8" width="30.42" height="3.85" transform="translate(-14.85 11.26) rotate(-2.43)" style="fill:#0058FF"></rect><path d="M273.18,353.16c.09,2.13-6.64,4.14-15,4.5s-15.27-1.08-15.36-3.21,6.64-4.14,15-4.49S273.09,351,273.18,353.16Z" style="fill:#0058FF"></path><path d="M273.18,353.16c.09,2.13-6.64,4.14-15,4.5s-15.27-1.08-15.36-3.21,6.64-4.14,15-4.49S273.09,351,273.18,353.16Z" style="fill:#fff;opacity:0.4"></path><path d="M271.24,353.1a.53.53,0,0,1-.13.37c-1-1.25-6.57-2-13.21-1.7s-12.13,1.49-13,2.82a.59.59,0,0,1-.16-.37c-.06-1.44,5.82-2.88,13.15-3.19S271.18,351.66,271.24,353.1Z" style="fill:#0058FF"></path><path d="M271.24,353.1a.53.53,0,0,1-.13.37c-1-1.25-6.57-2-13.21-1.7s-12.13,1.49-13,2.82a.59.59,0,0,1-.16-.37c-.06-1.44,5.82-2.88,13.15-3.19S271.18,351.66,271.24,353.1Z" style="fill:#0058FF;opacity:0.4"></path><path d="M271.11,353.47c-.91,1.34-6.38,2.54-13,2.82s-12.21-.45-13.21-1.7c.89-1.33,6.36-2.53,13-2.82S270.09,352.22,271.11,353.47Z" style="fill:#0058FF;opacity:0.4"></path><path d="M276.54,351.18c.09,2.13-6.64,4.14-15,4.5s-15.26-1.08-15.35-3.21,6.63-4.14,15-4.49S276.44,349.06,276.54,351.18Z" style="fill:#0058FF"></path><rect x="246.05" y="347.98" width="30.42" height="3.85" transform="translate(-14.61 11.4) rotate(-2.43)" style="fill:#0058FF"></rect><path d="M276.37,347.33c.09,2.13-6.64,4.14-15,4.5s-15.27-1.08-15.36-3.21,6.64-4.13,15-4.49S276.28,345.21,276.37,347.33Z" style="fill:#0058FF"></path><path d="M276.37,347.33c.09,2.13-6.64,4.14-15,4.5s-15.27-1.08-15.36-3.21,6.64-4.13,15-4.49S276.28,345.21,276.37,347.33Z" style="fill:#fff;opacity:0.4"></path><path d="M274.43,347.27a.57.57,0,0,1-.13.38c-1-1.25-6.57-2-13.21-1.71s-12.13,1.49-13,2.82a.65.65,0,0,1-.16-.37c-.06-1.44,5.82-2.88,13.15-3.19S274.37,345.83,274.43,347.27Z" style="fill:#0058FF"></path><path d="M274.43,347.27a.57.57,0,0,1-.13.38c-1-1.25-6.57-2-13.21-1.71s-12.13,1.49-13,2.82a.65.65,0,0,1-.16-.37c-.06-1.44,5.82-2.88,13.15-3.19S274.37,345.83,274.43,347.27Z" style="fill:#0058FF;opacity:0.4"></path><path d="M274.3,347.65c-.9,1.33-6.38,2.53-13,2.81s-12.21-.45-13.21-1.7c.89-1.33,6.36-2.53,13-2.82S273.29,346.4,274.3,347.65Z" style="fill:#0058FF;opacity:0.4"></path><circle cx="259.08" cy="333.97" r="13.7" transform="translate(-100.76 112.22) rotate(-20.55)" style="fill:#0058FF"></circle><circle cx="260.58" cy="334.65" r="13.7" transform="translate(-163.16 316.22) rotate(-49.6)" style="fill:#0058FF"></circle><circle cx="260.58" cy="334.65" r="13.7" transform="translate(-163.16 316.22) rotate(-49.6)" style="fill:#fff;opacity:0.4"></circle><path d="M269.91,338.89a10.25,10.25,0,1,1-5.09-13.58A10.26,10.26,0,0,1,269.91,338.89Z" style="fill:#0058FF"></path><path d="M265.33,337.69a3.09,3.09,0,0,0-1-1.6,2.77,2.77,0,0,0,1.46-.49,2.89,2.89,0,0,0,1-1.2,2.6,2.6,0,0,0-.12-2.48,4.68,4.68,0,0,0-1.73-1.61l.35-.77-1.18-.53-.32.71-1.18-.54.32-.71-1.18-.54-.32.72-2.56-1.17-4.8,10.57,2.55,1.17-.34.75,1.18.53.34-.75,1.18.54-.34.75,1.18.53.36-.78a5.35,5.35,0,0,0,2.84.43,2.68,2.68,0,0,0,2-1.64A2.9,2.9,0,0,0,265.33,337.69Zm-4.84-7.26,2.43,1.11a2.72,2.72,0,0,1,1.23.93,1.13,1.13,0,0,1,0,1.14,1.11,1.11,0,0,1-.89.72,2.64,2.64,0,0,1-1.52-.3l-2.43-1.11Zm1.32,8.53a2.94,2.94,0,0,1-1.6-.35l-2.85-1.29,1.18-2.62,2.86,1.3c1.29.59,1.74,1.33,1.35,2.2A1.2,1.2,0,0,1,261.81,339Z" style="fill:#fff;opacity:0.30000000000000004"></path><path d="M389.7,412.22c-.31,1.25-4.55,1.26-9.47,0s-8.66-3.25-8.35-4.49,4.56-1.26,9.48,0S390,411,389.7,412.22Z" style="fill:#0058FF"></path><rect x="379.91" y="399.68" width="2.33" height="18.37" transform="translate(-108.11 679.2) rotate(-75.94)" style="fill:#0058FF"></rect><path d="M390.27,410c-.32,1.25-4.56,1.26-9.48,0s-8.65-3.24-8.34-4.49,4.55-1.26,9.47,0S390.58,408.72,390.27,410Z" style="fill:#0058FF"></path><path d="M390.27,410c-.32,1.25-4.56,1.26-9.48,0s-8.65-3.24-8.34-4.49,4.55-1.26,9.47,0S390.58,408.72,390.27,410Z" style="fill:#fff;opacity:0.4"></path><path d="M389.15,409.59a.31.31,0,0,1-.14.2c-.37-.9-3.46-2.28-7.35-3.25s-7.28-1.22-8-.6a.5.5,0,0,1,0-.24c.22-.85,3.87-.67,8.17.4S389.37,408.75,389.15,409.59Z" style="fill:#0058FF"></path><path d="M389.15,409.59a.31.31,0,0,1-.14.2c-.37-.9-3.46-2.28-7.35-3.25s-7.28-1.22-8-.6a.5.5,0,0,1,0-.24c.22-.85,3.87-.67,8.17.4S389.37,408.75,389.15,409.59Z" style="fill:#0058FF;opacity:0.4"></path><path d="M389,409.79c-.75.61-4.12.37-8-.6s-7-2.36-7.36-3.25c.75-.62,4.12-.38,8,.6S388.64,408.89,389,409.79Z" style="fill:#0058FF;opacity:0.4"></path><path d="M398.26,416.32c.06,1.28-4,2.5-9.08,2.71s-9.22-.65-9.27-1.93,4-2.5,9.08-2.72S398.21,415,398.26,416.32Z" style="fill:#0058FF"></path><rect x="379.85" y="414.38" width="18.37" height="2.33" transform="translate(-17.29 16.89) rotate(-2.43)" style="fill:#0058FF"></rect><path d="M398.16,414c.06,1.29-4,2.5-9.07,2.72s-9.22-.65-9.28-1.94,4-2.5,9.08-2.71S398.11,412.71,398.16,414Z" style="fill:#0058FF"></path><path d="M398.16,414c.06,1.29-4,2.5-9.07,2.72s-9.22-.65-9.28-1.94,4-2.5,9.08-2.71S398.11,412.71,398.16,414Z" style="fill:#fff;opacity:0.4"></path><path d="M397,414a.29.29,0,0,1-.08.23c-.61-.75-4-1.2-8-1s-7.33.9-7.87,1.7a.34.34,0,0,1-.09-.22c0-.87,3.51-1.74,7.94-1.93S397,413.08,397,414Z" style="fill:#0058FF"></path><path d="M397,414a.29.29,0,0,1-.08.23c-.61-.75-4-1.2-8-1s-7.33.9-7.87,1.7a.34.34,0,0,1-.09-.22c0-.87,3.51-1.74,7.94-1.93S397,413.08,397,414Z" style="fill:#0058FF;opacity:0.4"></path><path d="M396.91,414.18c-.54.8-3.85,1.53-7.86,1.7s-7.37-.27-8-1c.54-.8,3.85-1.53,7.87-1.7S396.3,413.43,396.91,414.18Z" style="fill:#0058FF;opacity:0.4"></path><circle cx="377.16" cy="404.27" r="13.7" transform="translate(-167.78 497.69) rotate(-56.72)" style="fill:#0058FF"></circle><path d="M388.62,414.48a13.7,13.7,0,1,1-1.11-19.34A13.7,13.7,0,0,1,388.62,414.48Z" style="fill:#0058FF"></path><path d="M388.62,414.48a13.7,13.7,0,1,1-1.11-19.34A13.7,13.7,0,0,1,388.62,414.48Z" style="fill:#fff;opacity:0.4"></path><path d="M386,412.19a10.26,10.26,0,1,1-.83-14.48A10.25,10.25,0,0,1,386,412.19Z" style="fill:#0058FF"></path><g style="opacity:0.30000000000000004"><path d="M380.3,410c-1.22,2-3.39,2.05-5.64.36l-1.28,1.37-1.28-1.13,1.29-1.37a9.4,9.4,0,0,1-2.23-3.74l2-1.07a7.82,7.82,0,0,0,1.76,3.19l2-2.1c-.93-1.46-1.89-3.17-.79-4.95,1.21-1.95,3.42-2,5.69-.29l1.29-1.37,1.27,1.14-1.29,1.38a8.57,8.57,0,0,1,1.82,2.93L383,405.47a6.67,6.67,0,0,0-1.42-2.46l-2.05,2.2C380.41,406.65,381.34,408.3,380.3,410Zm-1.76-6.27,1.68-1.79c-.83-.49-1.52-.4-1.88.15A1.65,1.65,0,0,0,378.54,403.72Zm-.54,4.82a1.53,1.53,0,0,0-.19-1.54l-1.6,1.7C377,409.15,377.65,409.09,378,408.54Z" style="fill:#fff"></path></g><path d="M208.78,417.59c-.05,1.28,4,2.5,9.08,2.71s9.22-.65,9.27-1.93-4-2.5-9.07-2.72S208.84,416.3,208.78,417.59Z" style="fill:#0058FF"></path><rect x="216.84" y="407.63" width="2.33" height="18.37" transform="translate(-207.67 616.96) rotate(-87.57)" style="fill:#0058FF"></rect><path d="M208.88,415.26c-.06,1.29,4,2.5,9.08,2.72s9.22-.65,9.27-1.94-4-2.5-9.08-2.71S208.93,414,208.88,415.26Z" style="fill:#0058FF"></path><path d="M208.88,415.26c-.06,1.29,4,2.5,9.08,2.72s9.22-.65,9.27-1.94-4-2.5-9.08-2.71S208.93,414,208.88,415.26Z" style="fill:#fff;opacity:0.4"></path><path d="M210.05,415.22a.38.38,0,0,0,.08.23c.61-.75,4-1.2,8-1s7.32.9,7.86,1.71a.4.4,0,0,0,.1-.23c0-.87-3.52-1.74-7.94-1.92S210.09,414.35,210.05,415.22Z" style="fill:#0058FF"></path><path d="M210.05,415.22a.38.38,0,0,0,.08.23c.61-.75,4-1.2,8-1s7.32.9,7.86,1.71a.4.4,0,0,0,.1-.23c0-.87-3.52-1.74-7.94-1.92S210.09,414.35,210.05,415.22Z" style="fill:#0058FF;opacity:0.4"></path><path d="M210.13,415.45c.55.81,3.85,1.53,7.86,1.7s7.38-.27,8-1c-.54-.81-3.84-1.53-7.86-1.71S210.74,414.7,210.13,415.45Z" style="fill:#0058FF;opacity:0.4"></path><path d="M206.85,414.07c0,1.28,4,2.5,9.08,2.71s9.22-.65,9.27-1.93-4-2.5-9.07-2.72S206.91,412.79,206.85,414.07Z" style="fill:#0058FF"></path><rect x="214.91" y="404.11" width="2.33" height="18.37" transform="translate(-206.02 611.63) rotate(-87.57)" style="fill:#0058FF"></rect><path d="M207,411.74c0,1.29,4,2.5,9.08,2.72s9.22-.65,9.27-1.94-4-2.5-9.07-2.71S207,410.46,207,411.74Z" style="fill:#0058FF"></path><path d="M207,411.74c0,1.29,4,2.5,9.08,2.72s9.22-.65,9.27-1.94-4-2.5-9.07-2.71S207,410.46,207,411.74Z" style="fill:#fff;opacity:0.4"></path><path d="M208.12,411.7a.38.38,0,0,0,.08.23c.61-.75,4-1.19,8-1s7.32.89,7.86,1.7a.4.4,0,0,0,.1-.23c0-.86-3.52-1.74-7.94-1.92S208.16,410.83,208.12,411.7Z" style="fill:#0058FF"></path><path d="M208.12,411.7a.38.38,0,0,0,.08.23c.61-.75,4-1.19,8-1s7.32.89,7.86,1.7a.4.4,0,0,0,.1-.23c0-.86-3.52-1.74-7.94-1.92S208.16,410.83,208.12,411.7Z" style="fill:#0058FF;opacity:0.4"></path><path d="M208.2,411.93c.55.81,3.85,1.53,7.86,1.7s7.38-.27,8-1c-.54-.81-3.84-1.53-7.86-1.7S208.81,411.18,208.2,411.93Z" style="fill:#0058FF;opacity:0.4"></path><path d="M207.1,409.83c0,1.28,4,2.5,9.08,2.71s9.22-.65,9.27-1.93-4-2.5-9.07-2.72S207.16,408.55,207.1,409.83Z" style="fill:#0058FF"></path><rect x="215.16" y="399.87" width="2.33" height="18.37" transform="translate(-201.55 607.82) rotate(-87.57)" style="fill:#0058FF"></rect><path d="M207.2,407.5c0,1.29,4,2.5,9.08,2.72s9.22-.65,9.27-1.94-4-2.5-9.07-2.71S207.26,406.22,207.2,407.5Z" style="fill:#0058FF"></path><path d="M207.2,407.5c0,1.29,4,2.5,9.08,2.72s9.22-.65,9.27-1.94-4-2.5-9.07-2.71S207.26,406.22,207.2,407.5Z" style="fill:#fff;opacity:0.4"></path><path d="M208.37,407.46a.38.38,0,0,0,.08.23c.61-.75,4-1.19,8-1s7.32.89,7.86,1.7a.4.4,0,0,0,.1-.23c0-.86-3.52-1.74-7.94-1.92S208.41,406.6,208.37,407.46Z" style="fill:#0058FF"></path><path d="M208.37,407.46a.38.38,0,0,0,.08.23c.61-.75,4-1.19,8-1s7.32.89,7.86,1.7a.4.4,0,0,0,.1-.23c0-.86-3.52-1.74-7.94-1.92S208.41,406.6,208.37,407.46Z" style="fill:#0058FF;opacity:0.4"></path><path d="M208.45,407.69c.55.81,3.85,1.53,7.86,1.7s7.38-.27,8-1c-.54-.81-3.84-1.53-7.86-1.7S209.06,406.94,208.45,407.69Z" style="fill:#0058FF;opacity:0.4"></path><path d="M205.17,406.31c0,1.28,4,2.5,9.08,2.71s9.22-.65,9.28-1.93-4-2.5-9.08-2.72S205.23,405,205.17,406.31Z" style="fill:#0058FF"></path><rect x="213.24" y="396.35" width="2.33" height="18.37" transform="translate(-199.87 602.54) rotate(-87.57)" style="fill:#0058FF"></rect><path d="M205.27,404c-.05,1.29,4,2.5,9.08,2.72s9.22-.65,9.27-1.94-4-2.49-9.07-2.71S205.33,402.7,205.27,404Z" style="fill:#0058FF"></path><path d="M205.27,404c-.05,1.29,4,2.5,9.08,2.72s9.22-.65,9.27-1.94-4-2.49-9.07-2.71S205.33,402.7,205.27,404Z" style="fill:#fff;opacity:0.4"></path><path d="M206.44,403.94a.38.38,0,0,0,.08.23c.62-.75,4-1.19,8-1s7.33.89,7.86,1.7a.34.34,0,0,0,.1-.22c0-.87-3.52-1.75-7.94-1.93S206.48,403.08,206.44,403.94Z" style="fill:#0058FF"></path><path d="M206.44,403.94a.38.38,0,0,0,.08.23c.62-.75,4-1.19,8-1s7.33.89,7.86,1.7a.34.34,0,0,0,.1-.22c0-.87-3.52-1.75-7.94-1.93S206.48,403.08,206.44,403.94Z" style="fill:#0058FF;opacity:0.4"></path><path d="M206.52,404.17c.55.81,3.85,1.53,7.86,1.7s7.38-.27,8-1c-.53-.81-3.84-1.53-7.86-1.7S207.14,403.42,206.52,404.17Z" style="fill:#0058FF;opacity:0.4"></path><path d="M208.12,403.33c-.06,1.28,4,2.5,9.08,2.71s9.22-.65,9.27-1.93-4-2.5-9.08-2.72S208.17,402,208.12,403.33Z" style="fill:#0058FF"></path><rect x="216.18" y="393.37" width="2.33" height="18.37" transform="translate(-194.08 602.61) rotate(-87.57)" style="fill:#0058FF"></rect><path d="M208.22,401c-.06,1.29,4,2.5,9.07,2.72s9.22-.65,9.28-1.94-4-2.5-9.08-2.71S208.27,399.72,208.22,401Z" style="fill:#0058FF"></path><path d="M208.22,401c-.06,1.29,4,2.5,9.07,2.72s9.22-.65,9.28-1.94-4-2.5-9.08-2.71S208.27,399.72,208.22,401Z" style="fill:#fff;opacity:0.4"></path><path d="M209.39,401a.29.29,0,0,0,.08.23c.61-.75,4-1.2,8-1s7.33.9,7.87,1.7a.34.34,0,0,0,.09-.22c0-.87-3.51-1.74-7.94-1.93S209.42,400.09,209.39,401Z" style="fill:#0058FF"></path><path d="M209.39,401a.29.29,0,0,0,.08.23c.61-.75,4-1.2,8-1s7.33.9,7.87,1.7a.34.34,0,0,0,.09-.22c0-.87-3.51-1.74-7.94-1.93S209.42,400.09,209.39,401Z" style="fill:#0058FF;opacity:0.4"></path><path d="M209.47,401.19c.54.8,3.85,1.53,7.86,1.7s7.37-.27,8-1c-.54-.8-3.85-1.53-7.87-1.7S210.08,400.44,209.47,401.19Z" style="fill:#0058FF;opacity:0.4"></path><path d="M195.18,417.38c.31,1.25,4.56,1.26,9.48,0s8.65-3.24,8.34-4.49-4.55-1.26-9.47,0S194.87,416.14,195.18,417.38Z" style="fill:#0058FF"></path><rect x="194.62" y="412.86" width="18.37" height="2.33" transform="translate(-94.47 61.91) rotate(-14.06)" style="fill:#0058FF"></rect><path d="M194.62,415.13c.31,1.24,4.55,1.26,9.47,0s8.66-3.24,8.34-4.48-4.55-1.26-9.47,0S194.3,413.88,194.62,415.13Z" style="fill:#0058FF"></path><path d="M194.62,415.13c.31,1.24,4.55,1.26,9.47,0s8.66-3.24,8.34-4.48-4.55-1.26-9.47,0S194.3,413.88,194.62,415.13Z" style="fill:#fff;opacity:0.4"></path><path d="M195.73,414.76a.33.33,0,0,0,.14.19c.37-.89,3.46-2.27,7.36-3.25s7.27-1.22,8-.6a.33.33,0,0,0,0-.24c-.21-.84-3.87-.67-8.16.41S195.52,413.91,195.73,414.76Z" style="fill:#0058FF"></path><path d="M195.73,414.76a.33.33,0,0,0,.14.19c.37-.89,3.46-2.27,7.36-3.25s7.27-1.22,8-.6a.33.33,0,0,0,0-.24c-.21-.84-3.87-.67-8.16.41S195.52,413.91,195.73,414.76Z" style="fill:#0058FF;opacity:0.4"></path><path d="M195.87,415c.75.62,4.13.38,8-.6s7-2.35,7.36-3.25c-.75-.62-4.12-.37-8,.6S196.24,414.06,195.87,415Z" style="fill:#0058FF;opacity:0.4"></path><path d="M186.67,417.59c0,1.28,4,2.5,9.08,2.71s9.22-.65,9.27-1.93-4-2.5-9.07-2.72S186.73,416.3,186.67,417.59Z" style="fill:#0058FF"></path><rect x="194.73" y="407.63" width="2.33" height="18.37" transform="translate(-228.86 594.84) rotate(-87.57)" style="fill:#0058FF"></rect><path d="M186.77,415.26c-.05,1.29,4,2.5,9.08,2.72s9.22-.65,9.27-1.94-4-2.5-9.07-2.71S186.83,414,186.77,415.26Z" style="fill:#0058FF"></path><path d="M186.77,415.26c-.05,1.29,4,2.5,9.08,2.72s9.22-.65,9.27-1.94-4-2.5-9.07-2.71S186.83,414,186.77,415.26Z" style="fill:#fff;opacity:0.4"></path><path d="M187.94,415.22a.38.38,0,0,0,.08.23c.61-.75,4-1.2,8-1s7.32.9,7.86,1.71a.4.4,0,0,0,.1-.23c0-.87-3.52-1.74-7.94-1.92S188,414.35,187.94,415.22Z" style="fill:#0058FF"></path><path d="M187.94,415.22a.38.38,0,0,0,.08.23c.61-.75,4-1.2,8-1s7.32.9,7.86,1.71a.4.4,0,0,0,.1-.23c0-.87-3.52-1.74-7.94-1.92S188,414.35,187.94,415.22Z" style="fill:#0058FF;opacity:0.4"></path><path d="M188,415.45c.55.81,3.85,1.53,7.86,1.7s7.38-.27,8-1c-.54-.81-3.84-1.53-7.86-1.71S188.63,414.7,188,415.45Z" style="fill:#0058FF;opacity:0.4"></path><path d="M281.46,417.48c-.06,1.32,4.12,2.57,9.33,2.79s9.48-.67,9.54-2-4.13-2.56-9.34-2.79S281.51,416.16,281.46,417.48Z" style="fill:#0058FF"></path><rect x="289.75" y="407.25" width="2.39" height="18.89" transform="translate(-137.73 689.67) rotate(-87.57)" style="fill:#0058FF"></rect><path d="M281.56,415.09c-.06,1.32,4.12,2.57,9.33,2.79s9.48-.67,9.54-2-4.12-2.56-9.34-2.79S281.61,413.77,281.56,415.09Z" style="fill:#0058FF"></path><path d="M281.56,415.09c-.06,1.32,4.12,2.57,9.33,2.79s9.48-.67,9.54-2-4.12-2.56-9.34-2.79S281.61,413.77,281.56,415.09Z" style="fill:#fff;opacity:0.4"></path><path d="M282.76,415.05a.43.43,0,0,0,.08.24c.63-.78,4.08-1.23,8.21-1.06s7.53.92,8.08,1.75a.34.34,0,0,0,.1-.23c0-.89-3.61-1.79-8.16-2S282.8,414.16,282.76,415.05Z" style="fill:#0058FF"></path><path d="M282.76,415.05a.43.43,0,0,0,.08.24c.63-.78,4.08-1.23,8.21-1.06s7.53.92,8.08,1.75a.34.34,0,0,0,.1-.23c0-.89-3.61-1.79-8.16-2S282.8,414.16,282.76,415.05Z" style="fill:#0058FF;opacity:0.4"></path><path d="M282.84,415.29c.57.82,4,1.57,8.09,1.75s7.58-.28,8.2-1.06c-.55-.83-3.95-1.57-8.08-1.75S283.47,414.51,282.84,415.29Z" style="fill:#0058FF;opacity:0.4"></path><path d="M279.47,413.86c-.05,1.32,4.13,2.57,9.34,2.8s9.48-.67,9.53-2-4.12-2.57-9.33-2.8S279.53,412.54,279.47,413.86Z" style="fill:#0058FF"></path><rect x="287.76" y="403.63" width="2.39" height="18.89" transform="translate(-136 684.24) rotate(-87.57)" style="fill:#0058FF"></rect><path d="M279.58,411.47c-.06,1.32,4.12,2.57,9.33,2.8s9.48-.67,9.54-2-4.13-2.57-9.34-2.8S279.63,410.15,279.58,411.47Z" style="fill:#0058FF"></path><path d="M279.58,411.47c-.06,1.32,4.12,2.57,9.33,2.8s9.48-.67,9.54-2-4.13-2.57-9.34-2.8S279.63,410.15,279.58,411.47Z" style="fill:#fff;opacity:0.4"></path><path d="M280.78,411.43a.43.43,0,0,0,.08.24c.63-.78,4.08-1.23,8.2-1.06s7.54.92,8.09,1.75a.4.4,0,0,0,.1-.23c0-.89-3.62-1.79-8.17-2S280.82,410.54,280.78,411.43Z" style="fill:#0058FF"></path><path d="M280.78,411.43a.43.43,0,0,0,.08.24c.63-.78,4.08-1.23,8.2-1.06s7.54.92,8.09,1.75a.4.4,0,0,0,.1-.23c0-.89-3.62-1.79-8.17-2S280.82,410.54,280.78,411.43Z" style="fill:#0058FF;opacity:0.4"></path><path d="M280.86,411.67c.56.82,4,1.57,8.08,1.75s7.59-.28,8.21-1.06c-.55-.83-3.95-1.57-8.09-1.75S281.49,410.89,280.86,411.67Z" style="fill:#0058FF;opacity:0.4"></path><path d="M283.73,411.19c-.06,1.31,4.12,2.56,9.33,2.79s9.48-.67,9.54-2-4.13-2.57-9.34-2.79S283.78,409.87,283.73,411.19Z" style="fill:#0058FF"></path><rect x="292.01" y="400.95" width="2.39" height="18.89" transform="translate(-129.26 685.91) rotate(-87.57)" style="fill:#0058FF"></rect><path d="M283.83,408.79c-.06,1.32,4.12,2.57,9.33,2.8s9.48-.67,9.54-2-4.13-2.57-9.34-2.79S283.88,407.48,283.83,408.79Z" style="fill:#0058FF"></path><path d="M283.83,408.79c-.06,1.32,4.12,2.57,9.33,2.8s9.48-.67,9.54-2-4.13-2.57-9.34-2.79S283.88,407.48,283.83,408.79Z" style="fill:#fff;opacity:0.4"></path><path d="M285,408.75a.43.43,0,0,0,.08.24c.63-.78,4.08-1.23,8.2-1.06s7.54.92,8.09,1.75a.4.4,0,0,0,.1-.23c0-.89-3.62-1.79-8.17-2S285.07,407.86,285,408.75Z" style="fill:#0058FF"></path><path d="M285,408.75a.43.43,0,0,0,.08.24c.63-.78,4.08-1.23,8.2-1.06s7.54.92,8.09,1.75a.4.4,0,0,0,.1-.23c0-.89-3.62-1.79-8.17-2S285.07,407.86,285,408.75Z" style="fill:#0058FF;opacity:0.4"></path><path d="M285.11,409c.56.83,4,1.57,8.08,1.75s7.59-.28,8.21-1.06c-.55-.83-3.95-1.57-8.09-1.75S285.74,408.21,285.11,409Z" style="fill:#0058FF;opacity:0.4"></path><path d="M283.78,407.57c-.06,1.32,4.12,2.57,9.33,2.79s9.48-.67,9.54-2-4.13-2.57-9.34-2.79S283.83,406.25,283.78,407.57Z" style="fill:#0058FF"></path><rect x="292.07" y="397.33" width="2.39" height="18.89" transform="matrix(0.04, -1, 1, 0.04, -125.59, 682.51)" style="fill:#0058FF"></rect><path d="M283.88,405.18c-.06,1.32,4.12,2.57,9.33,2.79s9.48-.67,9.54-2-4.13-2.57-9.34-2.79S283.93,403.86,283.88,405.18Z" style="fill:#0058FF"></path><path d="M283.88,405.18c-.06,1.32,4.12,2.57,9.33,2.79s9.48-.67,9.54-2-4.13-2.57-9.34-2.79S283.93,403.86,283.88,405.18Z" style="fill:#fff;opacity:0.4"></path><path d="M285.08,405.14a.4.4,0,0,0,.08.23c.63-.78,4.08-1.23,8.2-1.06s7.54.93,8.09,1.75a.34.34,0,0,0,.1-.23c0-.89-3.61-1.79-8.17-2S285.12,404.24,285.08,405.14Z" style="fill:#0058FF"></path><path d="M285.08,405.14a.4.4,0,0,0,.08.23c.63-.78,4.08-1.23,8.2-1.06s7.54.93,8.09,1.75a.34.34,0,0,0,.1-.23c0-.89-3.61-1.79-8.17-2S285.12,404.24,285.08,405.14Z" style="fill:#0058FF;opacity:0.4"></path><path d="M285.16,405.37c.56.83,4,1.57,8.09,1.75s7.58-.28,8.2-1.06c-.55-.82-3.95-1.57-8.09-1.75S285.79,404.59,285.16,405.37Z" style="fill:#0058FF;opacity:0.4"></path><path d="M279.9,404.61c-.06,1.32,4.12,2.57,9.33,2.79s9.48-.67,9.54-2-4.12-2.57-9.33-2.79S280,403.29,279.9,404.61Z" style="fill:#0058FF"></path><rect x="288.19" y="394.37" width="2.39" height="18.89" transform="translate(-126.37 675.77) rotate(-87.56)" style="fill:#0058FF"></rect><path d="M280,402.22c-.06,1.32,4.12,2.57,9.33,2.79s9.48-.67,9.54-2-4.12-2.57-9.33-2.79S280.06,400.9,280,402.22Z" style="fill:#0058FF"></path><path d="M280,402.22c-.06,1.32,4.12,2.57,9.33,2.79s9.48-.67,9.54-2-4.12-2.57-9.33-2.79S280.06,400.9,280,402.22Z" style="fill:#fff;opacity:0.4"></path><path d="M281.2,402.18a.4.4,0,0,0,.08.23c.64-.77,4.09-1.23,8.21-1.05s7.53.92,8.08,1.74a.32.32,0,0,0,.1-.22c0-.9-3.61-1.79-8.16-2S281.24,401.28,281.2,402.18Z" style="fill:#0058FF"></path><path d="M281.2,402.18a.4.4,0,0,0,.08.23c.64-.77,4.09-1.23,8.21-1.05s7.53.92,8.08,1.74a.32.32,0,0,0,.1-.22c0-.9-3.61-1.79-8.16-2S281.24,401.28,281.2,402.18Z" style="fill:#0058FF;opacity:0.4"></path><path d="M281.28,402.41c.57.83,4,1.58,8.09,1.75s7.58-.28,8.2-1.06c-.55-.82-3.95-1.57-8.08-1.74S281.92,401.64,281.28,402.41Z" style="fill:#0058FF;opacity:0.4"></path><path d="M304.26,411.81c-.55,1.17,2.73,3.86,7.32,6s8.76,3,9.3,1.8-2.73-3.85-7.32-6S304.8,410.65,304.26,411.81Z" style="fill:#0058FF"></path><rect x="311.9" y="405.48" width="2.33" height="18.37" transform="translate(-195.37 521.68) rotate(-64.83)" style="fill:#0058FF"></rect><path d="M305.25,409.71c-.55,1.16,2.73,3.85,7.32,6s8.76,3,9.3,1.8-2.73-3.86-7.32-6S305.79,408.54,305.25,409.71Z" style="fill:#0058FF"></path><path d="M305.25,409.71c-.55,1.16,2.73,3.85,7.32,6s8.76,3,9.3,1.8-2.73-3.86-7.32-6S305.79,408.54,305.25,409.71Z" style="fill:#fff;opacity:0.4"></path><path d="M306.34,410.12a.33.33,0,0,0,0,.24c.85-.45,4.12.43,7.75,2.14s6.41,3.66,6.6,4.61a.35.35,0,0,0,.17-.17c.37-.79-2.57-3-6.58-4.85S306.71,409.34,306.34,410.12Z" style="fill:#0058FF"></path><path d="M306.34,410.12a.33.33,0,0,0,0,.24c.85-.45,4.12.43,7.75,2.14s6.41,3.66,6.6,4.61a.35.35,0,0,0,.17-.17c.37-.79-2.57-3-6.58-4.85S306.71,409.34,306.34,410.12Z" style="fill:#0058FF;opacity:0.4"></path><path d="M306.33,410.36c.19,1,3,2.9,6.59,4.61s6.91,2.6,7.76,2.14c-.19-.95-3-2.9-6.6-4.61S307.18,409.91,306.33,410.36Z" style="fill:#0058FF;opacity:0.4"></path><path d="M294.61,415.94c-.05,1.28,4,2.49,9.08,2.71s9.22-.65,9.28-1.93-4-2.5-9.08-2.72S294.67,414.65,294.61,415.94Z" style="fill:#0058FF"></path><rect x="302.68" y="405.98" width="2.33" height="18.37" transform="translate(-123.85 701.1) rotate(-87.57)" style="fill:#0058FF"></rect><path d="M294.71,413.61c0,1.28,4,2.5,9.08,2.72s9.22-.66,9.27-1.94-4-2.5-9.07-2.71S294.77,412.33,294.71,413.61Z" style="fill:#0058FF"></path><path d="M294.71,413.61c0,1.28,4,2.5,9.08,2.72s9.22-.66,9.27-1.94-4-2.5-9.07-2.71S294.77,412.33,294.71,413.61Z" style="fill:#fff;opacity:0.4"></path><path d="M295.88,413.57a.38.38,0,0,0,.08.23c.62-.76,4-1.2,8-1s7.33.9,7.86,1.7a.32.32,0,0,0,.1-.22c0-.87-3.52-1.74-7.94-1.93S295.92,412.7,295.88,413.57Z" style="fill:#0058FF"></path><path d="M295.88,413.57a.38.38,0,0,0,.08.23c.62-.76,4-1.2,8-1s7.33.9,7.86,1.7a.32.32,0,0,0,.1-.22c0-.87-3.52-1.74-7.94-1.93S295.92,412.7,295.88,413.57Z" style="fill:#0058FF;opacity:0.4"></path><path d="M296,413.8c.55.8,3.85,1.53,7.86,1.7s7.38-.27,8-1c-.53-.8-3.84-1.53-7.86-1.7S296.58,413,296,413.8Z" style="fill:#0058FF;opacity:0.4"></path></g><g id="freepik--chart-1--inject-184"><path d="M132.93,159v6a18,18,0,0,1,10.25,4.25l4.27-4.27A24,24,0,0,0,132.93,159Z" style="fill:#0058FF"></path><path d="M130,201.09a18.05,18.05,0,0,1-16.55-16.55h-6A24.08,24.08,0,0,0,130,207.13Z" style="fill:#0058FF"></path><path d="M113.47,181.62A18.07,18.07,0,0,1,130,165.07v-6a24.09,24.09,0,0,0-22.59,22.59Z" style="fill:#0058FF"></path><path d="M113.47,181.62A18.07,18.07,0,0,1,130,165.07v-6a24.09,24.09,0,0,0-22.59,22.59Z" style="opacity:0.2"></path><path d="M149.51,167.11l-4.27,4.27a18.06,18.06,0,0,1-12.31,29.71v6a24.09,24.09,0,0,0,16.58-40Z" style="fill:#0058FF"></path><g style="opacity:0.8"><path d="M132.93,159v6a18,18,0,0,1,10.25,4.25l4.27-4.27A24,24,0,0,0,132.93,159Z" style="fill:#fff"></path></g><g style="opacity:0.6000000000000001"><path d="M130,201.09a18.05,18.05,0,0,1-16.55-16.55h-6A24.08,24.08,0,0,0,130,207.13Z" style="fill:#fff"></path></g><g style="opacity:0.7000000000000001"><path d="M113.47,181.62A18.07,18.07,0,0,1,130,165.07v-6a24.09,24.09,0,0,0-22.59,22.59Z" style="fill:#fff"></path></g><path d="M149.51,167.11l-4.27,4.27a18.06,18.06,0,0,1-12.31,29.71v6a24.09,24.09,0,0,0,16.58-40Z" style="fill:#fff;opacity:0.5"></path></g><g id="freepik--Arrow--inject-184"><polygon points="175.3 152.66 182.95 163.04 227.03 144.74 270 160.02 308.93 134.85 311.72 138.55 320.97 123.41 300.24 121.79 303.42 125.98 264.46 150.92 222.13 135.9 175.3 152.66" style="fill:#0058FF"></polygon><g style="opacity:0.5"><polygon points="175.3 152.66 182.95 163.04 227.03 144.74 270 160.02 308.93 134.85 311.72 138.55 320.97 123.41 300.24 121.79 303.42 125.98 264.46 150.92 222.13 135.9 175.3 152.66" style="fill:#fff"></polygon></g></g><g id="freepik--Symbol--inject-184"><path d="M356,159.12a9.7,9.7,0,1,0,9.7,9.7A9.7,9.7,0,0,0,356,159.12Zm0,14.55a4.85,4.85,0,1,1,4.84-4.85A4.86,4.86,0,0,1,356,173.67Z" style="fill:#0058FF"></path><path d="M380.45,187.58a9.7,9.7,0,1,0,9.69,9.7A9.7,9.7,0,0,0,380.45,187.58Zm0,14.54a4.85,4.85,0,1,1,4.84-4.84A4.85,4.85,0,0,1,380.45,202.12Z" style="fill:#0058FF"></path><polygon points="359.63 206.98 353.18 206.98 375.59 159.12 382.04 159.12 359.63 206.98" style="fill:#0058FF"></polygon><g style="opacity:0.5"><path d="M356,159.12a9.7,9.7,0,1,0,9.7,9.7A9.7,9.7,0,0,0,356,159.12Zm0,14.55a4.85,4.85,0,1,1,4.84-4.85A4.86,4.86,0,0,1,356,173.67Z" style="fill:#fff"></path><path d="M380.45,187.58a9.7,9.7,0,1,0,9.69,9.7A9.7,9.7,0,0,0,380.45,187.58Zm0,14.54a4.85,4.85,0,1,1,4.84-4.84A4.85,4.85,0,0,1,380.45,202.12Z" style="fill:#fff"></path><polygon points="359.63 206.98 353.18 206.98 375.59 159.12 382.04 159.12 359.63 206.98" style="fill:#fff"></polygon></g></g></svg>