<svg xmlns="http://www.w3.org/2000/svg" viewBox="0 0 500 500"><g id="freepik--Shadow--inject-418"><ellipse id="freepik--path--inject-418" cx="250" cy="416.24" rx="193.89" ry="11.32" style="fill:#f5f5f5"></ellipse></g><g id="freepik--information-tab--inject-418"><path d="M409.83,248.66h-239a9.25,9.25,0,0,1-9.32-9.93l8.76-141.08a10.75,10.75,0,0,1,10.55-9.94h239a9.26,9.26,0,0,1,9.32,9.94l-8.76,141.08A10.75,10.75,0,0,1,409.83,248.66Z" style="fill:#0058FF"></path><path d="M409.83,248.66h-239a9.25,9.25,0,0,1-9.32-9.93l8.76-141.08a10.75,10.75,0,0,1,10.55-9.94h239a9.26,9.26,0,0,1,9.32,9.94l-8.76,141.08A10.75,10.75,0,0,1,409.83,248.66Z" style="fill:#fff;opacity:0.8"></path><path d="M201.46,128.36H173a2.61,2.61,0,0,1-2.64-2.81l.81-13a3,3,0,0,1,3-2.82h28.46Z" style="fill:#fff;opacity:0.4"></path><path d="M419.67,90.2H211.28a8,8,0,0,0-7.91,7.45l-2,32.37H172.9a3,3,0,0,0-3,2.82l-.75,12.2a2.61,2.61,0,0,0,2.64,2.82h28.46l-5.64,90.87a6.92,6.92,0,0,0,7,7.45H410a8,8,0,0,0,7.91-7.45l8.76-141.08A6.91,6.91,0,0,0,419.67,90.2Z" style="fill:#fff"></path><path d="M199,167.36H170.58a2.62,2.62,0,0,1-2.65-2.82l.76-12.2a3,3,0,0,1,3-2.82h28.46Z" style="fill:#fff;opacity:0.4"></path><path d="M197.83,186.86H169.37a2.62,2.62,0,0,1-2.65-2.82l.76-12.21a3,3,0,0,1,3-2.81h28.46Z" style="fill:#fff;opacity:0.4"></path><path d="M196.62,206.36H168.16a2.63,2.63,0,0,1-2.65-2.82l.76-12.21a3.05,3.05,0,0,1,3-2.82h28.46Z" style="fill:#fff;opacity:0.4"></path><path d="M195.41,225.85H167A2.62,2.62,0,0,1,164.3,223l.76-12.2a3,3,0,0,1,3-2.82h28.47Z" style="fill:#fff;opacity:0.4"></path><path d="M172.63,145.59a1.13,1.13,0,0,1-1.15-1.23l.66-10.71a1.48,1.48,0,0,1,1.44-1.36H197.7a1.13,1.13,0,0,1,1.15,1.23l-.66,10.72a1.48,1.48,0,0,1-1.44,1.35Z" style="fill:#0058FF;opacity:0.2"></path><path d="M253,107H218.57a4.47,4.47,0,0,1-4.49-4.79h0a5.17,5.17,0,0,1,5.08-4.78h34.41a4.46,4.46,0,0,1,4.49,4.78h0A5.19,5.19,0,0,1,253,107Z" style="fill:#0058FF;opacity:0.30000000000000004"></path><path d="M417,102.22a5.17,5.17,0,0,1-5.08,4.79,4.46,4.46,0,0,1-4.49-4.79,5.16,5.16,0,0,1,5.08-4.78A4.45,4.45,0,0,1,417,102.22Z" style="fill:#0058FF"></path><path d="M319.53,188.84H218a8.83,8.83,0,0,1-8.9-9.49L212.15,130a10.23,10.23,0,0,1,10.07-9.48H323.78a8.81,8.81,0,0,1,8.89,9.48l-3.06,49.34A10.26,10.26,0,0,1,319.53,188.84Zm-97.34-67.9a9.79,9.79,0,0,0-9.63,9.07l-3.06,49.34a8.43,8.43,0,0,0,8.51,9.07H319.56a9.79,9.79,0,0,0,9.63-9.07L332.26,130a8.44,8.44,0,0,0-8.51-9.07Z" style="fill:#0058FF;opacity:0.4"></path><path d="M230.33,153.34l14.57,9.43a33,33,0,0,1,11.33-10.27L248.4,137A52.81,52.81,0,0,0,230.33,153.34Z" style="fill:#0058FF"></path><path d="M230.33,153.34l14.57,9.43a33,33,0,0,1,11.33-10.27L248.4,137A52.81,52.81,0,0,0,230.33,153.34Z" style="fill:#fff;opacity:0.8"></path><path d="M221.55,178.6h17.84a31.51,31.51,0,0,1,5.51-15.83l-14.57-9.43A50.28,50.28,0,0,0,221.55,178.6Z" style="fill:#263238"></path><path d="M272.36,130.76a49.82,49.82,0,0,0-24,6.22l7.83,15.52a31.31,31.31,0,0,1,15-3.89,27.86,27.86,0,0,1,28.13,30h17.84C318.88,152.18,298.79,130.76,272.36,130.76Z" style="fill:#0058FF"></path><path d="M260.78,207h-52.3a.85.85,0,0,1-.85-.91l.23-3.68a1,1,0,0,1,1-.91h52.3Z" style="fill:#0058FF"></path><path d="M260.78,207h66a1,1,0,0,0,1-.91l.23-3.68a.85.85,0,0,0-.85-.91h-66Z" style="fill:#0058FF;opacity:0.2"></path><path d="M296.3,221.51H207.58a.84.84,0,0,1-.85-.91l.23-3.67a1,1,0,0,1,1-.91h88.72Z" style="fill:#0058FF"></path><path d="M296.3,221.51h29.58a1,1,0,0,0,1-.91l.23-3.67a.84.84,0,0,0-.85-.91H296.64Z" style="fill:#0058FF;opacity:0.2"></path><path d="M217.1,236H206.68a.85.85,0,0,1-.85-.91l.23-3.68a1,1,0,0,1,1-.91h10.42Z" style="fill:#0058FF"></path><path d="M217.1,236H325a1,1,0,0,0,1-.91l.23-3.68a.85.85,0,0,0-.86-.91H217.44Z" style="fill:#0058FF;opacity:0.2"></path><path d="M348.77,236.45a.38.38,0,0,1-.39-.41l7.16-115.31a.44.44,0,0,1,.44-.41.38.38,0,0,1,.38.41L349.2,236A.44.44,0,0,1,348.77,236.45Z" style="fill:#0058FF"></path><path d="M356.83,150.94a3,3,0,0,1-2.93,2.76,2.57,2.57,0,0,1-2.59-2.76,3,3,0,0,1,2.94-2.76A2.55,2.55,0,0,1,356.83,150.94Z" style="fill:#fff"></path><path d="M353.88,154.11a3,3,0,0,1-3-3.17,3.43,3.43,0,0,1,3.37-3.18,3,3,0,0,1,3,3.18A3.42,3.42,0,0,1,353.88,154.11Zm.34-5.52a2.53,2.53,0,0,0-2.49,2.35,2.18,2.18,0,0,0,2.2,2.34,2.53,2.53,0,0,0,2.49-2.34A2.18,2.18,0,0,0,354.22,148.59Z" style="fill:#0058FF"></path><path d="M355.29,175.78a3,3,0,0,1-2.93,2.76,2.57,2.57,0,0,1-2.59-2.76A3,3,0,0,1,352.7,173,2.56,2.56,0,0,1,355.29,175.78Z" style="fill:#fff"></path><path d="M352.34,179a3,3,0,0,1-3-3.17,3.43,3.43,0,0,1,3.37-3.18,3,3,0,0,1,3,3.18A3.42,3.42,0,0,1,352.34,179Zm.34-5.52a2.53,2.53,0,0,0-2.49,2.35,2.17,2.17,0,0,0,2.2,2.34,2.53,2.53,0,0,0,2.49-2.34A2.18,2.18,0,0,0,352.68,173.43Z" style="fill:#0058FF"></path><polygon points="351.78 187.86 348.13 193.57 354.73 193.57 351.78 187.86" style="fill:#fff"></polygon><path d="M354.7,194h-6.6a.39.39,0,0,1-.34-.2.42.42,0,0,1,0-.42l3.66-5.71a.42.42,0,0,1,.71,0l3,5.71a.44.44,0,0,1-.4.62Zm-5.83-.82H354l-2.3-4.48Z" style="fill:#0058FF"></path><path d="M398.45,236.45a.38.38,0,0,1-.39-.41l7.16-115.31a.44.44,0,0,1,.44-.41.38.38,0,0,1,.39.41L398.89,236A.45.45,0,0,1,398.45,236.45Z" style="fill:#0058FF"></path><path d="M403.67,196.71a2.56,2.56,0,0,0-2.58-2.76,3,3,0,0,0-2.94,2.76,2.57,2.57,0,0,0,2.59,2.76A3,3,0,0,0,403.67,196.71Z" style="fill:#fff"></path><path d="M400.72,199.88a3,3,0,0,1-3-3.17,3.42,3.42,0,0,1,3.37-3.17,3,3,0,0,1,3,3.17A3.42,3.42,0,0,1,400.72,199.88Zm.34-5.52a2.54,2.54,0,0,0-2.49,2.35,2.19,2.19,0,0,0,2.2,2.35,2.54,2.54,0,0,0,2.49-2.35A2.19,2.19,0,0,0,401.06,194.36Z" style="fill:#0058FF"></path><path d="M407.53,134.6a2.56,2.56,0,0,0-2.59-2.76A3,3,0,0,0,402,134.6a2.57,2.57,0,0,0,2.59,2.76A3,3,0,0,0,407.53,134.6Z" style="fill:#fff"></path><path d="M404.57,137.77a2.94,2.94,0,0,1-3-3.17,3.43,3.43,0,0,1,3.37-3.18,3,3,0,0,1,3,3.18A3.43,3.43,0,0,1,404.57,137.77Zm.35-5.52a2.53,2.53,0,0,0-2.49,2.35,2.17,2.17,0,0,0,2.2,2.34,2.53,2.53,0,0,0,2.49-2.34A2.18,2.18,0,0,0,404.92,132.25Z" style="fill:#0058FF"></path><polygon points="402.64 168.92 399.7 163.2 406.29 163.2 402.64 168.92" style="fill:#fff"></polygon><path d="M402.61,169.33a.38.38,0,0,1-.34-.21l-2.95-5.71a.43.43,0,0,1,0-.41.44.44,0,0,1,.37-.21h6.6a.39.39,0,0,1,.35.21.43.43,0,0,1,0,.41L403,169.12A.47.47,0,0,1,402.61,169.33Zm-2.22-5.71,2.3,4.47,2.86-4.47Z" style="fill:#0058FF"></path><path d="M373.61,236.45a.38.38,0,0,1-.39-.41l7.16-115.31a.44.44,0,0,1,.44-.41.37.37,0,0,1,.38.41L374.05,236A.45.45,0,0,1,373.61,236.45Z" style="fill:#0058FF"></path><path d="M381.24,158a3,3,0,0,1-2.94,2.76,2.55,2.55,0,0,1-2.58-2.76,3,3,0,0,1,2.93-2.76A2.57,2.57,0,0,1,381.24,158Z" style="fill:#fff"></path><path d="M378.28,161.2a3,3,0,0,1-3-3.18,3.42,3.42,0,0,1,3.37-3.17,3,3,0,0,1,3,3.17A3.43,3.43,0,0,1,378.28,161.2Zm.34-5.53a2.54,2.54,0,0,0-2.49,2.35,2.19,2.19,0,0,0,2.2,2.35,2.54,2.54,0,0,0,2.49-2.35A2.18,2.18,0,0,0,378.62,155.67Z" style="fill:#0058FF"></path><path d="M377.81,213.26a3,3,0,0,1-2.93,2.76,2.56,2.56,0,0,1-2.59-2.76,3,3,0,0,1,2.93-2.76A2.57,2.57,0,0,1,377.81,213.26Z" style="fill:#fff"></path><path d="M374.85,216.43a3,3,0,0,1-3-3.17,3.43,3.43,0,0,1,3.37-3.18,3,3,0,0,1,3,3.18A3.42,3.42,0,0,1,374.85,216.43Zm.34-5.52a2.53,2.53,0,0,0-2.49,2.35,2.18,2.18,0,0,0,2.2,2.34,2.53,2.53,0,0,0,2.49-2.34A2.18,2.18,0,0,0,375.19,210.91Z" style="fill:#0058FF"></path><polygon points="380.46 126.12 376.8 131.84 383.4 131.84 380.46 126.12" style="fill:#fff"></polygon><path d="M383.37,132.25h-6.59a.39.39,0,0,1-.35-.21.43.43,0,0,1,0-.41l3.65-5.71a.43.43,0,0,1,.72,0l2.94,5.71a.4.4,0,0,1,0,.41A.47.47,0,0,1,383.37,132.25Zm-5.82-.83h5.16L380.4,127Z" style="fill:#0058FF"></path></g><g id="freepik--Character--inject-418"><path d="M111.54,155.81l-1,4.87-1,5c-.66,3.32-1.22,6.64-1.73,9.9-.26,1.63-.46,3.24-.63,4.83s-.32,3.13-.4,4.62a40,40,0,0,0,0,4.08c0,1.17.26,2.17.21,2.28l-.67-1.15c-.3-.3-.85-.58-.94-.45s.26.36.9.53a13.51,13.51,0,0,0,2.51.35,29.74,29.74,0,0,0,3.22-.08,65.84,65.84,0,0,0,7.23-1c1.25-.24,2.52-.49,3.78-.77l3.74-.81.5-.11a5.25,5.25,0,0,1,4.24,9.34l-1.87,1.38-1.84,1.26c-1.26.8-2.53,1.58-3.85,2.3a55.3,55.3,0,0,1-8.46,3.78,41.08,41.08,0,0,1-4.87,1.31,26.44,26.44,0,0,1-5.69.54,20.16,20.16,0,0,1-7-1.34,16.42,16.42,0,0,1-7.2-5.61,7.56,7.56,0,0,1-.52-.86l-.15-.29a28,28,0,0,1-2.55-8,47.2,47.2,0,0,1-.64-6.62q-.11-3.13,0-6.1t.41-5.85c.34-3.84.91-7.58,1.56-11.29.34-1.85.68-3.69,1.1-5.52.2-.92.4-1.84.63-2.76l.74-2.83a10.47,10.47,0,0,1,20.39,4.73Z" style="fill:#0058FF"></path><path d="M111.54,155.81l-1,4.87-1,5c-.66,3.32-1.22,6.64-1.73,9.9-.26,1.63-.46,3.24-.63,4.83s-.32,3.13-.4,4.62a40,40,0,0,0,0,4.08c0,1.17.26,2.17.21,2.28l-.67-1.15c-.3-.3-.85-.58-.94-.45s.26.36.9.53a13.51,13.51,0,0,0,2.51.35,29.74,29.74,0,0,0,3.22-.08,65.84,65.84,0,0,0,7.23-1c1.25-.24,2.52-.49,3.78-.77l3.74-.81.5-.11a5.25,5.25,0,0,1,4.24,9.34l-1.87,1.38-1.84,1.26c-1.26.8-2.53,1.58-3.85,2.3a55.3,55.3,0,0,1-8.46,3.78,41.08,41.08,0,0,1-4.87,1.31,26.44,26.44,0,0,1-5.69.54,20.16,20.16,0,0,1-7-1.34,16.42,16.42,0,0,1-7.2-5.61,7.56,7.56,0,0,1-.52-.86l-.15-.29a28,28,0,0,1-2.55-8,47.2,47.2,0,0,1-.64-6.62q-.11-3.13,0-6.1t.41-5.85c.34-3.84.91-7.58,1.56-11.29.34-1.85.68-3.69,1.1-5.52.2-.92.4-1.84.63-2.76l.74-2.83a10.47,10.47,0,0,1,20.39,4.73Z" style="opacity:0.2"></path><path d="M86.23,411.58S76.77,403,77,400.28l-7.86-4-4.68,8.08,4.34,2.43L70,406.4l.79,1.37c3.92,2,12.48,5.91,15.47,5.8A1.92,1.92,0,0,0,86.23,411.58Z" style="fill:#263238"></path><path d="M86.91,310.62c5.72-41,3.85-65.87,9.86-86.06l37.2-3s-16.49,65-24,92.06-31.23,88.42-31.23,88.42l-10.35-5.3S76.84,342.32,86.91,310.62Z" style="fill:#263238"></path><path d="M117.25,251.87c-2.53,5.85-7.47,43.42-7.45,62.18,0-.13.08-.28.12-.42,2.65-9.51,6.42-23.72,10.18-38.13Z" style="opacity:0.2"></path><path d="M146,412.92s-15.43-3.5-16.14-6h-9.79l-.81,9.33h5.44l1-.86,1.22.86c4.4,0,17.12,0,19.86-1.6C146.8,413.23,146,412.92,146,412.92Z" style="fill:#263238"></path><path d="M119.87,311.77c-8.17-55.51-8.17-89.88-8.17-89.88l36.4-.59s-4.37,66.2-5.89,93.93c-1.57,28.83-10.57,92.29-10.57,92.29H119S116,347.42,119.87,311.77Z" style="fill:#263238"></path><path d="M115.92,117.67c-1.73,10.89-4.87,16.73-7,22.14,3.67,3.42,11.53,7.65,19.46,7.54s6.49-5.48,4.36-8.25c-5.69-2.87-5.91-5.77-4.52-8.31Z" style="fill:#7f3e3b"></path><path d="M102.32,141.35s5.06-5.95,7.06-6.95,17.13,1,20.7,1.72,7.92,6,7.92,6Z" style="fill:#263238"></path><path d="M141,116.76c-.16.72.09,1.38.56,1.48s1-.4,1.14-1.12-.09-1.38-.56-1.48S141.14,116,141,116.76Z" style="fill:#263238"></path><path d="M140.71,117.75a26.08,26.08,0,0,0,2.06,6.87c-1.54.91-3.58-.1-3.58-.1Z" style="fill:#630f0f"></path><path d="M143.46,112.63a.41.41,0,0,1-.4,0,3.39,3.39,0,0,0-3.11.1.42.42,0,0,1-.59-.12.43.43,0,0,1,.12-.6,4.23,4.23,0,0,1,3.92-.18.43.43,0,0,1,.22.57A.38.38,0,0,1,143.46,112.63Z" style="fill:#263238"></path><path d="M117.18,109.46c-1.43,8.92-2.73,14.07.72,19.55,5.18,8.24,17,6.56,21.07-1.78,3.68-7.5,5.41-20.83-2.45-26.19A12.46,12.46,0,0,0,117.18,109.46Z" style="fill:#7f3e3b"></path><path d="M133.39,118c7.22,1.56,5.12-7.36,3.39-8.25,4.34,2.6,7.22-.42,7-3.14,3.32-.55,3.15-6,.87-6.17-1.44-3.77-8.17-6.94-9.42-4.61-3.63-4.22-13.35-3.5-11.94-.44-3.69-.72-11.55-.39-8.92,5.17-5.61.72-5.34,10.32-1.68,11.32-3.83,2.12-.12,9.36,1.53,13.9S132.31,126.28,133.39,118Z" style="fill:#263238"></path><path d="M129.28,117.09a7.61,7.61,0,0,0,1.18,5.45c1.41,2,3.59.75,4.44-1.66.76-2.16.94-5.8-1.07-6.89S129.65,114.65,129.28,117.09Z" style="fill:#7f3e3b"></path><path d="M102.83,140.35c12.3-1.51,29.75-1.38,41.33.64A13.17,13.17,0,0,1,155,152.91c1.44,17.67-2.47,48.55-5.85,79.64-27.25,9.14-54.91-.13-54.91-.13-.61-6.27,2.77-26.82,4.88-37.79-1.55-11.32-5.48-24.29-7.69-39.34A13.15,13.15,0,0,1,102.83,140.35Z" style="fill:#0058FF"></path><path d="M139.84,165.09c1.86,10.64,7.75,23.32,13.14,31.71.74-7.35,1.36-14.35,1.75-20.81Z" style="opacity:0.2"></path><path d="M229.93,140.44a17.77,17.77,0,0,0-19.06,30c-1.78,2.4-7,9.45-8.59,12.17-2,3.29-3,6.25-1.62,7.07s3.48-1.51,5.43-4.8c1.62-2.71,5.34-10.65,6.59-13.37a17.77,17.77,0,0,0,17.25-31.06Zm4.27,23.23a15.54,15.54,0,1,1-5.41-21.31A15.53,15.53,0,0,1,234.2,163.67Z" style="fill:#0058FF"></path><path d="M234.93,164.1a16.39,16.39,0,1,1-5.71-22.46A16.38,16.38,0,0,1,234.93,164.1Z" style="fill:#0058FF;opacity:0.2"></path><path d="M209.43,179.66l-2.17-1.92a3.36,3.36,0,0,0-3-.76l-5,1.14a6.28,6.28,0,0,0-4.4,3.72l-.48,1.16c3.37,3.43,9.54,4.66,9.54,4.66l1.73.54a2.79,2.79,0,0,0,3.57-1.76l1.13-3.39A3.27,3.27,0,0,0,209.43,179.66Z" style="fill:#7f3e3b"></path><path d="M154.47,149.29l2,4.39,2.11,4.48c1.41,3,2.9,5.89,4.39,8.72q1.13,2.12,2.32,4.11c.77,1.33,1.56,2.61,2.36,3.79A38.85,38.85,0,0,0,170,177.9c.7.86,1.42,1.48,1.44,1.58l-1.24-.51a12,12,0,0,0,4.36,1.1,43.06,43.06,0,0,0,6.37.08c2.28-.1,4.63-.34,7-.62,1.19-.15,2.4-.29,3.61-.47l3.58-.48.49-.07a5.26,5.26,0,0,1,3.6,9.6l-1.82,1.2-1.79,1.08c-1.21.69-2.43,1.36-3.69,2s-2.53,1.21-3.84,1.75-2.66,1-4,1.49a46,46,0,0,1-8.9,2,28.27,28.27,0,0,1-10.86-.66,4.81,4.81,0,0,1-.75-.28l-.48-.23a26.69,26.69,0,0,1-6.86-4.74,46.93,46.93,0,0,1-4.48-4.82,83.07,83.07,0,0,1-6.74-9.64c-2-3.23-3.74-6.51-5.39-9.8-.81-1.66-1.62-3.31-2.36-5-.37-.84-.75-1.69-1.1-2.54l-1.08-2.67a10.47,10.47,0,0,1,19.22-8.3Z" style="fill:#0058FF"></path></g></svg>