<?xml version="1.0" encoding="utf-8"?>
<!-- Generator: Adobe Illustrator 27.1.1, SVG Export Plug-In . SVG Version: 6.00 Build 0)  -->
<svg version="1.1" id="Layer_1" xmlns="http://www.w3.org/2000/svg" xmlns:xlink="http://www.w3.org/1999/xlink" x="0px" y="0px"
	 viewBox="0 0 300 306" style="enable-background:new 0 0 300 306;" xml:space="preserve">
<style type="text/css">
	.st0{fill:#0058FF;}
	.st1{fill:#473F47;}
	.st2{fill:#FFFFFF;}
	.st3{opacity:0.73;fill:#FFFFFF;enable-background:new    ;}
	.st4{fill:url(#SVGID_1_);}
	.st5{fill:#A0685B;}
	.st6{opacity:0.1;fill:#020202;enable-background:new    ;}
	.st7{fill:#7D443C;}
</style>
<g>
	<path class="st0" d="M97.2,35.5H182c9.5,0,17.1,7.7,17.1,17.1v195.9c0,9.5-7.7,17.1-17.1,17.1H97.2c-9.5,0-17.1-7.7-17.1-17.1V52.6
		C80,43.2,87.7,35.5,97.2,35.5z"/>
	<path class="st1" d="M98.9,38.4h81.3c9.1,0,16.5,7.4,16.5,16.5v190.9c0,9.1-7.4,16.5-16.5,16.5H98.9c-9.1,0-16.5-7.4-16.5-16.5
		V54.9C82.4,45.8,89.8,38.4,98.9,38.4z"/>
	<path class="st2" d="M193.6,56.8v184.8c-0.1,8.7-7.2,15.7-16,15.6h-76.1c-2.8,0-5.5-0.8-7.9-2.2c-4.9-2.7-8-7.9-8-13.6V56.8
		c0.1-8.7,7.2-15.7,16-15.7h13v2.3c0,3,1.9,5.8,4.7,6.9c0.9,0.4,1.9,0.6,2.9,0.6h35.4c4.2,0,7.7-3.3,7.7-7.6l0,0v-2.2h12.5
		c4.1,0,8,1.5,11,4.3C191.9,48.5,193.6,52.5,193.6,56.8z"/>
	<path class="st0" d="M193.6,56.8v184.8c-0.1,8.7-7.2,15.7-16,15.6h-76.1c-2.8,0-5.5-0.8-7.9-2.2c-3.1-2.9-4.9-7-4.9-11.3V59.1
		c0.1-8.7,7.2-15.7,16-15.6l0,0h9.7c0.1,3.1,2,5.8,4.8,6.9c1.5,1.8,3.7,2.8,6,2.8h35.4c4.2,0.1,7.7-3.3,7.8-7.5l0,0v-2.2h12.5
		c2.8,0,5.5,0.8,7.9,2.2C191.8,48.5,193.6,52.6,193.6,56.8z"/>
	<path class="st1" d="M121,205.8c0-3,0.7-5.9,1.9-8.6l-13-7.1c-2.4,4.9-3.7,10.3-3.8,15.7c0,16.4,11.1,30.7,27,34.7l2.6-14.6
		C127,223.2,121,215,121,205.8z"/>
	<path class="st3" d="M172.7,224.2c-8.1,13.5-24.2,20.1-39.5,16.3l2.6-14.6c9,2.7,18.7-0.9,23.8-8.8L172.7,224.2z"/>
	<path class="st2" d="M177.8,205.8c0,6.5-1.8,12.8-5.1,18.4l-13-7.1c6.4-9.7,3.8-22.7-5.9-29.1c-9.7-6.4-22.7-3.8-29.1,5.9
		c-0.7,1-1.2,2.1-1.7,3.2l-13-7.1c8.9-17.6,30.4-24.7,48.1-15.8C170.1,180.2,177.7,192.4,177.8,205.8z"/>
	<path class="st3" d="M96.8,83.1h86.5c2.5,0,4.5,2,4.5,4.5v60.3c0,2.5-2,4.5-4.5,4.5H96.8c-2.5,0-4.5-2-4.5-4.5V87.6
		C92.3,85.1,94.3,83.1,96.8,83.1z"/>
	<polygon class="st2" points="96.7,112.1 111.9,97.9 132.9,123.2 151.2,107.1 158.8,113.7 175.9,90.9 184.5,101.3 184.5,147.1 
		96.7,147.1 	"/>
	<polygon class="st0" points="132.8,123.8 111.9,98.6 97,112.4 96.4,111.7 112,97.2 132.9,122.5 151.2,106.5 158.8,113 175.9,90.1 
		184.9,101 184.2,101.6 175.9,91.6 158.9,114.3 151.2,107.7 	"/>
	<circle class="st0" cx="111.8" cy="97.9" r="1.9"/>
	<circle class="st0" cx="133.2" cy="123.1" r="1.9"/>
	<circle class="st0" cx="151.2" cy="107.1" r="1.9"/>
	<circle class="st0" cx="158.8" cy="113.7" r="1.9"/>
	<circle class="st0" cx="175.9" cy="90.9" r="1.9"/>
	<circle class="st0" cx="184.5" cy="101.3" r="1.9"/>
	<path class="st2" d="M48.4,135.5h54c4.1,0,7.5,3.4,7.5,7.5v54c0,4.1-3.4,7.5-7.5,7.5h-54c-4.1,0-7.5-3.4-7.5-7.5v-54
		C40.9,138.8,44.3,135.5,48.4,135.5z"/>
	<circle class="st0" cx="74.2" cy="167.6" r="20"/>
	<path class="st1" d="M74.2,144.1v24.4L95.6,153C95.6,153,85.9,142.1,74.2,144.1z"/>
	
		<linearGradient id="SVGID_1_" gradientUnits="userSpaceOnUse" x1="290.1779" y1="-34.5771" x2="284.5379" y2="41.4929" gradientTransform="matrix(2.1592 0 0 2.1592 -415.4189 264.5295)">
		<stop  offset="1.000000e-02" style="stop-color:#000000"/>
		<stop  offset="8.000000e-02" style="stop-color:#000000;stop-opacity:0.69"/>
		<stop  offset="0.21" style="stop-color:#000000;stop-opacity:0.32"/>
		<stop  offset="1" style="stop-color:#000000;stop-opacity:0"/>
	</linearGradient>
	<path class="st4" d="M226.6,254.4l25,1.9c1.2,0,2.4,0.3,3.4,0.9c1.5,1.2,2.1,3.3,1.4,5.1c-0.7,1.8-1.9,3.3-3.4,4.4
		c-9.1,7.4-21.8,7.7-33.6,7.6l-55.3-0.3c-2.1,0.1-4.3-0.2-6.3-0.9c-2-0.8-3.4-2.8-3.3-5c0.5-1.9,1.8-3.5,3.5-4.3
		c5-2.7,10.4-4.4,16-5.1c8.4-1.4,16.9-2.9,25.3-4.3"/>
	<path class="st5" d="M210.6,259.4c0.1,1.3-0.2,2.6-0.7,3.8c-0.6,1.1-1.6,2-2.7,2.5c-2.5,1.3-5.3,1.6-8,0.8
		c-0.4-0.1-0.7-0.3-0.9-0.5c-0.1-0.2-0.2-0.5-0.2-0.8c0.2-1.5,1-2.8,2.2-3.8c1.1-0.9,2.1-2,2.9-3.3c1.2-2.5,0.3-9,5-8
		C211.9,250.9,210.7,256.6,210.6,259.4z"/>
	<path class="st0" d="M211.3,263.8c0,0,0.6,1.6-0.2,2.6s-9.2,6.2-14.8,2s7.6-4.7,7.6-4.7L211.3,263.8z"/>
	<path class="st2" d="M210.9,260c-0.5-0.3-1.2-0.1-1.5,0.4c-1.1,1.2-2.8,1.8-4.4,1.5c-1.8-0.5-2.6-2.6-3.5-2.6s-5.8,4.1-6.1,5.9
		s2.2,3.1,5,3.3c2.8,0.2,9-1.7,10.2-3.2C211.6,263.8,211.7,261.8,210.9,260z"/>
	<path class="st5" d="M226.6,262c0.1,1.3-0.2,2.6-0.7,3.8c-0.6,1.1-1.6,2-2.7,2.5c-2.5,1.3-5.3,1.6-8,0.8c-0.4-0.1-0.7-0.3-0.9-0.5
		c-0.1-0.2-0.2-0.5-0.2-0.8c0.2-1.5,1-2.8,2.2-3.8c1.1-0.9,2.1-2,2.9-3.3c1.2-2.5,0.3-9,5-8C227.9,253.5,226.6,259.2,226.6,262z"/>
	<path class="st0" d="M227.2,266.4c0,0,0.6,1.6-0.2,2.6c-0.8,1-9.2,6.2-14.8,2s7.6-4.7,7.6-4.7L227.2,266.4z"/>
	<path class="st2" d="M226.9,262.6c-0.5-0.3-1.2-0.1-1.5,0.4c-1.1,1.3-2.8,1.9-4.5,1.6c-1.8-0.5-2.6-2.6-3.5-2.6s-5.8,4.1-6.1,5.9
		s2.2,3.1,5,3.3c2.8,0.2,9-1.7,10.2-3.2C227.5,266.4,227.7,264.4,226.9,262.6z"/>
	<path class="st1" d="M229.9,193.1c0,0,0.9,47.8-2.7,63.8l-9,1.1l-6.2-65.5L229.9,193.1z"/>
	<path class="st1" d="M202.1,187.9c0,0-4.3,25.9,0.9,67.3l9,1.1l6.2-65.6L202.1,187.9z"/>
	<path class="st2" d="M191.6,167.3c0,1.7,0.7,3.2,2.2,3.7h0.4c2.8,0.6,6.5-1.6,8.9-3.4c1-0.8,2-1.6,3-2.4v-18.4l-13.4,13.8
		C191.9,162.8,191.6,165,191.6,167.3z"/>
	<path class="st2" d="M202.9,167.7c0,0.8,0,1.7,0,2.6c0,4.8,1.1,9.7-0.3,14.4c-0.5,1-0.6,2.1-0.4,3.2c0.4,0.9,1.1,1.5,2,1.9
		c4.3,2,9,3.3,13.8,3.7c3.6,0.5,8.6,1.6,11.9-0.4c1.2-0.9,2.1-2.3,2.3-3.9c1.3-4.9,2-10,2.2-15.1c0-0.7,0-1.3,0.1-2
		c0.3-4.6,0.4-9.2,0.3-13.7c0-3.3-0.3-6.9-2.5-9.4c-3.5-3.4-7.9-5.6-12.7-6.3c-1.4-0.3-2.8-0.3-4.2-0.2c-2,0.3-3.9,1-5.6,1.9
		c-2.1,0.7-3.9,2.1-5,4c-1.1,2.4-1.9,4.9-2.4,7.6c-0.4,2.5-0.4,5-0.1,7.4c0.1,1.2,0.4,2.4,0.6,3.6
		C202.9,167.3,202.9,167.5,202.9,167.7z"/>
	<path class="st6" d="M222.4,194.8c1.4,0.4,4.6-0.9,5.6-1c0.6-0.1,1.2-0.4,1.8-0.6c3.2-0.8,3.5-9.7,3.8-12.1
		c1.1-6.4,1.8-12.8,2.2-19.2c0.1-2.4-0.1-4.9-0.8-7.2c-0.7-2.4-2.4-4.3-4.7-5.3c-4-1.5-5.2,11.3-5.8,14l-3,14.4
		c-0.4,1.8-0.7,3.6-0.8,5.4c0.1,2.2,0.5,4.4,1.4,6.5c0.4,1.3-0.6,3.7-0.2,4.6C222,194.5,222.2,194.7,222.4,194.8z"/>
	<path class="st5" d="M212.7,138.9c0.5,0.5,1.2,0.9,1.9,1c0.6,0.1,1.3,0.1,1.9,0h0.4c0.2,0,0.3,0.1,0.4,0.2v0.1
		c0.1,1.3,0.1,2.5,0,3.8l0,0v0.7c-0.1,0.2-0.1,0.5,0,0.7c0.2,0.3,0.5,0.4,0.8,0.5c0.6,0.2,1.1,0.3,1.7,0.3c1.2-0.1,2.4-0.5,3.5-1.2
		c-0.1-2.2,0-4.3,0.3-6.5c0.6-2.7,1-5.4,1-8.2c-0.1-1.1-0.5-2.1-1.1-3c-1.1-1-2.6-1.6-4.1-1.5c-2,0-3.9,0.5-5.6,1.5
		c-0.5,0.4-0.8,1-0.8,1.7c-0.2,1.1-0.4,2.2-0.5,3.3s-0.2,2.5-0.2,3.8C211.9,137,212.2,138,212.7,138.9z"/>
	<path class="st1" d="M214.9,127.9l0.3,0.1c0.3,0.1,0.6,0.2,0.8,0.2c0.3,0,0.6-0.1,0.7-0.4c-0.1,0.2,0,0.4,0.2,0.6
		c0.2,0.1,0.4,0.2,0.6,0.3c0.3,0.1,0.7,0.2,1.1,0.3c0.4,0,0.7-0.1,1-0.3c0.2,0.3,0.6,0.5,0.9,0.8c0.3,0.4,0.6,0.8,0.7,1.3
		c0.3,0.9,0.3,1.9,0,2.9c0.5,0.2,0.6-0.8,1.1-1.2c0.4-0.4,1.3,0.2,1.4,0.8c0,0.7-0.2,1.3-0.6,1.9c-0.3,0.8-0.9,5.3,1.1,3.7
		c0.4-0.3,0.6-0.8,0.8-1.3l1.1-3.2c0.4,0.1,0.8-0.1,1-0.5c0.1-0.4,0-0.8-0.3-1c0.5,0.3,1.2,0.2,1.5-0.3c0.2-0.3,0.3-0.7,0.1-1
		c0.6-0.1,1-0.6,1-1.2c0-0.6-0.5-1.1-1.1-1.1c0.8-0.3,1.2-1.1,0.9-1.9s-1.1-1.2-1.9-0.9l0,0c0.5-1.1,0.1-2.3-0.8-3
		c-0.6-0.5-1.4-0.8-2.2-0.8c-0.2,0-0.5,0-0.6,0s-0.2-0.4-0.2-0.5c-0.2-0.3-0.5-0.5-0.9-0.6c-0.5-0.1-1.1,0.1-1.4,0.5
		c-0.2-0.8-0.8-1.4-1.6-1.7c-0.8-0.2-1.6,0.2-2,0.9c-0.4-0.4-0.9-0.7-1.5-0.9c-0.3-0.1-0.7-0.2-1-0.1c-0.7,0.2-1.2,0.8-1.3,1.6
		c-0.2,0-0.3,0-0.5-0.1c-0.4-0.1-0.8,0.2-0.9,0.6c-0.1,0.4,0.1,0.8,0.4,1c-0.3,0.1-0.5,0.3-0.6,0.6c-0.1,0.3,0,0.6,0.3,0.6
		c-0.4,0.3-0.6,0.9-0.3,1.3c0.2,0.3,0.6,0.5,1,0.4c-0.2,0-0.4,0.2-0.5,0.5c-0.1,0.2-0.1,0.5,0,0.7c0,0.1,0,0.1,0,0.2
		c0.1,0,0.1,0,0.2,0c0.5,0,1,0,1.2-0.3c0,0.2,0.2,0.3,0.4,0.4L214.9,127.9z"/>
	<path class="st7" d="M216.5,139.8h0.4c0.2,0,0.3,0.1,0.4,0.2v0.1c0.1,1.3,0.1,2.5,0,3.8l0,0c2.3-0.7,3.7-3,3.5-5.3
		c-1.4,0.6-2.8,1-4.3,1.3h0V139.8z"/>
	<path class="st2" d="M180.4,162.6c1.8,2.5,4,4.7,6.5,6.5c1.8,1.2,3.9,2,6.1,2.2c0.3,0.1,0.6,0.1,0.8,0c0.5-0.1,0.9-0.4,1.2-0.8
		c0.9-1.1,1.5-2.4,1.6-3.8c0.2-3.7-3.8-5.8-3.8-5.8s-9.2-3.1-10.2-2.6c-0.6,0.3-1.1,1.5-1.5,2.7
		C180.5,161.9,180.4,162.6,180.4,162.6z"/>
	<path class="st6" d="M180.4,162.6c1.8,2.5,4,4.7,6.5,6.5c1.8,1.2,3.9,2,6.1,2.2c0.3,0.1,0.6,0.1,0.8,0h0.4c2.8,0.6,6.5-1.6,8.9-3.4
		l0,0l-0.9-5.5c-1.6,1.7-3.6,3.2-5.7,4.3c-1.5,0.8-3.2,1.1-4.9,0.9c-0.5-0.1-0.9-0.2-1.3-0.4c-3.4-1.6-6.5-3.7-9.3-6.1
		C180.6,161.7,180.4,162.6,180.4,162.6z"/>
	<path class="st2" d="M240.6,168.6c1.4,3.2,2,6.6,1.8,10.1c-0.6,4.1-3.4,7.6-6,10.8c-2.2,0.3-4.8,0.3-5.6-1.7
		c-0.2-0.6-0.2-1.3-0.1-2l0.3-4.3c0.2-1.9,0.1-3.8-0.3-5.7c-0.8-2-1.9-3.9-3.2-5.7c-1.9-3-3-6.5-3.2-10c-0.2-3.3,2.3-14.1,7.2-10.8
		c2,1.3,3.8,6.8,4.9,9.1C237.9,161.7,239.3,165.1,240.6,168.6z"/>
	<path class="st5" d="M229.5,192.4c-0.1,0.2-0.2,0.4-0.2,0.6c0,0.2,0.2,0.4,0.4,0.3c0.5,1.5-0.5,3.2-0.5,4.8c0,0.1,0,0.3,0,0.4
		c0.1,0.2,0.2,0.3,0.4,0.5c0.6,0.3,1.2,0.4,1.8,0.1c0.6-0.3,1.1-0.7,1.5-1.1c1-0.8,1.7-1.9,2.2-3.1c0.2-0.6,0.3-1.1,0.3-1.7l0.5-4.3
		C232.7,187.8,230.9,189.9,229.5,192.4z"/>
	<path class="st5" d="M180.9,154.6c-0.1-0.3-0.2-0.6-0.5-0.8c-0.2-0.2-0.6-0.2-0.8,0c-0.1,0.2-0.1,0.3-0.2,0.5
		c-0.2,0.4-0.6,0.6-1,0.6s-0.8-0.1-1.2-0.3c-1.1-0.4-2.2-0.7-3.3-1c-0.3-0.1-0.5-0.1-0.8,0s-0.5,0.4-0.6,0.7
		c-0.5,1.4-0.2,2.9,0.7,4.1c0.9,1.1,2.2,2,3.6,2.3c1.4,0.4,2.9,0.6,4.3,0.6c0.4,0.1,0.7,0,1.1-0.1
		C184,160.3,181.4,155.8,180.9,154.6z"/>
</g>
</svg>
