<svg width="144" height="147" viewBox="0 0 144 147" fill="none" xmlns="http://www.w3.org/2000/svg">
    <g filter="url(#x569zaokda)">
        <path d="M121.52 78.321c0-31.316-25.412-56.703-56.76-56.703S8 47.005 8 78.321c0 31.316 25.412 56.703 56.76 56.703s56.76-25.387 56.76-56.703z" fill="url(#yeo2owtr0b)"/>
        <path d="M65.797 72.496V12.804c0-2.835 2.333-5.001 5.033-4.79 15.76 1.257 30.653 8.374 41.904 20.149 11.251 11.775 18.051 27.362 19.252 43.855.206 2.826-1.868 5.268-4.573 5.268h-57.04c-2.526 0-4.576-2.145-4.576-4.79z" fill="url(#qo3oc303tc)"/>
        <path d="M55.826 103.409c.16.843.651 1.264 1.472 1.264.566 0 .966-.25 1.2-.752.235-.501.352-1.317.352-2.448a2.292 2.292 0 0 1-.96.768 3.283 3.283 0 0 1-1.36.272c-.682 0-1.29-.138-1.824-.416a3.133 3.133 0 0 1-1.264-1.264c-.298-.565-.448-1.248-.448-2.047 0-.79.16-1.478.48-2.064.331-.587.795-1.04 1.392-1.36.608-.32 1.323-.48 2.144-.48 1.579 0 2.683.49 3.312 1.471.63.982.944 2.427.944 4.336 0 1.387-.128 2.534-.384 3.44-.245.896-.666 1.579-1.264 2.048-.586.47-1.392.704-2.416.704-.81 0-1.504-.16-2.08-.48a3.477 3.477 0 0 1-1.312-1.264 3.973 3.973 0 0 1-.512-1.728h2.528zm1.328-3.056c.448 0 .806-.133 1.072-.4.267-.277.4-.65.4-1.12 0-.511-.138-.906-.416-1.183-.277-.278-.65-.416-1.12-.416-.469 0-.842.144-1.12.431-.266.278-.4.662-.4 1.152 0 .46.134.833.4 1.12.278.278.672.416 1.184.416zm4.372.48c0-1.834.352-3.28 1.056-4.335.715-1.056 1.861-1.585 3.44-1.585s2.72.529 3.424 1.585c.715 1.055 1.072 2.5 1.072 4.335 0 1.856-.357 3.312-1.072 4.368-.704 1.056-1.845 1.584-3.424 1.584s-2.725-.528-3.44-1.584c-.704-1.056-1.056-2.512-1.056-4.368zm6.304 0c0-1.077-.117-1.903-.352-2.48-.235-.586-.72-.88-1.456-.88s-1.221.294-1.456.88c-.235.577-.352 1.403-.352 2.48 0 .726.043 1.328.128 1.808.085.47.256.854.512 1.152.267.288.656.432 1.168.432.512 0 .896-.144 1.152-.432.267-.298.443-.682.528-1.152.085-.48.128-1.082.128-1.808zm2.934 0c0-1.834.352-3.28 1.056-4.335.714-1.056 1.86-1.585 3.44-1.585 1.578 0 2.72.529 3.424 1.585.714 1.055 1.072 2.5 1.072 4.335 0 1.856-.358 3.312-1.072 4.368-.704 1.056-1.846 1.584-3.424 1.584-1.58 0-2.726-.528-3.44-1.584-.704-1.056-1.056-2.512-1.056-4.368zm6.304 0c0-1.077-.118-1.903-.352-2.48-.235-.586-.72-.88-1.456-.88s-1.222.294-1.456.88c-.235.577-.352 1.403-.352 2.48 0 .726.042 1.328.128 1.808.085.47.256.854.512 1.152.266.288.656.432 1.168.432.512 0 .896-.144 1.152-.432.266-.298.442-.682.528-1.152.085-.48.128-1.082.128-1.808z" fill="#FFDEDE"/>
        <path d="M84.983 44.158v-2.544h4.432v11.68h-2.848v-9.136h-1.584zm5.103 3.136c0-1.834.353-3.28 1.056-4.336.715-1.056 1.862-1.584 3.44-1.584 1.58 0 2.72.528 3.425 1.584.714 1.056 1.072 2.502 1.072 4.336 0 1.856-.358 3.312-1.072 4.368-.705 1.056-1.846 1.584-3.425 1.584-1.578 0-2.725-.528-3.44-1.584-.703-1.056-1.055-2.512-1.055-4.368zm6.305 0c0-1.077-.118-1.904-.353-2.48-.234-.586-.72-.88-1.456-.88-.735 0-1.22.294-1.456.88-.234.576-.352 1.403-.352 2.48 0 .726.043 1.328.129 1.808.085.47.255.854.511 1.152.267.288.656.432 1.168.432.513 0 .897-.144 1.153-.432.266-.298.442-.682.528-1.152.085-.48.127-1.082.127-1.808zm2.933 0c0-1.834.352-3.28 1.056-4.336.715-1.056 1.861-1.584 3.44-1.584s2.72.528 3.424 1.584c.715 1.056 1.072 2.502 1.072 4.336 0 1.856-.357 3.312-1.072 4.368-.704 1.056-1.845 1.584-3.424 1.584s-2.725-.528-3.44-1.584c-.704-1.056-1.056-2.512-1.056-4.368zm6.304 0c0-1.077-.117-1.904-.352-2.48-.235-.586-.72-.88-1.456-.88s-1.221.294-1.456.88c-.235.576-.352 1.403-.352 2.48 0 .726.043 1.328.128 1.808.085.47.256.854.512 1.152.267.288.656.432 1.168.432.512 0 .896-.144 1.152-.432.267-.298.443-.682.528-1.152.085-.48.128-1.082.128-1.808z" fill="#FFF6F1"/>
    </g>
    <defs>
        <linearGradient id="yeo2owtr0b" x1="24.623" y1="38.225" x2="104.816" y2="118.498" gradientUnits="userSpaceOnUse">
            <stop stop-color="#FF6464"/>
            <stop offset="1" stop-color="#FF540B"/>
        </linearGradient>
        <linearGradient id="qo3oc303tc" x1="83.136" y1="33.72" x2="114.121" y2="68.001" gradientUnits="userSpaceOnUse">
            <stop stop-color="#FFA06B"/>
            <stop offset="1" stop-color="#FF8A48"/>
        </linearGradient>
        <filter id="x569zaokda" x="4" y="3" width="140" height="143.024" filterUnits="userSpaceOnUse" color-interpolation-filters="sRGB">
            <feFlood flood-opacity="0" result="BackgroundImageFix"/>
            <feColorMatrix in="SourceAlpha" values="0 0 0 0 0 0 0 0 0 0 0 0 0 0 0 0 0 0 127 0" result="hardAlpha"/>
            <feOffset dx="4" dy="3"/>
            <feGaussianBlur stdDeviation="4"/>
            <feComposite in2="hardAlpha" operator="out"/>
            <feColorMatrix values="0 0 0 0 0 0 0 0 0 0 0 0 0 0 0 0 0 0 0.1 0"/>
            <feBlend in2="BackgroundImageFix" result="effect1_dropShadow_340_2589"/>
            <feBlend in="SourceGraphic" in2="effect1_dropShadow_340_2589" result="shape"/>
        </filter>
    </defs>
</svg>
