<svg width="144" height="144" viewBox="0 0 144 144" fill="none" xmlns="http://www.w3.org/2000/svg">
    <g filter="url(#py0el6n4oa)">
        <path d="M67.765 109.388a11.333 11.333 0 0 1-3.673-7.918 11.325 11.325 0 0 1 3.023-8.188 2.372 2.372 0 0 0 .48-2.48 31.32 31.32 0 0 0-1.46-3.175 2.316 2.316 0 0 0-2.15-1.24 11.147 11.147 0 0 1-8.188-2.985 11.312 11.312 0 0 1-3.615-7.986 2.334 2.334 0 0 0-1.398-2.056 31.18 31.18 0 0 0-3.252-1.204 2.33 2.33 0 0 0-2.418.685 11.17 11.17 0 0 1-7.875 3.703 11.155 11.155 0 0 1-8.147-3.058A2.332 2.332 0 0 0 26.624 73a30.998 30.998 0 0 0-3.136 1.457 2.328 2.328 0 0 0-1.232 2.169 11.35 11.35 0 0 1-2.96 8.27 11.176 11.176 0 0 1-7.955 3.639 2.323 2.323 0 0 0-2.052 1.41 30.937 30.937 0 0 0-1.187 3.257 2.364 2.364 0 0 0 .681 2.439 11.31 11.31 0 0 1 3.686 7.941 11.329 11.329 0 0 1-3.041 8.211 2.372 2.372 0 0 0-.484 2.484c.426 1.078.91 2.129 1.447 3.143a2.309 2.309 0 0 0 2.159 1.24c2.92-.158 5.9.825 8.224 2.981a11.322 11.322 0 0 1 3.619 8.004 2.332 2.332 0 0 0 1.402 2.06c1.053.456 2.132.857 3.238 1.195a2.33 2.33 0 0 0 2.42-.685 11.176 11.176 0 0 1 7.878-3.707c3.642-.148 6.947 1.466 9.11 4.086h.005a31.038 31.038 0 0 0 4.64-2.02 2.338 2.338 0 0 0 1.233-2.165 11.335 11.335 0 0 1 2.965-8.256 11.161 11.161 0 0 1 7.923-3.639 2.315 2.315 0 0 0 2.043-1.411c.457-1.065.86-2.16 1.2-3.283a2.378 2.378 0 0 0-.676-2.435l-.009.004z" fill="url(#t5sv8nt4tb)"/>
        <path d="M131.853 54.336c-.112-1.43-1.053-2.638-2.379-3.152a17.736 17.736 0 0 1-9.908-9.515 17.902 17.902 0 0 1-.219-13.78c.528-1.325.286-2.845-.681-3.896a49.433 49.433 0 0 0-3.978-3.855c-1.093-.947-2.633-1.127-3.955-.541a17.57 17.57 0 0 1-13.648.302c-4.596-1.808-8.018-5.334-9.827-9.564-.57-1.335-1.823-2.25-3.266-2.304a48.833 48.833 0 0 0-5.505.113c-1.42.108-2.62 1.06-3.13 2.399-1.64 4.315-4.928 7.99-9.465 9.987a17.563 17.563 0 0 1-13.72.208c-1.321-.532-2.83-.289-3.874.685a49.474 49.474 0 0 0-3.803 3.973c-.945 1.104-1.124 2.66-.538 3.99a17.904 17.904 0 0 1 .318 13.771 17.757 17.757 0 0 1-9.531 9.907c-1.33.577-2.249 1.84-2.298 3.3a50.257 50.257 0 0 0 .112 5.507c.107 1.429 1.052 2.642 2.387 3.156a17.699 17.699 0 0 1 9.465 8.522c.246-.225.479-.46.703-.708a2.335 2.335 0 0 1 2.423-.68c1.111.342 2.195.743 3.252 1.203a2.328 2.328 0 0 1 1.398 2.061 11.33 11.33 0 0 0 3.614 7.986 11.172 11.172 0 0 0 8.188 2.985 2.316 2.316 0 0 1 2.15 1.24 31.866 31.866 0 0 1 1.46 3.179 2.374 2.374 0 0 1-.483 2.48 11.22 11.22 0 0 0-1.702 2.39c.658.176 1.317.388 1.966.65 4.605 1.812 8.027 5.343 9.84 9.581.57 1.339 1.828 2.255 3.275 2.309 1.819.063 3.646.027 5.478-.113 1.42-.108 2.625-1.06 3.131-2.399 1.64-4.32 4.927-7.999 9.465-9.997a17.568 17.568 0 0 1 13.424-.329 4.151 4.151 0 0 0 4.376-.893c1.227-1.177 2.71-2.647 3.592-3.688.919-1.073 1.156-2.602.578-3.891a17.892 17.892 0 0 1-.345-13.848 17.727 17.727 0 0 1 9.487-9.884c1.326-.578 2.235-1.84 2.289-3.292.063-1.84.031-3.693-.112-5.55l-.004-.005zM91.504 79.524c-11.74 5.172-25.42-.216-30.553-12.035-5.137-11.819.22-25.59 11.955-30.757 11.74-5.172 25.42.216 30.553 12.035 5.138 11.818-.22 25.59-11.955 30.757z" fill="url(#4q5nla7twc)"/>
        <path d="M45.599 107.82c2.906-4.077 1.979-9.753-2.072-12.679-4.05-2.925-9.688-1.992-12.594 2.086-2.906 4.077-1.979 9.753 2.071 12.679 4.05 2.925 9.689 1.992 12.595-2.086z" fill="#fff"/>
    </g>
    <defs>
        <linearGradient id="t5sv8nt4tb" x1="8.762" y1="90.95" x2="67.662" y2="113.785" gradientUnits="userSpaceOnUse">
            <stop stop-color="#7DE0A5"/>
            <stop offset="1" stop-color="#31D084"/>
        </linearGradient>
        <linearGradient id="4q5nla7twc" x1="52.318" y1="25.854" x2="118.026" y2="91.125" gradientUnits="userSpaceOnUse">
            <stop stop-color="#40C2BB"/>
            <stop offset="1" stop-color="#159981"/>
        </linearGradient>
        <filter id="py0el6n4oa" x="4" y="3" width="140" height="141" filterUnits="userSpaceOnUse" color-interpolation-filters="sRGB">
            <feFlood flood-opacity="0" result="BackgroundImageFix"/>
            <feColorMatrix in="SourceAlpha" values="0 0 0 0 0 0 0 0 0 0 0 0 0 0 0 0 0 0 127 0" result="hardAlpha"/>
            <feOffset dx="4" dy="3"/>
            <feGaussianBlur stdDeviation="4"/>
            <feComposite in2="hardAlpha" operator="out"/>
            <feColorMatrix values="0 0 0 0 0 0 0 0 0 0 0 0 0 0 0 0 0 0 0.1 0"/>
            <feBlend in2="BackgroundImageFix" result="effect1_dropShadow_341_3034"/>
            <feBlend in="SourceGraphic" in2="effect1_dropShadow_341_3034" result="shape"/>
        </filter>
    </defs>
</svg>
