<svg xmlns="http://www.w3.org/2000/svg" width="50" height="52" viewBox="0 0 50 52">
    <g fill="none" fill-rule="evenodd">
        <g fill-rule="nonzero">
            <g>
                <g transform="translate(-462 -1311) translate(448 1298) translate(14.58 13.23)">
                    <g fill="#0059FF" opacity=".65">
                        <path d="M0 0H24.24V7.2H0z" transform="translate(20.985 37.14)"/>
                        <path d="M0 0H24.24V7.2H0z" opacity=".2" transform="translate(20.985 37.14)"/>
                    </g>
                    <path fill="#FFF" d="M20.985 44.341H48.84V51.541000000000004H20.985zM17.235 29.941H48.84V37.141H17.235z"/>
                    <path fill="#0059FF" d="M16.875 44.341H48.84V51.541000000000004H16.875zM17.235 29.941H48.84V37.141H17.235z" opacity=".85"/>
                    <path fill="#0059FF" d="M44.4 37.141L20.985 38.716 20.985 37.141z" opacity=".2"/>
                    <path fill="#0059FF" d="M37.38 35.596c-.01-1.918-.304-3.823-.87-5.655H17.235v7.2h3.75v14.4H28.8c5.367-3.527 8.593-9.523 8.58-15.945z" opacity=".2"/>
                    <path fill="#0059FF" d="M6.525 11.1v10.08h4.5V10.547c.008-3.68 2.994-6.66 6.675-6.66 3.68.008 6.66 2.994 6.66 6.675v10.71h4.5V11.116C28.86 4.983 23.893.009 17.76 0c-2.967-.036-5.825 1.117-7.936 3.203-2.111 2.085-3.299 4.93-3.299 7.897z"/>
                    <circle cx="17.73" cy="33.811" r="17.73" fill="#FFF"/>
                    <circle cx="17.73" cy="33.811" r="17.73" fill="#0059FF" opacity=".2"/>
                    <circle cx="17.7" cy="33.811" r="11.04" fill="#0059FF" opacity=".2"/>
                    <path fill="#0059FF" d="M20.88 32.22c.012-1.541-1.09-2.867-2.608-3.139-1.518-.27-3.011.592-3.534 2.042-.523 1.451.075 3.068 1.417 3.828v3.585h3.165v-3.6c.97-.56 1.565-1.596 1.56-2.715z"/>
                </g>
            </g>
        </g>
    </g>
</svg>
