<svg width="60" height="60" viewBox="0 0 60 60" fill="none" xmlns="http://www.w3.org/2000/svg">
    <path fill-rule="evenodd" clip-rule="evenodd" d="M9 5a5 5 0 0 0-5 5v16a5 5 0 0 0 5 5h1v3.89a1 1 0 0 0 1.633.774l5.7-4.664H31a5 5 0 0 0 5-5V10a5 5 0 0 0-5-5H9z" fill="url(#72wky1a0pa)"/>
    <path fill-rule="evenodd" clip-rule="evenodd" d="m18.341 20.7.062.217h2.485l-.028-.326a8.963 8.963 0 0 1-.036-.77c0-.32.09-.568.26-.766.2-.236.537-.542 1.023-.92.447-.35.813-.667 1.094-.95.31-.311.568-.693.776-1.138.22-.468.323-1.013.323-1.625 0-.687-.189-1.318-.564-1.885-.376-.58-.904-1.027-1.573-1.344-.66-.331-1.404-.493-2.228-.493-.902 0-1.67.153-2.29.478-.578.303-1.015.617-1.275.951l-.005.007a9.882 9.882 0 0 0-.626.972l-.156.275 2.439 1.226.104-.34c.033-.11.112-.254.258-.435.142-.173.335-.327.587-.46l.01-.005c.229-.13.507-.2.844-.2.572 0 .972.15 1.244.414l.008.007c.289.26.434.59.434 1.017 0 .449-.118.806-.34 1.09l-.005.006c-.237.318-.608.688-1.126 1.112-.573.464-1.022.9-1.335 1.307l-.004.005c-.329.446-.482 1-.482 1.64 0 .331.04.643.122.932zm-1.518-8.617a1.895 1.895 0 0 0-.216.23 9.159 9.159 0 0 0-.607.944l1.839.924L16 13.256c.196-.345.398-.66.607-.943a1.9 1.9 0 0 1 .216-.23zm1.513 1.368c.14-.129.306-.242.496-.343.282-.16.613-.24.993-.24.625 0 1.11.166 1.453.5.356.32.533.733.533 1.239 0 .505-.135.93-.404 1.276.27-.346.404-.771.404-1.277 0-.505-.177-.918-.533-1.239-.343-.333-.827-.5-1.453-.5-.38 0-.71.081-.993.241-.19.1-.356.214-.496.343zm1.344 4.07a6.357 6.357 0 0 0-.738.784c-.282.383-.423.87-.423 1.461 0 .309.037.592.11.851h1.932-1.931a3.103 3.103 0 0 1-.11-.85c0-.593.14-1.08.422-1.462.19-.246.436-.508.738-.785zm-1.084 7.316.005.005.005.005c.317.304.712.453 1.164.453.442 0 .83-.151 1.145-.453l.006-.005c.314-.316.473-.707.473-1.155 0-.456-.157-.85-.476-1.157a1.573 1.573 0 0 0-1.148-.475c-.456 0-.853.16-1.17.477-.306.309-.454.702-.454 1.155 0 .444.15.833.45 1.15zm.264-2.137-.046.044c-.246.247-.368.56-.368.943 0 .37.122.684.368.943a1.329 1.329 0 0 1 0 0 1.321 1.321 0 0 1-.368-.943c0-.382.123-.697.368-.943l.046-.044z" fill="#F4FFFD"/>
    <path fill-rule="evenodd" clip-rule="evenodd" d="M29 24a5 5 0 0 0-5 5v16a5 5 0 0 0 5 5h13.667l5.7 4.664A1 1 0 0 0 50 53.89V50h1a5 5 0 0 0 5-5V29a5 5 0 0 0-5-5H29z" fill="url(#2tsm9e70ub)"/>
    <rect x="30" y="33" width="19" height="3" rx="1.5" fill="#F4F8FF"/>
    <rect x="30" y="39" width="16" height="3" rx="1.5" fill="#F4F8FF"/>
    <defs>
        <linearGradient id="72wky1a0pa" x1="4" y1="5" x2="36" y2="36" gradientUnits="userSpaceOnUse">
            <stop stop-color="#55F9D9"/>
            <stop offset="1" stop-color="#00CEA6"/>
        </linearGradient>
        <linearGradient id="2tsm9e70ub" x1="26" y1="26" x2="56" y2="55" gradientUnits="userSpaceOnUse">
            <stop stop-color="#4386FA"/>
            <stop offset="1" stop-color="#2164D9"/>
        </linearGradient>
    </defs>
</svg>
