<svg xmlns="http://www.w3.org/2000/svg" xmlns:xlink="http://www.w3.org/1999/xlink" width="173" height="85" viewBox="0 0 173 85">
    <defs>
        <path id="c3z4308ucc" d="M32.96 17.644c-.633 9.091-8.514 15.948-17.604 15.316C6.265 32.327-.592 24.446.04 15.356.673 6.265 8.554-.592 17.644.04c9.091.633 15.948 8.514 15.316 17.604"/>
        <path id="42djzph9qf" d="M16.286 34.957c-9.641-.67-16.914-9.03-16.243-18.67C.713 6.644 9.073-.629 18.713.042c9.642.67 16.915 9.03 16.244 18.67-.67 9.642-9.03 16.915-18.67 16.244z"/>
        <path id="cjyeo10hqh" d="M0.181 0.307L8.529 0.307 8.529 12.23 0.181 12.23z"/>
        <path id="nj3h8rwamj" d="M0.195 0.017L12.001 0.017 12.001 8.333 0.195 8.333z"/>
        <path id="5md1uu5wrl" d="M0.073 0.316L11.334 0.316 11.334 13.858 0.073 13.858z"/>
        <filter id="fotlambsnb" width="169.7%" height="169.7%" x="-34.8%" y="-28.8%" filterUnits="objectBoundingBox">
            <feOffset dy="2" in="SourceAlpha" result="shadowOffsetOuter1"/>
            <feGaussianBlur in="shadowOffsetOuter1" result="shadowBlurOuter1" stdDeviation="3.5"/>
            <feColorMatrix in="shadowBlurOuter1" values="0 0 0 0 0 0 0 0 0 0 0 0 0 0 0 0 0 0 0.1 0"/>
        </filter>
        <filter id="jz52bxxand" color-interpolation-filters="auto">
            <feColorMatrix in="SourceGraphic" values="0 0 0 0 0.164706 0 0 0 0 0.364706 0 0 0 0 0.988235 0 0 0 1.000000 0"/>
        </filter>
        <filter id="ptslle423e" width="165.7%" height="165.7%" x="-32.9%" y="-27.1%" filterUnits="objectBoundingBox">
            <feOffset dy="2" in="SourceAlpha" result="shadowOffsetOuter1"/>
            <feGaussianBlur in="shadowOffsetOuter1" result="shadowBlurOuter1" stdDeviation="3.5"/>
            <feColorMatrix in="shadowBlurOuter1" values="0 0 0 0 0 0 0 0 0 0 0 0 0 0 0 0 0 0 0.11 0"/>
        </filter>
        <filter id="dsy2rapvkg" color-interpolation-filters="auto">
            <feColorMatrix in="SourceGraphic" values="0 0 0 0 0.164706 0 0 0 0 0.364706 0 0 0 0 0.988235 0 0 0 1.000000 0"/>
        </filter>
        <linearGradient id="8qam6a1sma" x1="50%" x2="50%" y1="0%" y2="100%">
            <stop offset="0%" stop-color="#89B7FC"/>
            <stop offset="100%" stop-color="#0059FF"/>
        </linearGradient>
    </defs>
    <g fill="none" fill-rule="evenodd">
        <g>
            <g transform="translate(-820.000000, -304.000000) translate(820.100996, 304.864991)">
                <ellipse cx="86.399" cy="38.135" stroke="#B3CDFF" rx="83" ry="23.5" transform="translate(86.399004, 38.135009) rotate(-10.000000) translate(-86.399004, -38.135009)"/>
                <path fill="url(#8qam6a1sma)" d="M88.034 12.466c.194.097.35.254.447.447L113.48 62.91c.247.494.047 1.095-.447 1.342-.243.121-.525.139-.78.048l-15.87-5.602.001 16.448h-18V58.841l-15.462 5.46c-.521.183-1.093-.09-1.276-.61-.09-.257-.073-.538.048-.78l24.999-49.998c.247-.494.847-.694 1.341-.447z" transform="translate(87.587151, 43.753225) rotate(50.000000) translate(-87.587151, -43.753225)"/>
                <g>
                    <g transform="translate(16.899004, 7.135009)">
                        <use fill="#000" filter="url(#fotlambsnb)" xlink:href="#c3z4308ucc"/>
                        <use fill="#FCFDFF" xlink:href="#c3z4308ucc"/>
                    </g>
                    <g filter="url(#jz52bxxand)" transform="translate(16.899004, 7.135009)">
                        <g>
                            <path fill="#000" d="M9.5 0c.317 0 .757.136 1.216.779.413.638.723 1.337.918 2.071.203.703.362 1.418.475 2.14.266-.1.526-.192.783-.278.066-.41.367-.74.768-.847.401-.106.827.034 1.087.356.555-.114 1.123-.155 1.688-.12.823.063 1.172.38 1.317.633.146.253.247.713-.101 1.466-.346.676-.796 1.294-1.333 1.83-.503.522-1.037 1.013-1.6 1.47.563.457 1.097.948 1.6 1.47.538.537.988 1.157 1.333 1.836.348.75.247 1.222.101 1.463-.145.24-.494.56-1.317.633-.12.016-.247.016-.38.016-.632-.013-1.26-.1-1.871-.256-.705-.166-1.398-.378-2.075-.634-.114.717-.273 1.425-.475 2.122-.196.73-.506 1.426-.918 2.062-.46.652-.915.788-1.216.788-.3 0-.757-.136-1.2-.801-.305-.457-.548-.952-.722-1.473-.43-.143-.72-.544-.722-.997 0-.25.09-.492.253-.681-.076-.332-.142-.68-.202-1.042-.678.255-1.37.466-2.075.633-.612.158-1.24.244-1.871.257-.133 0-.26-.016-.38-.016-.823-.063-1.172-.38-1.317-.633-.146-.254-.248-.713.1-1.466.348-.676.797-1.293 1.334-1.83.498-.522 1.027-1.012 1.583-1.47-.307-.25-.592-.5-.861-.75-.096.03-.197.046-.298.047-.28 0-.549-.112-.746-.31-.198-.198-.309-.467-.308-.748 0-.116.02-.232.06-.342-.307-.367-.569-.77-.779-1.2-.348-.75-.247-1.222-.101-1.463.145-.24.494-.56 1.317-.633.758-.04 1.518.042 2.251.24.705.173 1.398.39 2.075.65.114-.717.273-1.425.475-2.122.196-.73.506-1.426.918-2.062C8.744.136 9.184 0 9.5 0zm0 12.857c-.576.291-1.146.56-1.707.798.057.36.12.719.19 1.035.44.034.812.339.931.763.12.425-.038.879-.396 1.137.14.378.32.738.542 1.074.215.304.383.386.44.386.057 0 .225-.082.44-.386.352-.555.617-1.16.786-1.796.209-.726.37-1.466.48-2.213-.56-.238-1.13-.507-1.706-.798zm4.456-2.755c-.485.364-1.004.725-1.546 1.08-.035.642-.088 1.272-.161 1.874.701.278 1.42.507 2.153.687.634.172 1.291.246 1.947.219.4-.035.558-.14.58-.174.019-.035.029-.222-.14-.583-.302-.585-.694-1.119-1.162-1.583-.523-.543-1.081-1.051-1.671-1.52zm-8.905-.004c-.59.47-1.149.978-1.672 1.52-.467.465-.86 1-1.162 1.584-.111.174-.162.38-.146.586.025.038.184.139.58.174.656.027 1.313-.047 1.947-.219.735-.18 1.456-.411 2.16-.69-.073-.608-.127-1.241-.162-1.875-.542-.354-1.058-.714-1.545-1.08zm6.365 1.701l-.437.263-.447.247c.27.13.539.253.802.367.031-.285.06-.58.082-.877zm-3.832 0c.022.298.05.592.083.877.262-.114.531-.237.8-.367l-.446-.247zM9.5 7.211c-.317.177-.659.357-1.004.55-.345.194-.662.393-.978.593-.026.38-.026.76-.026 1.146 0 .386.026.766.026 1.146.32.2.643.4.978.592.336.194.671.374 1.004.552.332-.178.668-.358 1.004-.551.335-.194.659-.393.978-.593.026-.38.026-.76.026-1.146 0-.386-.01-.766-.026-1.146-.32-.2-.643-.4-.978-.592-.336-.194-.671-.374-1.004-.551zm-.035.797c.82 0 1.485.665 1.485 1.486 0 .82-.665 1.485-1.485 1.485-.82 0-1.485-.665-1.485-1.485 0-.82.665-1.486 1.485-1.486zm2.999.982h-.016c.003.171.016.339.016.51v.51c.247-.168.488-.339.719-.51-.231-.171-.472-.342-.719-.51zm-5.896 0c-.247.168-.488.339-.72.51.232.171.473.342.72.51l-.017-.012.008-.243.009-.255zm9.781-3.952c-.468-.028-.94.006-1.4.101-.094.37-.381.658-.75.756-.368.098-.76-.01-1.026-.284-.3.089-.608.21-.924.336.072.608.126 1.241.161 1.875.542.354 1.061.715 1.546 1.08.59-.47 1.148-.978 1.671-1.52.468-.465.86-1 1.163-1.584.168-.364.158-.55.139-.589-.17-.117-.373-.177-.58-.17zM2.972 5.02l-.328.006c-.396.034-.554.136-.58.174-.018.205.031.41.14.585.165.339.368.658.605.95.102-.033.209-.05.317-.05.582 0 1.055.471 1.057 1.054 0 .123-.023.244-.066.358.288.266.595.532.921.789.49-.366 1.005-.725 1.545-1.08.035-.643.09-1.273.162-1.875-.701-.277-1.42-.507-2.153-.687-.635-.172-1.291-.246-1.948-.218zm4.71 1.304c-.031.285-.06.58-.082.877l.437-.263.446-.247c-.269-.13-.538-.253-.8-.367zm3.667 0c-.263.114-.532.237-.8.367h-.017c.15.083.298.162.463.247l.437.263c-.023-.298-.051-.592-.083-.877zM9.5.95c-.057 0-.225.082-.44.386-.351.556-.616 1.161-.786 1.796-.209.727-.37 1.468-.48 2.216.56.238 1.13.507 1.706.798.576-.29 1.146-.56 1.707-.798-.111-.748-.272-1.489-.482-2.216-.168-.635-.433-1.24-.785-1.796C9.725 1.032 9.557.95 9.5.95z" transform="translate(7.000000, 7.000000)"/>
                        </g>
                    </g>
                </g>
                <g>
                    <g transform="translate(127.899004, 26.135009)">
                        <use fill="#000" filter="url(#ptslle423e)" xlink:href="#42djzph9qf"/>
                        <use fill="#FFF" xlink:href="#42djzph9qf"/>
                    </g>
                    <g filter="url(#dsy2rapvkg)" transform="translate(127.899004, 26.135009)">
                        <g>
                            <g transform="translate(8.000000, 8.000000) translate(1.000000, 1.000000) translate(9.000000, 2.684067)">
                                <mask id="wv1bfxxmoi" fill="#fff">
                                    <use xlink:href="#cjyeo10hqh"/>
                                </mask>
                                <path fill="#000" d="M6.165.307L.181 6.268l5.984 5.962C7.631 10.67 8.53 8.574 8.53 6.268c0-2.305-.898-4.4-2.364-5.96" mask="url(#wv1bfxxmoi)"/>
                            </g>
                            <g transform="translate(8.000000, 8.000000) translate(1.000000, 1.000000) translate(2.666667, 9.350733)">
                                <mask id="s9usj8f8gk" fill="#fff">
                                    <use xlink:href="#nj3h8rwamj"/>
                                </mask>
                                <path fill="#000" d="M0.195 5.898L6.098 8.334 12.001 5.898 6.098 0.017z" mask="url(#s9usj8f8gk)"/>
                            </g>
                            <g transform="translate(8.000000, 8.000000) translate(1.000000, 1.000000) translate(3.333333, 0.017400)">
                                <mask id="8wsra8sdrm" fill="#fff">
                                    <use xlink:href="#5md1uu5wrl"/>
                                </mask>
                                <path fill="#000" d="M5.223 8.727L11.334 2.639 5.704 0.316 0.073 13.858z" mask="url(#8wsra8sdrm)"/>
                            </g>
                            <path fill="#000" d="M0 8.952c0 2.296.89 4.383 2.345 5.942L8.22.764 0 8.951z" transform="translate(8.000000, 8.000000) translate(1.000000, 1.000000)"/>
                        </g>
                    </g>
                </g>
            </g>
        </g>
    </g>
</svg>
