<svg xmlns="http://www.w3.org/2000/svg" width="44" height="45" viewBox="0 0 44 45">
    <g fill="none" fill-rule="evenodd">
        <g fill-rule="nonzero">
            <g>
                <g>
                    <path fill="#0059FF" d="M21.27 0L0 18.33 21.27 32.1 42.54 18.33z" transform="translate(-465 -1493) translate(448 1478) translate(17.73 15.15)"/>
                    <path fill="#FFF" d="M4.11 7.11H38.415V44.7H4.11z" transform="translate(-465 -1493) translate(448 1478) translate(17.73 15.15)"/>
                    <path fill="#0059FF" d="M4.11 7.11H38.415V44.7H4.11z" opacity=".2" transform="translate(-465 -1493) translate(448 1478) translate(17.73 15.15)"/>
                    <path fill="#0059FF" d="M42.54 44.7L42.54 18.33 0 44.7z" transform="translate(-465 -1493) translate(448 1478) translate(17.73 15.15)"/>
                    <path fill="#FFF" d="M0 44.7L20.805 31.8 0 18.33z" transform="translate(-465 -1493) translate(448 1478) translate(17.73 15.15)"/>
                    <path fill="#0059FF" d="M0 44.7L20.805 31.8 0 18.33z" opacity=".7" transform="translate(-465 -1493) translate(448 1478) translate(17.73 15.15)"/>
                    <g fill="#0059FF" opacity=".6">
                        <path d="M6.21 9L4.335 9 1.41 1.275 3.51 1.275 5.295 6.75 5.295 6.75 7.08 1.275 9.135 1.275zM10.035 9L10.035 1.275 11.91 1.275 11.91 9zM19.59 3.66c.01.395-.078.787-.255 1.14-.163.3-.394.557-.675.75-.306.188-.64.325-.99.405-.378.092-.766.137-1.155.135h-.93V9h-1.86V1.275H16.5c.399-.003.797.042 1.185.135.343.065.669.198.96.39.272.189.493.441.645.735.187.346.29.732.3 1.125zm-1.875 0c.01-.152-.027-.304-.105-.435-.073-.12-.176-.219-.3-.285-.131-.066-.274-.107-.42-.12-.16-.015-.32-.015-.48 0h-.825v1.815h.795c.165.016.33.016.495 0 .152-.025.3-.076.435-.15.12-.07.223-.168.3-.285.094-.164.13-.353.105-.54z" transform="translate(-465 -1493) translate(448 1478) translate(17.73 15.15) translate(10.77 11.85)"/>
                    </g>
                    <path fill="#0059FF" d="M0 44.7L19.23 30.78 20.805 31.8z" opacity=".2" transform="translate(-465 -1493) translate(448 1478) translate(17.73 15.15)"/>
                </g>
            </g>
        </g>
    </g>
</svg>
