<svg id="Layer_1" data-name="Layer 1" xmlns="http://www.w3.org/2000/svg" viewBox="0 0 40 40"><defs><style>.cls-1{fill:#b3d2ff;}.cls-2{fill:#0059ff;opacity:0.7;}</style></defs><title>Artboard 4 copy 2</title><path class="cls-1" d="M36.65,24.3a.5.5,0,0,0-.37-.84H3.85a.5.5,0,0,0-.5.5v6.81a.5.5,0,0,0,.5.5H21.47a.5.5,0,0,1,.5.5v7.39a.5.5,0,0,0,.87.33Z"/><path class="cls-2" d="M3.35,15.7a.5.5,0,0,0,.37.84H36.15a.5.5,0,0,0,.5-.5V9.23a.5.5,0,0,0-.5-.5H18.53a.5.5,0,0,1-.5-.5V.84a.5.5,0,0,0-.87-.33Z"/></svg>