<svg xmlns="http://www.w3.org/2000/svg" width="22" height="25" viewBox="0 0 22 25">
    <g fill="none" fill-rule="evenodd">
        <g>
            <g>
                <g>
                    <g>
                        <g>
                            <path fill="#CCDEFF" d="M4.947 0.191L0.217 4.915 0.217 20.688 17.383 20.688 17.383 0.191z" transform="translate(-448 -530) translate(448 372) translate(0 115) translate(0 43)"/>
                            <path fill="#0059FF" d="M3.032 9.804L13.922 9.804 13.922 8.054 3.032 8.054zM3.032 13.081L9.906 13.081 9.906 11.332 3.032 11.332z" transform="translate(-448 -530) translate(448 372) translate(0 115) translate(0 43)"/>
                            <path fill="#5E83F8" d="M4.947 4.916L4.947 0.191 0.217 4.916z" transform="translate(-448 -530) translate(448 372) translate(0 115) translate(0 43)"/>
                        </g>
                        <g>
                            <path fill="#0059FF" d="M8.431 5.17c0 1.796-1.458 3.253-3.256 3.253-1.8 0-3.257-1.457-3.257-3.254 0-1.796 1.458-3.253 3.257-3.253 1.798 0 3.256 1.457 3.256 3.253M5.175.115C2.38.115.115 2.378.115 5.169c0 2.792 2.265 5.055 5.06 5.055 1.005 0 1.939-.296 2.726-.801l2.553 2.55 1.531-1.53-2.553-2.55c.506-.786.802-1.72.802-2.724 0-2.791-2.265-5.054-5.06-5.054" transform="translate(-448 -530) translate(448 372) translate(0 115) translate(0 43) translate(9.9 12.912)"/>
                            <path fill="#E6EFFF" d="M8.431 5.17c0 1.796-1.458 3.253-3.256 3.253-1.8 0-3.257-1.457-3.257-3.254 0-1.796 1.458-3.253 3.257-3.253 1.798 0 3.256 1.457 3.256 3.253" transform="translate(-448 -530) translate(448 372) translate(0 115) translate(0 43) translate(9.9 12.912)"/>
                        </g>
                    </g>
                </g>
            </g>
        </g>
    </g>
</svg>
