<svg xmlns="http://www.w3.org/2000/svg" width="60" height="46" viewBox="0 0 60 46">
    <g fill="none" fill-rule="evenodd">
        <g fill-rule="nonzero">
            <g>
                <g>
                    <path fill="#FFF" d="M44.85 14.355c-.136-.966.12-1.946.712-2.721.592-.775 1.47-1.281 2.438-1.404L46.695.885.81 7.305l1.32 9.345c1.32-.236 2.665.27 3.503 1.317.838 1.048 1.035 2.47.514 3.707-.52 1.237-1.677 2.089-3.012 2.221L4.5 33.24l45.825-6.42-1.305-9.345c-.967.141-1.95-.108-2.733-.694-.783-.585-1.3-1.458-1.437-2.426z" transform="translate(-457 -1404) translate(448 1388) translate(9 16.5)"/>
                    <path fill="#FFF" d="M44.85 14.355c-.136-.966.12-1.946.712-2.721.592-.775 1.47-1.281 2.438-1.404L46.695.885.81 7.305l1.32 9.345c1.32-.236 2.665.27 3.503 1.317.838 1.048 1.035 2.47.514 3.707-.52 1.237-1.677 2.089-3.012 2.221L4.5 33.24l45.825-6.42-1.305-9.345c-.967.141-1.95-.108-2.733-.694-.783-.585-1.3-1.458-1.437-2.426z" transform="translate(-457 -1404) translate(448 1388) translate(9 16.5)"/>
                    <g fill="#0059FF" opacity=".85">
                        <path d="M44.85 14.355c-.136-.966.12-1.946.712-2.721.592-.775 1.47-1.281 2.438-1.404L46.695.885.81 7.305l1.32 9.345c1.32-.236 2.665.27 3.503 1.317.838 1.048 1.035 2.47.514 3.707-.52 1.237-1.677 2.089-3.012 2.221L4.5 33.24l45.825-6.42-1.305-9.345c-.967.141-1.95-.108-2.733-.694-.783-.585-1.3-1.458-1.437-2.426z" transform="translate(-457 -1404) translate(448 1388) translate(9 16.5)"/>
                    </g>
                    <path fill="#0059FF" d="M44.85 14.355L11.505 10.05 9.63 22.815h.495l.84.105c.691 0 1.33.369 1.676.967.345.6.345 1.337 0 1.936-.346.598-.985.967-1.676.967l-1.89-.225-.885 6.09 2.31-.27 15-5.745 21.315-9.54c-1.07-.532-1.806-1.56-1.965-2.745z" opacity=".5" transform="translate(-457 -1404) translate(448 1388) translate(9 16.5)"/>
                    <path fill="#FFF" d="M53.79 30.645c.13-.96.637-1.827 1.408-2.412.77-.586 1.743-.84 2.702-.708l1.29-9.36-45.87-6.255L12 21.255c1.358.093 2.552.932 3.1 2.178.547 1.246.358 2.693-.49 3.757-.85 1.063-2.219 1.568-3.555 1.31L9.78 37.86l45.855 6.255 1.275-9.345c-2-.279-3.396-2.125-3.12-4.125z" transform="translate(-457 -1404) translate(448 1388) translate(9 16.5)"/>
                    <g fill="#0059FF" opacity=".2">
                        <path d="M44.79 20.145c.13-.96.637-1.827 1.408-2.412.77-.586 1.743-.84 2.702-.708l1.29-9.36L4.32 1.41 3 10.755c1.358.093 2.552.932 3.1 2.178.547 1.246.358 2.693-.49 3.757-.85 1.063-2.219 1.568-3.555 1.31L.78 27.36l45.855 6.255 1.275-9.345c-2-.279-3.396-2.125-3.12-4.125z" transform="translate(-457 -1404) translate(448 1388) translate(9 16.5) translate(9 10.5)"/>
                    </g>
                    <g fill="#0059FF" opacity=".7">
                        <path d="M18.795 9.87c-.194-.026-.383-.087-.555-.18-.16-.1-.302-.227-.42-.375-.108-.152-.194-.319-.255-.495-.036-.188-.036-.382 0-.57.024-.197.09-.386.195-.555.092-.162.22-.3.375-.405.312-.225.699-.322 1.08-.27.19.028.372.089.54.18.162.097.305.225.42.375.12.144.207.313.255.495.036.188.036.382 0 .57-.025.19-.086.373-.18.54-.1.16-.227.302-.375.42-.312.225-.699.322-1.08.27zm-.45 2.325l3.84-4.905.66.495-3.825 4.905-.675-.495zm.705-4.185c-.116-.02-.235.006-.33.075-.1.07-.166.179-.18.3-.018.113.015.228.09.315.07.1.179.166.3.18.113.016.227-.017.315-.09.1-.063.166-.168.18-.285.015-.118-.018-.236-.09-.33-.067-.093-.17-.153-.285-.165zm3 4.905c-.196-.028-.385-.094-.555-.195-.16-.095-.302-.217-.42-.36-.112-.153-.193-.326-.24-.51-.046-.187-.046-.383 0-.57.054-.38.26-.72.57-.945.15-.118.324-.2.51-.24.188-.036.382-.036.57 0 .196.028.385.094.555.195.158.091.296.214.405.36.12.145.207.314.255.495.038.193.038.392 0 .585-.02.19-.082.375-.18.54-.097.159-.224.296-.375.405-.15.118-.324.2-.51.24-.197.05-.403.05-.6 0h.015zm.255-1.875c-.118-.015-.236.018-.33.09-.091.075-.15.183-.165.3-.031.114.003.235.09.315.064.096.17.157.285.165.102.038.213.038.315 0 .1-.063.166-.168.18-.285.016-.118-.016-.237-.09-.33-.047-.133-.161-.23-.3-.255h.015zM.705 9.735l.255-1.83L5.01 5.13c.242-.163.46-.36.645-.585.17-.212.278-.466.315-.735.052-.297-.024-.602-.21-.84-.193-.247-.482-.4-.795-.42-.337-.064-.685.03-.945.255-.281.254-.476.59-.555.96l-2.055-.57c.098-.44.287-.853.555-1.215.247-.328.552-.607.9-.825.356-.227.754-.38 1.17-.45.437-.068.883-.068 1.32 0 .418.062.827.178 1.215.345.376.157.717.387 1.005.675.607.592.882 1.445.735 2.28-.039.306-.125.605-.255.885-.123.25-.28.482-.465.69-.187.204-.393.39-.615.555-.21.165-.45.345-.675.495L3.885 8.25l3.78.525-.255 1.905-6.705-.945zM16.5 7.155c-.087.63-.243 1.249-.465 1.845-.188.546-.473 1.054-.84 1.5-.337.41-.77.729-1.26.93-.551.204-1.145.26-1.725.165-.587-.06-1.146-.278-1.62-.63-.42-.328-.76-.749-.99-1.23-.23-.523-.373-1.08-.42-1.65-.066-.628-.066-1.262 0-1.89.08-.631.236-1.25.465-1.845.181-.55.466-1.059.84-1.5.347-.398.784-.706 1.275-.9.557-.2 1.157-.252 1.74-.15.587.06 1.146.278 1.62.63.42.313.754.726.975 1.2.228.518.365 1.07.405 1.635.066.628.066 1.262 0 1.89zm-2.25-.315c0-.285 0-.6.075-.96.03-.334.03-.67 0-1.005-.05-.288-.157-.564-.315-.81-.15-.225-.392-.372-.66-.405-.269-.041-.542.035-.75.21-.218.2-.396.439-.525.705-.146.301-.256.618-.33.945-.09.345-.15.66-.195.945-.045.285 0 .63-.075.99-.013.337.012.674.075 1.005.043.29.15.567.315.81.143.233.388.383.66.405.269.047.545-.03.75-.21.216-.198.39-.438.51-.705.146-.301.256-.618.33-.945.062-.322.107-.648.135-.975z" transform="translate(-457 -1404) translate(448 1388) translate(9 16.5) translate(22.5 21)"/>
                    </g>
                </g>
            </g>
        </g>
    </g>
</svg>
